<svg xmlns="http://www.w3.org/2000/svg" width="96" height="96" viewBox="0 0 24 24"><path fill="currentColor" d="M12 8 9 9.75v3.5L12 15l3-1.75v-3.5Zm1.517 2.04-1.53.892-1.517-.885L12 9.155Zm-3.527.882 1.484.866v1.75l-1.484-.865Zm2.474 2.653v-1.767l1.546-.902v1.767ZM3 0 0 1.75v3.5L3 7l3-1.75v-3.5Zm1.517 2.04-1.53.892-1.517-.885L3 1.155ZM.99 2.921l1.484.866v1.75L.99 4.674Zm2.474 2.653V3.808l1.546-.902v1.767ZM3 17l-3 1.75v3.5L3 24l3-1.75v-3.5Zm1.517 2.04-1.53.892-1.517-.885L3 18.155Zm-3.527.882 1.484.866v1.75L.99 21.674Zm2.474 2.653v-1.767l1.546-.902v1.767ZM21 0l-3 1.75v3.5L21 7l3-1.75v-3.5Zm1.517 2.04-1.53.892-1.517-.885L21 1.155Zm-3.527.882 1.484.866v1.75l-1.484-.865Zm2.474 2.653V3.808l1.546-.902v1.767ZM21 17l-3 1.75v3.5L21 24l3-1.75v-3.5Zm1.517 2.04-1.53.892-1.517-.885 1.53-.892Zm-3.527.882 1.484.866v1.75l-1.484-.865Zm2.474 2.653v-1.767l1.546-.902v1.767ZM9 3h6v1H9zm0 17h6v1H9zM3.5 9v6h-1V9zm3.793-.172L5.172 6.707 5.879 6 8 8.12zM16 8.293l2.121-2.121.707.707L16.707 9zm-7.872 6.586L6.007 17l-.707-.707 2.121-2.121zm8.751-.75L19 16.25l-.707.707-2.121-2.121zM21.5 9v6h-1V9z"/></svg>