<svg width="300" height="232" viewBox="0 0 300 232" fill="none" xmlns="http://www.w3.org/2000/svg">
<path d="M67.9863 111.707V137.725C67.9863 139.568 70.8429 139.573 70.8429 137.725V111.707C70.8429 109.863 67.9863 109.863 67.9863 111.707Z" fill="#39548B"/>
<path d="M55.0818 111.532C54.0406 109.157 54.9899 105.905 57.4047 104.979L57.4703 106.787C55.9716 106.567 54.604 105.807 53.6219 104.65C52.6398 103.493 52.1101 102.017 52.1315 100.498C52.1529 98.9781 52.7239 97.5181 53.7382 96.3894C54.7525 95.2607 56.141 94.5402 57.6453 94.362C58.564 94.2566 59.8325 95.3056 59.0232 95.7928C56.591 93.5236 54.6487 90.2451 55.3399 86.984C56.0311 83.7229 60.4144 81.4538 62.8816 83.6834C61.0881 83.1787 59.8457 81.4538 59.382 79.6411C58.9183 77.8284 59.0976 75.928 59.277 74.067C59.4039 72.7503 59.5613 71.3897 60.3619 70.3627C61.2893 69.1777 62.8772 68.7212 64.3777 68.6597C66.0324 68.596 67.6782 68.9315 69.1769 69.6381C70.6756 70.3448 71.9834 71.4018 72.9906 72.7206C73.9977 74.0394 74.6748 75.5814 74.9649 77.2171C75.255 78.8528 75.1498 80.5345 74.658 82.1209C75.6466 80.7208 77.8033 82.0639 78.8138 83.4376C80.1262 85.2415 81.3555 87.2561 81.5042 89.4901C81.653 91.7241 80.3712 94.1952 78.197 94.6999C80.8874 93.6378 84.3214 95.3276 85.1089 98.1146C85.8963 100.902 83.9145 104.158 81.0754 104.698C83.8489 105.291 85.6732 108.376 85.3188 111.198C84.9645 114.02 82.7772 116.399 80.1568 117.492C76.3422 119.077 72.4795 117.861 68.6823 116.922C65.6683 116.18 62.326 116.36 59.4344 115.306C57.6102 114.653 55.8867 113.371 55.0818 111.532Z" fill="#93C9B3"/>
<mask id="mask0_296_1625" style="mask-type:luminance" maskUnits="userSpaceOnUse" x="52" y="68" width="34" height="51">
<path d="M55.0818 111.524C54.0406 109.15 54.9899 105.898 57.4047 104.971L57.4703 106.78C55.9716 106.559 54.604 105.799 53.6219 104.642C52.6398 103.485 52.1101 102.01 52.1315 100.49C52.1529 98.9706 52.7239 97.5105 53.7382 96.3818C54.7525 95.2531 56.141 94.5326 57.6453 94.3544C58.564 94.2491 59.8325 95.298 59.0232 95.7852C56.591 93.5161 54.6487 90.2375 55.3399 86.9764C56.0311 83.7154 60.4144 81.4462 62.8816 83.6759C61.0881 83.1711 59.8457 81.4462 59.382 79.6335C58.9183 77.8209 59.0976 75.9204 59.277 74.0595C59.4039 72.7427 59.5613 71.3822 60.3619 70.3551C61.2893 69.1701 62.8772 68.7136 64.3777 68.6522C66.0324 68.5884 67.6782 68.924 69.1769 69.6306C70.6756 70.3372 71.9834 71.3943 72.9906 72.7131C73.9977 74.0318 74.6748 75.5738 74.9649 77.2096C75.255 78.8453 75.1498 80.5269 74.658 82.1134C75.6466 80.7133 77.8033 82.0563 78.8138 83.4301C80.1262 85.234 81.3555 87.2485 81.5042 89.4826C81.653 91.7166 80.3712 94.1876 78.197 94.6923C80.8874 93.6302 84.3214 95.32 85.1089 98.107C85.8963 100.894 83.9145 104.151 81.0754 104.691C83.8489 105.283 85.6732 108.369 85.3188 111.191C84.9645 114.013 82.7772 116.392 80.1568 117.485C76.3422 119.069 72.4795 117.853 68.6823 116.914C65.6683 116.172 62.326 116.352 59.4344 115.299C57.6102 114.645 55.8867 113.363 55.0818 111.524Z" fill="white"/>
</mask>
<g mask="url(#mask0_296_1625)">
<path d="M72.2958 105.569C71.2722 105.714 70.2004 105.569 69.2336 105.885C67.217 106.53 66.1189 108.861 64.1241 109.563C63.1849 109.824 62.2027 109.892 61.2369 109.761L57.1248 109.484C55.703 109.392 53.8832 109.55 53.4414 110.902C52.9996 112.254 54.347 113.456 55.5325 114.224C59.8458 117.016 64.3385 119.737 69.3518 120.869C74.365 122.002 80.0388 121.308 83.8928 117.911C87.5193 114.698 88.9717 109.638 89.3129 104.797C89.4485 102.874 89.431 100.825 88.5517 99.0646C87.8343 97.625 86.1326 96.0318 84.3959 96.3653C82.7729 96.6726 81.3031 98.2614 80.1832 99.3806C79.0633 100.5 77.9958 101.847 76.8103 103.002C75.5461 104.209 74.0719 105.293 72.2958 105.569Z" fill="#6E9786"/>
<path d="M63.2007 93.855C65.4274 94.4124 67.9865 94.4827 69.5832 96.1329C69.8036 96.3275 69.9568 96.5872 70.0207 96.8747C70.0304 97.142 69.949 97.4046 69.7899 97.6192C69.6309 97.8338 69.4037 97.9877 69.1458 98.0553C68.6273 98.1718 68.0894 98.1718 67.5709 98.0553C65.1066 97.7205 62.6206 97.5738 60.1341 97.6164C58.9007 97.6928 57.6629 97.6502 56.4376 97.4892C54.8497 97.2083 53.3754 96.3831 52.7149 94.8557C52.1899 93.6926 51.6869 91.8273 52.3999 90.6422C53.7123 88.4828 56.8313 90.256 58.1831 91.3313C59.6563 92.5232 61.3674 93.3838 63.2007 93.855Z" fill="#6E9786"/>
</g>
<path d="M146.742 162.821L138.286 183.217L80.1045 159.015L85.354 171.344C85.354 171.344 118.78 206.601 143.098 205.579C167.417 204.556 175.864 177.783 175.864 177.783L146.742 162.821Z" fill="#C17276"/>
<path d="M185.917 90.4534C185.917 90.4534 148.768 131.359 142.241 160.507L178.025 178.901L201.149 130.209L185.917 90.4534Z" fill="#14D594"/>
<path d="M172.947 20.457C164.543 25.048 159.565 34.3966 157.894 43.8506C156.223 53.3046 157.391 63.0044 158.567 72.533C155.448 74.3764 152.093 76.4831 150.234 79.595C148.375 82.7068 148.462 87.3241 151.415 89.4264C153.707 91.0635 156.813 90.6949 159.591 90.2559C159.718 93.8023 162.994 96.7034 166.503 97.1687C170.011 97.6339 173.537 96.0846 176.254 93.8155C176.473 95.8651 177.951 97.6251 179.753 98.6127C181.556 99.6002 183.651 99.9294 185.703 100.013C192.225 100.32 199.426 98.0948 202.764 92.4593C203.901 90.5237 204.514 88.3292 205.017 86.139C207.016 77.4743 207.566 68.5363 206.644 59.6907C206.014 53.6821 204.654 47.6164 201.478 42.4812C198.665 37.9386 194.579 34.3527 190.449 30.9644C184.867 26.3954 179.412 23.6303 172.947 20.457Z" fill="#343766"/>
<path d="M288.002 226.759L281.711 215.835C273.406 201.419 268.227 185.407 266.514 168.846C258.364 89.7595 214.658 86.1517 214.658 86.1517C214.658 86.1517 182.566 83.0399 168.615 120.957C151.231 168.227 198.437 201.715 210.493 225.943L288.002 226.759Z" fill="#14D594"/>
<path d="M166.975 40.2074C166.975 40.2074 155.886 85.6077 179.561 83.1761C203.236 80.7446 216.565 53.3789 207.768 36.8849C198.971 20.3909 172.334 10.261 166.975 40.2074Z" fill="#DA8C8D"/>
<mask id="mask1_296_1625" style="mask-type:luminance" maskUnits="userSpaceOnUse" x="164" y="21" width="47" height="63">
<path d="M166.975 40.2113C166.975 40.2113 155.886 85.6116 179.561 83.18C203.236 80.7485 216.565 53.3829 207.768 36.8888C198.971 20.3948 172.334 10.2649 166.975 40.2113Z" fill="white"/>
</mask>
<g mask="url(#mask1_296_1625)">
<path d="M196.245 47.2259C199.53 45.8828 202.807 44.2106 205.073 41.4631C207.339 38.7155 208.319 34.66 206.639 31.5263C205.414 29.2352 203.039 27.8219 200.681 26.7422C191.192 22.4528 180.46 21.8277 170.54 24.9866C164.98 26.7817 159.359 30.3149 157.762 35.9592C156.721 39.6372 157.705 43.2713 159.109 46.6948C159.893 48.5996 160.802 50.6449 162.736 51.6149C165.361 52.9316 168.86 52.5542 171.66 52.462C180.099 52.1875 188.423 50.4132 196.245 47.2215V47.2259Z" fill="#C17276"/>
<path d="M168.725 71.7304C168.725 71.7304 176.708 75.2724 181.468 68.9609C181.446 68.9609 176.074 81.5882 168.725 71.7304Z" fill="#EAEDF7"/>
</g>
<path d="M210.454 46C210.454 46 208.166 69.1873 216.381 91.2773C216.381 91.2773 202.921 102.891 191.333 103.194C179.744 103.496 190.348 60.8876 190.348 60.8876L210.454 46Z" fill="#DA8C8D"/>
<path d="M186.551 81.673C186.551 81.673 188.222 82.1953 196.779 74.7383C195.996 75.0455 197.063 85.2369 185.917 90.4598C185.917 90.4598 186.188 84.3459 186.551 81.673Z" fill="#C17276"/>
<path d="M299.515 219.117H13.2695V231.907H299.515V219.117Z" fill="black"/>
<path d="M202.868 163.914C202.868 163.914 234.492 169.839 242.081 166.877C242.081 166.877 239.129 208.336 229.833 210.872C220.537 213.409 120.626 214.678 120.626 214.678V203.679C120.626 203.679 180.921 191.828 201.162 189.296L202.868 163.914Z" fill="#DA8C8D"/>
<mask id="mask2_296_1625" style="mask-type:luminance" maskUnits="userSpaceOnUse" x="120" y="163" width="123" height="52">
<path d="M202.868 163.914C202.868 163.914 234.492 169.839 242.081 166.877C242.081 166.877 239.129 208.336 229.833 210.872C220.537 213.409 120.626 214.678 120.626 214.678V203.679C120.626 203.679 180.921 191.828 201.162 189.296L202.868 163.914Z" fill="white"/>
</mask>
<g mask="url(#mask2_296_1625)">
<path d="M202.575 168.323C202.575 168.323 231.649 174.503 242.082 166.853L200.523 160.199L202.558 168.323" fill="#C17276"/>
</g>
<path d="M174.604 25.8008C189.596 36.0492 196.915 55.1195 196.595 73.3209C196.543 76.3581 196.311 79.4656 197.072 82.3887C197.833 85.3118 199.832 88.1646 202.759 88.9371C205.686 89.7096 209.321 87.5458 209.238 84.5086C209.133 85.7375 210.506 87.0059 211.513 87.7213C212.557 88.384 213.739 88.7969 214.968 88.9283C216.531 89.2274 218.139 89.196 219.689 88.8362C223.35 87.853 225.922 83.8283 225.284 80.08C227.497 81.704 230.446 81.8795 233.158 81.5855C235.345 81.3485 237.602 80.892 239.483 79.7157C241.365 78.5395 242.843 76.5249 242.891 74.2997C242.944 71.6663 241.037 69.362 238.88 67.8478C241.645 67.3518 244.344 66.3072 246.413 64.4068C248.482 62.5063 249.724 59.5218 248.981 56.8049C248.237 54.0881 245.599 52.113 242.856 51.3757C240.113 50.6383 237.169 50.8841 234.335 51.1343C228.543 41.1361 222.825 30.7165 214.273 22.9654C205.721 15.2144 194.268 9.93874 182.824 11.295C179.106 11.7339 175.26 12.9935 172.846 15.8684C170.431 18.7432 171.511 23.6809 174.604 25.8008Z" fill="#343766"/>
<path d="M102.997 212.728L77.7774 153.52H0.623047L31.9012 219.123H60.6946H105.718H170.116V212.728H102.997Z" fill="#1F1949"/>
<path d="M175.872 177.791C175.872 177.791 163.287 161.837 171.498 130.223C171.498 130.223 160.999 156.395 167.513 173.503L175.872 177.791Z" fill="#0B6B4B"/>
<path d="M200.326 163.372C200.326 163.372 199.014 131.244 205.576 114.996C205.576 114.996 196.148 134.567 196.616 162.723L200.326 163.372Z" fill="#0B6B4B"/>
<path d="M120.648 203.677C120.648 203.677 111.251 198.695 109.458 198.695C107.664 198.695 98.8408 202.97 98.8408 202.97L99.5277 204.59L105.845 202.887L100.726 207.408L102.992 212.727H125.101L120.648 203.677Z" fill="#DA8C8D"/>
<path d="M75.957 26.6634C75.957 11.9382 92.0817 0 111.969 0C131.855 0 147.98 11.9382 147.98 26.6634C147.98 35.7926 141.786 43.8421 132.345 48.6481L135.469 60.2484C135.469 60.2484 115.897 58.9624 97.8912 51.2157C92.2042 49.4294 87.296 46.5897 83.5557 43.0346L83.5075 42.9994C78.783 38.4875 75.957 32.8212 75.957 26.6634Z" fill="#B5D4E1"/>
<path d="M128.058 28.528C129.634 28.528 130.91 27.2468 130.91 25.6664C130.91 24.0859 129.634 22.8047 128.058 22.8047C126.483 22.8047 125.206 24.0859 125.206 25.6664C125.206 27.2468 126.483 28.528 128.058 28.528Z" fill="#D7E9F1"/>
<path d="M108.793 25.6825C108.793 26.2493 108.961 26.8034 109.274 27.2748C109.588 27.7461 110.034 28.1134 110.556 28.3304C111.078 28.5473 111.653 28.604 112.207 28.4934C112.761 28.3829 113.27 28.1099 113.67 27.7091C114.069 27.3083 114.341 26.7976 114.451 26.2416C114.562 25.6856 114.505 25.1094 114.289 24.5857C114.073 24.062 113.706 23.6144 113.237 23.2994C112.767 22.9845 112.215 22.8164 111.65 22.8164C111.274 22.8158 110.903 22.8896 110.556 23.0334C110.209 23.1772 109.894 23.3883 109.628 23.6546C109.363 23.9208 109.153 24.237 109.009 24.585C108.866 24.933 108.792 25.3059 108.793 25.6825Z" fill="#D7E9F1"/>
<path d="M95.8835 28.528C97.4587 28.528 98.7357 27.2468 98.7357 25.6664C98.7357 24.0859 97.4587 22.8047 95.8835 22.8047C94.3082 22.8047 93.0312 24.0859 93.0312 25.6664C93.0312 27.2468 94.3082 28.528 95.8835 28.528Z" fill="#D7E9F1"/>
</svg>