<svg width="205" height="282" viewBox="0 0 205 282" fill="none" xmlns="http://www.w3.org/2000/svg">
<mask id="mask0_296_1665" style="mask-type:alpha" maskUnits="userSpaceOnUse" x="0" y="0" width="205" height="282">
<rect x="0.957031" width="203.554" height="281.378" fill="#D9D9D9"/>
</mask>
<g mask="url(#mask0_296_1665)">
<path fill-rule="evenodd" clip-rule="evenodd" d="M132.515 207.212L134.547 274.054C117.598 276.36 93.5331 276.705 76.4668 275.156L73.3652 202.109L132.515 207.212Z" fill="#516299"/>
<path fill-rule="evenodd" clip-rule="evenodd" d="M124.066 114.561C124.066 114.561 150.249 122.914 158.164 133.159C165.047 142.076 172.847 171.161 182.903 190.74C192.405 209.243 204.38 219.385 204.38 219.385C204.38 219.385 205.756 260.777 190.313 265.398C167.611 272.176 160.137 256.309 160.137 256.309L161.15 270.773C151.668 272.455 132.759 275.384 132.759 275.384L129.864 240.161L81.1604 240.753L78.9639 276.751C78.9639 276.751 56.0769 274.407 44.8805 271.26L44.3125 260.552C44.3125 260.552 21.9064 271.273 12.6073 263.188C-5.00247 247.877 13.6052 169.559 23.7393 142.478C35.1762 111.91 76.4437 110.055 76.4437 110.055L124.066 114.561Z" fill="#14D594"/>
<path fill-rule="evenodd" clip-rule="evenodd" d="M126.04 114.28L131.455 244.403C114.506 246.764 97.489 246.832 80.4227 245.249L80.9908 239.328L96.4987 230.87L82.4014 196.472L78.3455 198.638L73.9431 108.787L89.4491 104.559L113.98 105.967L126.04 114.28Z" fill="#F2EDFF"/>
<path fill-rule="evenodd" clip-rule="evenodd" d="M159.077 262.858C159.077 262.858 158.888 261.004 158.67 258.503C158.554 257.177 158.418 255.662 158.329 254.138C158.068 249.766 157.969 245.388 157.969 245.388C157.961 245.251 157.979 245.114 158.023 244.985C158.067 244.855 158.136 244.735 158.227 244.632C158.317 244.529 158.427 244.445 158.55 244.385C158.673 244.324 158.807 244.288 158.944 244.28C159.08 244.271 159.217 244.289 159.347 244.333C159.477 244.377 159.597 244.447 159.7 244.537C159.803 244.627 159.887 244.737 159.947 244.86C160.008 244.983 160.043 245.117 160.052 245.254C160.052 245.254 160.518 249.609 160.821 253.977C160.925 255.492 160.984 257.007 161.043 258.349C161.15 260.86 161.198 262.725 161.198 262.725C161.206 263 161.107 263.268 160.921 263.472C160.736 263.675 160.479 263.799 160.204 263.816C159.929 263.834 159.659 263.744 159.449 263.566C159.239 263.388 159.106 263.136 159.079 262.862L159.077 262.858Z" fill="#269E76"/>
<path fill-rule="evenodd" clip-rule="evenodd" d="M121.367 152.411C122.683 146.606 129.784 141.844 137.228 141.776L186.327 141.321C193.768 141.251 198.735 145.902 197.417 151.707L179.618 230.143C178.292 235.946 171.199 240.708 163.758 240.777L114.659 241.233C107.217 241.303 102.25 236.652 103.566 230.847C107.903 211.739 117.026 171.521 121.366 152.413L121.367 152.411Z" fill="#582D2A"/>
<path fill-rule="evenodd" clip-rule="evenodd" d="M51.0137 199.664C51.0137 199.664 51.0856 201.073 51.1386 202.976C51.1671 203.987 51.2068 205.136 51.1993 206.285C51.1784 209.601 50.9947 212.913 50.9947 212.913C50.9787 213.178 50.8621 213.427 50.6685 213.61C50.475 213.792 50.2191 213.893 49.9533 213.893C49.6875 213.893 49.4317 213.792 49.2381 213.61C49.0446 213.427 48.9279 213.178 48.9119 212.913C48.9119 212.913 48.7225 209.605 48.7055 206.285C48.7055 205.136 48.7377 203.987 48.7661 202.976C48.8191 201.073 48.891 199.664 48.891 199.664C48.891 199.382 49.003 199.112 49.2022 198.913C49.4014 198.713 49.6716 198.602 49.9533 198.602C50.235 198.602 50.5052 198.713 50.7044 198.913C50.9037 199.112 51.0156 199.382 51.0156 199.664H51.0137Z" fill="#269E76"/>
<path fill-rule="evenodd" clip-rule="evenodd" d="M96.2257 228.354C99.2799 228.528 117.409 227.218 131.76 220.362C136.344 218.171 136.448 213.234 134.032 210.47C130.029 205.899 111.436 206.908 111.436 206.908C111.436 206.908 114.879 204.647 116.121 203.717C117.871 202.411 117.577 198.838 115.201 198.391C109.6 197.338 86.3623 205.85 86.3623 205.85L96.2313 228.354H96.2257Z" fill="#FBBFA3"/>
<path fill-rule="evenodd" clip-rule="evenodd" d="M133.018 211.104C130.706 211.445 128.396 211.795 126.063 211.973C124.498 212.1 122.927 212.137 121.358 212.083C118.729 211.99 116.121 211.572 113.594 210.841C113.535 210.825 113.479 210.797 113.43 210.76C113.381 210.722 113.34 210.675 113.309 210.622C113.278 210.568 113.259 210.509 113.251 210.448C113.243 210.387 113.247 210.325 113.263 210.265C113.279 210.206 113.306 210.15 113.344 210.101C113.382 210.052 113.428 210.011 113.482 209.981C113.535 209.95 113.594 209.93 113.656 209.922C113.717 209.914 113.779 209.918 113.838 209.934C116.312 210.531 118.845 210.843 121.39 210.864C122.927 210.896 124.455 210.849 125.978 210.76C128.29 210.625 130.59 210.402 132.891 210.146C133.018 210.13 133.146 210.165 133.248 210.243C133.349 210.321 133.415 210.437 133.432 210.564C133.448 210.691 133.413 210.819 133.335 210.92C133.257 211.022 133.141 211.088 133.014 211.104H133.018Z" fill="#F7907F"/>
<path fill-rule="evenodd" clip-rule="evenodd" d="M133.746 215.145C131.434 215.488 129.122 215.837 126.791 216.016C125.226 216.142 123.655 216.179 122.085 216.126C119.456 216.033 116.849 215.615 114.322 214.884C114.202 214.852 114.099 214.773 114.037 214.665C113.975 214.557 113.958 214.429 113.991 214.308C114.023 214.188 114.102 214.086 114.21 214.024C114.318 213.961 114.446 213.945 114.566 213.977C117.039 214.574 119.572 214.886 122.116 214.907C123.655 214.937 125.181 214.892 126.704 214.803C129.016 214.668 131.318 214.445 133.617 214.189C133.681 214.177 133.748 214.179 133.812 214.193C133.876 214.208 133.936 214.235 133.989 214.274C134.042 214.312 134.086 214.361 134.12 214.417C134.153 214.474 134.175 214.536 134.183 214.601C134.192 214.666 134.187 214.732 134.169 214.796C134.151 214.859 134.121 214.917 134.08 214.968C134.038 215.019 133.987 215.061 133.929 215.092C133.871 215.122 133.807 215.14 133.742 215.145H133.746Z" fill="#F7907F"/>
<path fill-rule="evenodd" clip-rule="evenodd" d="M132.761 219.294C130.449 219.635 128.139 219.985 125.806 220.163C124.241 220.29 122.67 220.326 121.101 220.273C118.472 220.179 115.864 219.762 113.337 219.031C113.274 219.018 113.215 218.992 113.163 218.956C113.11 218.919 113.066 218.872 113.032 218.817C112.999 218.763 112.976 218.702 112.967 218.638C112.958 218.575 112.962 218.51 112.979 218.449C112.995 218.387 113.024 218.329 113.064 218.279C113.104 218.229 113.154 218.187 113.21 218.157C113.267 218.127 113.329 218.108 113.393 218.103C113.456 218.098 113.521 218.105 113.581 218.126C116.054 218.721 118.587 219.032 121.131 219.054C122.67 219.086 124.198 219.04 125.721 218.949C128.033 218.815 130.333 218.592 132.632 218.336C132.759 218.319 132.888 218.354 132.989 218.432C133.091 218.51 133.157 218.625 133.174 218.752C133.19 218.88 133.156 219.008 133.078 219.11C132.999 219.211 132.884 219.277 132.757 219.294H132.761Z" fill="#F7907F"/>
<path fill-rule="evenodd" clip-rule="evenodd" d="M204.433 219.306C204.433 219.306 200.602 198.797 195.113 192.952C187.03 184.344 174.676 184.869 169.46 186.258C165.048 187.436 169.853 192.795 169.853 192.795C167.674 193.155 167.157 197.517 169.236 198.981C167.102 199.598 167.006 203.526 169.73 204.124C164.446 206.858 170.931 211.698 178.062 212.544C182.061 213.016 182.29 224.76 182.29 224.76C190.739 225.595 198.057 223.623 204.444 219.306H204.433Z" fill="#FBBFA3"/>
<path fill-rule="evenodd" clip-rule="evenodd" d="M169.789 192.331C170.955 192.151 172.133 192.057 173.313 192.051C174.49 192.045 175.667 192.118 176.835 192.271C179.131 192.574 181.4 193.17 183.651 193.873C183.761 193.913 183.852 193.994 183.904 194.098C183.957 194.203 183.967 194.323 183.934 194.436C183.901 194.548 183.826 194.643 183.725 194.702C183.624 194.761 183.504 194.779 183.39 194.753C181.194 194.121 178.954 193.655 176.689 193.36C175.565 193.211 174.433 193.123 173.299 193.096C172.167 193.071 171.035 193.125 169.91 193.257C169.848 193.269 169.784 193.267 169.723 193.253C169.661 193.239 169.603 193.212 169.552 193.175C169.501 193.138 169.458 193.091 169.426 193.037C169.393 192.983 169.372 192.923 169.364 192.861C169.355 192.798 169.359 192.734 169.376 192.674C169.393 192.613 169.421 192.556 169.461 192.507C169.5 192.457 169.549 192.416 169.604 192.386C169.659 192.356 169.72 192.337 169.783 192.331H169.789Z" fill="#F7907F"/>
<path fill-rule="evenodd" clip-rule="evenodd" d="M168.945 198.25C170.111 198.07 171.289 197.976 172.468 197.969C173.646 197.963 174.823 198.036 175.99 198.189C178.287 198.492 180.554 199.088 182.807 199.793C182.924 199.827 183.022 199.907 183.079 200.014C183.137 200.121 183.15 200.246 183.116 200.363C183.081 200.479 183.002 200.577 182.895 200.635C182.788 200.693 182.662 200.706 182.546 200.671C180.35 200.04 178.11 199.575 175.845 199.28C174.72 199.13 173.589 199.043 172.455 199.016C171.323 198.99 170.19 199.043 169.066 199.176C168.946 199.187 168.826 199.151 168.731 199.076C168.637 199.002 168.575 198.893 168.558 198.773C168.542 198.654 168.572 198.533 168.643 198.435C168.714 198.337 168.82 198.271 168.939 198.25H168.945Z" fill="#F7907F"/>
<path fill-rule="evenodd" clip-rule="evenodd" d="M168.945 203.886C170.111 203.706 171.289 203.612 172.468 203.606C173.646 203.599 174.823 203.673 175.99 203.826C178.287 204.128 180.554 204.725 182.807 205.427C182.924 205.462 183.022 205.542 183.079 205.648C183.137 205.755 183.15 205.881 183.116 205.997C183.081 206.114 183.002 206.212 182.895 206.27C182.788 206.328 182.662 206.341 182.546 206.306C180.35 205.675 178.11 205.21 175.845 204.914C174.72 204.766 173.589 204.678 172.455 204.651C171.323 204.626 170.19 204.679 169.066 204.812C168.946 204.823 168.826 204.788 168.731 204.713C168.637 204.638 168.575 204.529 168.558 204.41C168.542 204.29 168.572 204.169 168.643 204.071C168.714 203.974 168.82 203.907 168.939 203.886H168.945Z" fill="#F7907F"/>
<path fill-rule="evenodd" clip-rule="evenodd" d="M43.7915 259.609L94.8939 230.397L81.7264 198.787L46.1963 216.654C45.95 216.777 45.6651 216.797 45.4037 216.711C45.1423 216.625 44.9256 216.439 44.8007 216.194C44.6758 215.948 44.6529 215.664 44.737 215.402C44.821 215.14 45.0053 214.921 45.2495 214.794L81.8116 196.049C81.9602 195.973 82.123 195.929 82.2895 195.92C82.4561 195.911 82.6227 195.936 82.7787 195.995C82.9347 196.054 83.0766 196.145 83.1954 196.262C83.3142 196.38 83.4072 196.52 83.4684 196.675L97.6074 230.48C97.7184 230.76 97.7245 231.071 97.6246 231.355C97.5248 231.639 97.3256 231.877 97.0639 232.026L44.8443 261.455C44.5995 261.594 44.3095 261.629 44.0382 261.555C43.7669 261.48 43.5365 261.3 43.3977 261.055C43.2588 260.81 43.2229 260.52 43.2978 260.249C43.3728 259.978 43.5524 259.747 43.7972 259.609H43.7915Z" fill="#269E76"/>
<path fill-rule="evenodd" clip-rule="evenodd" d="M120.082 18.3014C130.328 13.346 145.437 26.7389 147.449 39.0544C149.877 53.8939 144.231 51.6974 149.635 60.9587C153.289 67.2262 158.956 72.0718 151.877 82.4445C147.953 88.1894 155.618 96.3505 150.99 105.436L137.448 103.883C138.512 100.814 138.266 97.6476 135.802 94.3169C136.011 98.0661 134.29 100.995 130.641 103.103L66.9993 96.0362C64.9051 93.6769 64.1363 91.2456 65.2668 88.7177C62.5723 90.8328 61.6899 93.0728 62.0478 95.4189L53.1084 94.209C47.6002 82.9974 64.1174 75.2339 61.7865 69.5534C59.6676 64.3803 57.0735 51.4153 66.3707 44.7331C73.5661 39.5581 68.6126 26.3318 84.0941 17.7901C106.087 5.65451 120.082 18.307 120.082 18.307V18.3014Z" fill="#582D2A"/>
<path fill-rule="evenodd" clip-rule="evenodd" d="M90.6416 77.9219L113.57 81.1068C113.57 81.1068 114.034 97.0919 115.886 102.778C117.569 107.942 120.52 110.562 120.52 110.562C118.234 126.019 89.2044 124.575 81.7023 107.796C81.7023 107.796 86.652 104.74 88.6421 100.32C91.1131 94.8292 90.6359 77.9313 90.6359 77.9313L90.6416 77.9219Z" fill="#FBBFA3"/>
<path fill-rule="evenodd" clip-rule="evenodd" d="M115.474 101.079C100.681 99.4809 93.8875 94.3172 91.6152 86.2148L115.049 86.887L115.474 101.079Z" fill="#F7907F"/>
<path fill-rule="evenodd" clip-rule="evenodd" d="M120.776 27.9243C139.87 31.1167 141.366 44.2218 138.986 62.6155C136.285 83.4821 128.225 96.9848 109.163 95.5079C94.0921 94.3396 82.3863 80.7763 83.7194 64.3064C85.2948 44.8372 92.2762 23.1601 120.776 27.9243Z" fill="#FBBFA3"/>
<path fill-rule="evenodd" clip-rule="evenodd" d="M85.0465 52.3419C80.5627 51.9424 76.6071 55.1576 76.2189 59.5146C75.8307 63.8716 79.1558 67.7344 83.6396 68.1339C88.1235 68.5334 92.0791 65.3201 92.4672 60.9631C92.8554 56.6061 89.5304 52.7414 85.0465 52.3419Z" fill="#FBBFA3"/>
<path fill-rule="evenodd" clip-rule="evenodd" d="M141.634 50.7639L133.443 49.4688C134.329 48.0221 133.609 45.7821 132.307 43.9775C132.104 45.7556 131.263 47.2571 129.987 48.5693L126.884 47.7324C127.593 45.2218 127.535 42.5565 126.719 40.0788C126.46 42.9001 125.562 45.3636 124.051 47.4862C117.058 45.9203 109.779 45.1818 102.012 45.8464C101.012 43.8677 101.065 41.9874 101.651 40.1564C100.153 41.9079 99.4294 43.7314 99.3234 45.6117L93.7243 46.2517C92.4499 45.2557 91.9387 44.1858 92.4177 43.0327C91.2059 43.9567 90.6189 45.5113 90.6814 46.5603L88.0872 47.1416C88.4091 51.385 86.1236 53.9394 81.8784 55.2232L79.2975 46.9788L93.5595 18.7539L120.056 22.4766L142.361 32.9951L141.636 50.7639H141.634Z" fill="#582D2A"/>
</g>
</svg>