<svg width="58" height="58" viewBox="0 0 58 58" fill="none" xmlns="http://www.w3.org/2000/svg">
<path d="M32.3203 25.5693H38.0164V42.3049H32.3203V25.5693ZM19.9843 25.5693H25.6804V42.3049H19.9843V25.5693ZM7.64844 25.5693H13.3446V42.3049H7.64844V25.5693Z" fill="#77B0FB"/>
<path d="M36.8829 25.1604H38.0157V42.714H36.8829V25.1604ZM24.5469 25.1604H25.6797V42.714H24.5469V25.1604ZM12.2109 25.1604H13.3438V42.714H12.2109V25.1604Z" fill="#6B9EE2"/>
<path d="M44.6562 25.5693H50.3524V42.3049H44.6562V25.5693Z" fill="#77B0FB"/>
<path d="M49.2188 25.1604H50.3516V42.714H49.2188V25.1604Z" fill="#6B9EE2"/>
<path d="M29 20.5773C32.3865 20.5773 35.1318 17.832 35.1318 14.4455C35.1318 11.059 32.3865 8.31372 29 8.31372C25.6135 8.31372 22.8682 11.059 22.8682 14.4455C22.8682 17.832 25.6135 20.5773 29 20.5773Z" fill="#DCC23D"/>
<path d="M32.2004 18.298C34.3272 16.1712 34.3272 12.7229 32.2004 10.596C30.0736 8.4692 26.6253 8.4692 24.4984 10.596C22.3716 12.7229 22.3716 16.1712 24.4984 18.298C26.6253 20.4248 30.0736 20.4248 32.2004 18.298Z" fill="#F4D844"/>
<path fill-rule="evenodd" clip-rule="evenodd" d="M28.2063 11.1411C28.2063 10.9308 28.2898 10.7291 28.4386 10.5804C28.5873 10.4317 28.789 10.3481 28.9993 10.3481C29.2096 10.3481 29.4113 10.4317 29.56 10.5804C29.7087 10.7291 29.7922 10.9308 29.7922 11.1411V11.3243C30.2919 11.5451 30.6836 11.955 30.8814 12.4642C30.955 12.6593 30.9485 12.8756 30.8634 13.0659C30.7783 13.2562 30.6214 13.4052 30.4269 13.4804C30.2324 13.5556 30.0161 13.5509 29.8251 13.4673C29.6341 13.3837 29.4838 13.228 29.4071 13.0342C29.3721 12.9456 29.3111 12.8696 29.2322 12.8163C29.1533 12.763 29.0601 12.7347 28.9648 12.7353C28.8062 12.7353 28.6877 12.7895 28.6158 12.87C28.5854 12.9053 28.5615 12.9458 28.5455 12.9895C28.5293 13.032 28.5209 13.077 28.5209 13.1224C28.5209 13.2126 28.5583 13.3052 28.6403 13.3785C28.7625 13.4877 28.976 13.5406 29.1886 13.5932C29.7186 13.7244 30.2457 13.8549 30.7188 14.5156V14.5188C30.7841 14.6091 30.8417 14.7048 30.8911 14.8047C30.9367 14.8984 30.9765 15.004 31.0101 15.1196C31.0653 15.3086 31.0919 15.4955 31.0919 15.6755C31.0919 16.1058 30.9513 16.5324 30.6927 16.8865L30.6912 16.8854C30.4631 17.1976 30.1516 17.4394 29.7925 17.5829V17.7499C29.7925 17.9602 29.7089 18.1619 29.5602 18.3107C29.4115 18.4594 29.2098 18.5429 28.9995 18.5429C28.7892 18.5429 28.5875 18.4594 28.4388 18.3107C28.2901 18.1619 28.2065 17.9602 28.2065 17.7499V17.6036C28.0492 17.5442 27.8994 17.4667 27.76 17.3727C27.4033 17.1315 27.1267 16.7893 26.9659 16.3899C26.9261 16.2933 26.9058 16.1897 26.9063 16.0852C26.9067 15.9807 26.9279 15.8773 26.9685 15.7811C27.0091 15.6848 27.0685 15.5975 27.143 15.5243C27.2176 15.4511 27.3059 15.3934 27.4029 15.3545C27.4999 15.3156 27.6037 15.2963 27.7082 15.2978C27.8126 15.2992 27.9158 15.3214 28.0117 15.3629C28.1076 15.4045 28.1943 15.4646 28.2668 15.5399C28.3393 15.6151 28.3962 15.704 28.4341 15.8014C28.4774 15.9065 28.5512 15.9963 28.6458 16.0593C28.7402 16.1226 28.8513 16.1562 28.9648 16.1557C29.0419 16.1557 29.1055 16.1476 29.1565 16.1327C29.2691 16.0999 29.3573 16.0351 29.4165 15.9541V15.9509C29.4745 15.8715 29.506 15.7744 29.506 15.6754C29.506 15.6302 29.5014 15.5909 29.4923 15.5593C29.485 15.5384 29.4763 15.5181 29.4661 15.4985C29.4561 15.4773 29.4446 15.457 29.4317 15.4375L29.4302 15.4386C29.2947 15.2493 29.0533 15.1894 28.8107 15.1294C28.4096 15.0302 28.0067 14.9305 27.5871 14.5555C27.139 14.155 26.9349 13.6357 26.9349 13.1223C26.9349 12.8847 26.9797 12.6482 27.0649 12.4257C27.1515 12.2018 27.2782 11.9955 27.4387 11.8168C27.6487 11.5812 27.9119 11.3993 28.2065 11.2861V11.141L28.2063 11.1411Z" fill="#E39069"/>
<path fill-rule="evenodd" clip-rule="evenodd" d="M14.57 13.5849L4.45296 20.041C3.88496 20.4033 3.63405 21.0714 3.82277 21.7181C4.0115 22.3648 4.58244 22.7929 5.25612 22.7929H52.7432C53.4169 22.7929 53.9878 22.3648 54.1765 21.7181C54.3652 21.0714 54.1143 20.4033 53.5463 20.041L43.4293 13.5849L30.8533 5.55988C29.6962 4.82151 28.303 4.82151 27.1459 5.55988L14.5699 13.5849H14.57ZM28.9996 19.8636C26.0074 19.8636 23.5817 17.4379 23.5817 14.4457C23.5817 11.4534 26.0074 9.02776 28.9996 9.02776C31.9919 9.02776 34.4175 11.4534 34.4175 14.4457C34.4175 17.4379 31.9919 19.8636 28.9996 19.8636Z" fill="#2B4C9F"/>
<path fill-rule="evenodd" clip-rule="evenodd" d="M15.0077 24.7795V22.1556H5.98438V24.7795C5.98438 25.5045 6.73305 26.0977 7.64802 26.0977H13.3441C14.2591 26.0977 15.0077 25.5045 15.0077 24.7795ZM18.3204 22.1556V24.7795C18.3204 25.5045 19.069 26.0977 19.984 26.0977H25.6801C26.5951 26.0977 27.3437 25.5045 27.3437 24.7795V22.1556H18.3204ZM30.6562 22.1556V24.7795C30.6562 25.5045 31.4049 26.0977 32.3199 26.0977H38.016C38.931 26.0977 39.6795 25.5045 39.6795 24.7795V22.1556H30.6562ZM42.9922 22.1556V24.7795C42.9922 25.5045 43.7409 26.0977 44.6559 26.0977H50.352C51.267 26.0977 52.0155 25.5045 52.0155 24.7795V22.1556H42.9922ZM13.3441 41.7764H7.64802C6.73305 41.7764 5.98438 42.3697 5.98438 43.0947V46.1559H15.0077V43.0947C15.0077 42.3697 14.2591 41.7764 13.3441 41.7764ZM19.9839 41.7764C19.0689 41.7764 18.3202 42.3697 18.3202 43.0947V46.1559H27.3436V43.0947C27.3436 42.3697 26.595 41.7764 25.68 41.7764H19.9839ZM32.3199 41.7764C31.4049 41.7764 30.6562 42.3697 30.6562 43.0947V46.1559H39.6795V43.0947C39.6795 42.3697 38.9309 41.7764 38.016 41.7764H32.3199ZM42.9922 43.0947V46.1559H52.0155V43.0947C52.0155 42.3697 51.267 41.7764 50.352 41.7764H44.6559C43.7409 41.7764 42.9922 42.3697 42.9922 43.0947Z" fill="#2B4C9F"/>
<path fill-rule="evenodd" clip-rule="evenodd" d="M52.0157 45.1364H5.56166C4.60545 45.1364 3.82324 45.9187 3.82324 46.8748V49.9727H54.177V46.8748C54.177 45.9187 53.3947 45.1364 52.4386 45.1364H52.0157Z" fill="#6B9EE2"/>
<path fill-rule="evenodd" clip-rule="evenodd" d="M3.93279 46.2693C3.86019 46.4629 3.82308 46.668 3.82324 46.8748V49.9727H53.0443V46.8748C53.0443 46.5439 52.7695 46.2692 52.4386 46.2692H3.93279V46.2693Z" fill="#77B0FB"/>
<path fill-rule="evenodd" clip-rule="evenodd" d="M53.9972 48.6133H4.00279C2.79805 48.6133 1.8125 49.5989 1.8125 50.8036V52.994H56.1875V50.8036C56.1875 49.5989 55.2018 48.6133 53.9972 48.6133Z" fill="#2B4C9F"/>
</svg>