<svg width="110" height="110" viewBox="0 0 110 110" fill="none" xmlns="http://www.w3.org/2000/svg">
<mask id="mask0_296_1546" style="mask-type:luminance" maskUnits="userSpaceOnUse" x="0" y="0" width="110" height="110">
<path d="M110 0H0V110H110V0Z" fill="white"/>
</mask>
<g mask="url(#mask0_296_1546)">
<path d="M0 95.816C0 103.651 6.3504 110 14.1836 110H95.816C103.651 110 110 103.65 110 95.816V14.184C110 6.3495 103.65 0 95.816 0H14.184C6.3495 0 0 6.3504 0 14.1836V95.816Z" fill="#563D7C"/>
<path d="M45.6137 48.6531V33.0756H59.3259C60.6319 33.0756 61.8909 33.1843 63.1029 33.4022C64.3159 33.6196 65.3889 34.008 66.3219 34.5679C67.2539 35.1278 68.0009 35.9051 68.5599 36.8998C69.1199 37.895 69.3999 39.1699 69.3999 40.724C69.3999 43.5226 68.5599 45.5438 66.8809 46.7874C65.2019 48.0313 63.0569 48.6531 60.4449 48.6531H45.6137ZM30.9688 21.6953V88.2971H63.2429C66.2279 88.2971 69.1359 87.9241 71.9649 87.1771C74.7949 86.4311 77.3129 85.2811 79.5209 83.7261C81.7279 82.1721 83.4849 80.1661 84.7909 77.7101C86.0969 75.2531 86.7499 72.3461 86.7499 68.9881C86.7499 64.8211 85.7389 61.2611 83.7179 58.3081C81.6969 55.3541 78.6339 53.2861 74.5299 52.1041C77.5149 50.6741 79.7699 48.8395 81.2929 46.6009C82.8169 44.3622 83.5779 41.5641 83.5779 38.2056C83.5779 35.0964 83.0649 32.4848 82.0389 30.3703C81.0129 28.2562 79.567 26.5615 77.702 25.2866C75.8359 24.0118 73.5979 23.0944 70.9859 22.5349C68.3739 21.975 65.4819 21.6953 62.3109 21.6953H30.9688ZM45.6137 76.9171V58.6341H61.5639C64.736 58.6341 67.2859 59.3641 69.2139 60.8261C71.1409 62.2871 72.1049 64.7281 72.1049 68.1481C72.1049 69.8901 71.8099 71.3201 71.2189 72.4391C70.6279 73.5581 69.8349 74.4451 68.8399 75.0981C67.8449 75.7511 66.6949 76.2171 65.3889 76.4971C64.0829 76.7761 62.7149 76.9171 61.2839 76.9171H45.6137Z" fill="white"/>
</g>
</svg>