<svg width="100" height="100" viewBox="0 0 100 100" fill="none" xmlns="http://www.w3.org/2000/svg">
<path d="M95.3125 50C95.3125 53.0625 93.0938 55.625 90.1562 56.1562C89.9688 57.375 89.75 58.5938 89.4375 59.75C89.25 60.5938 88.4062 61.0938 87.5625 60.9062C87.1597 60.8013 86.8136 60.5436 86.5977 60.1877C86.3818 59.8318 86.3131 59.4057 86.4062 59C86.6562 58 86.875 56.9688 87.0312 55.9062C84.5938 55.0625 82.8125 52.7188 82.8125 50C82.8125 47.2812 84.5938 44.9375 87.0625 44.0938C85.7944 36.2884 82.1034 29.0797 76.5118 23.4882C70.9203 17.8966 63.7116 14.2056 55.9062 12.9375C55.0625 15.4062 52.75 17.1875 50 17.1875C47.25 17.1875 44.9375 15.4062 44.0938 12.9375C36.2884 14.2056 29.0797 17.8966 23.4882 23.4882C17.8966 29.0797 14.2056 36.2884 12.9375 44.0938C15.4062 44.9375 17.1875 47.25 17.1875 50C17.1875 52.75 15.4062 55.0625 12.9375 55.9062C14.2056 63.7116 17.8966 70.9203 23.4882 76.5118C29.0797 82.1034 36.2884 85.7944 44.0938 87.0625C44.9375 84.5938 47.25 82.8125 50 82.8125C52.75 82.8125 55.0625 84.5938 55.9062 87.0312C56.9688 86.875 58 86.6562 59 86.4062C59.8437 86.2188 60.6875 86.7188 60.9062 87.5625C61.0938 88.4062 60.5938 89.25 59.75 89.4375C58.5938 89.75 57.375 89.9688 56.1562 90.1562C55.625 93.0938 53.0625 95.3125 50 95.3125C46.9375 95.3125 44.375 93.0938 43.8438 90.1562C26.3438 87.5 12.5 73.6562 9.84375 56.1562C6.90625 55.625 4.6875 53.0625 4.6875 50C4.6875 46.9375 6.90625 44.375 9.84375 43.8438C12.5 26.3438 26.3438 12.5 43.8438 9.84375C44.375 6.90625 46.9375 4.6875 50 4.6875C53.0625 4.6875 55.625 6.90625 56.1562 9.84375C73.6562 12.5 87.5 26.3438 90.1562 43.8438C93.0938 44.375 95.3125 46.9375 95.3125 50Z" fill="#343A40"/>
<path fill-rule="evenodd" clip-rule="evenodd" d="M75 57.8125C74.1875 57.8125 73.4062 57.875 72.625 58C69.0414 52.1288 63.3148 47.8815 56.6562 46.1563C59.25 44.1875 60.9375 41.0312 60.9375 37.5C60.9375 31.4688 56.0312 26.5625 50 26.5625C43.9688 26.5625 39.0625 31.4688 39.0625 37.5C39.0625 41 40.7187 44.1563 43.3125 46.1563C37.6221 47.6421 32.5848 50.9723 28.9886 55.6259C25.3924 60.2794 23.4402 65.9938 23.4375 71.875C23.4375 72.75 24.125 73.4375 25 73.4375H57.9063C57.8438 73.9375 57.8125 74.4688 57.8125 75C57.8125 84.4688 65.5312 92.1875 75 92.1875C84.4688 92.1875 92.1875 84.4688 92.1875 75C92.1875 65.5312 84.4688 57.8125 75 57.8125ZM42.1875 37.5C42.1875 35.428 43.0106 33.4409 44.4757 31.9757C45.9409 30.5106 47.928 29.6875 50 29.6875C52.072 29.6875 54.0591 30.5106 55.5243 31.9757C56.9894 33.4409 57.8125 35.428 57.8125 37.5C57.8125 39.572 56.9894 41.5591 55.5243 43.0243C54.0591 44.4894 52.072 45.3125 50 45.3125C47.928 45.3125 45.9409 44.4894 44.4757 43.0243C43.0106 41.5591 42.1875 39.572 42.1875 37.5ZM58.4687 70.3125H26.625C27.4063 58.0938 37.5938 48.4375 50 48.4375C58.0625 48.4375 65.1875 52.5312 69.4062 58.75C66.7879 59.656 64.4266 61.18 62.5225 63.1928C60.6185 65.2056 59.228 67.6479 58.4687 70.3125ZM82.3438 71.4062L72.9688 80.7812C72.6875 81.0938 72.2812 81.25 71.875 81.25C71.4688 81.25 71.0625 81.0938 70.7812 80.7812L67.6562 77.6562C67.0312 77.0625 67.0312 76.0625 67.6562 75.4688C68.25 74.8438 69.25 74.8438 69.8438 75.4688L71.875 77.4688L80.1562 69.2188C80.75 68.5938 81.75 68.5938 82.3438 69.2188C82.9688 69.8125 82.9688 70.8125 82.3438 71.4062Z" fill="#343A40"/>
</svg>