<svg width="58" height="58" viewBox="0 0 58 58" fill="none" xmlns="http://www.w3.org/2000/svg">
<g clip-path="url(#clip0_379_854)">
<path d="M18.125 45.3318H38.0175V55.6618H18.125V45.3318Z" fill="#5E6B75"/>
<path d="M36.374 45.3318H39.8751V55.6618H36.374V45.3318Z" fill="#4C5A60"/>
<path d="M48.4913 7.25L44.8663 9.4523H10.875L7.25 7.25V0.816871C7.25003 0.600233 7.3361 0.392476 7.48929 0.239289C7.64248 0.0861026 7.85023 3.00365e-05 8.06687 0L47.6743 0C47.7816 0 47.8878 0.021129 47.9869 0.0621806C48.086 0.103232 48.1761 0.163402 48.2519 0.239256C48.3278 0.315109 48.3879 0.405161 48.429 0.504268C48.47 0.603375 48.4912 0.709598 48.4912 0.816871V7.25H48.4913Z" fill="#808B95"/>
<path d="M49.9332 0H46.4322C46.6488 0 46.8566 0.0860629 47.0098 0.239256C47.163 0.392449 47.249 0.600223 47.249 0.816871V7.25L43.624 9.4523H47.1251L50.7501 7.25V0.816871C50.7501 0.600233 50.664 0.392476 50.5108 0.239289C50.3576 0.0861026 50.1499 3.00365e-05 49.9332 0Z" fill="#5E6B75"/>
<path d="M52.6227 47.1164H3.56304C2.59629 47.1164 1.8125 46.3328 1.8125 45.3659V14.5023H54.3732V45.3659C54.3732 46.3328 53.5894 47.1164 52.6227 47.1164Z" fill="#808B95"/>
<path d="M52.6207 14.5023V45.3659C52.6207 46.3326 51.837 47.1164 50.8701 47.1164H54.3748C55.3416 47.1164 56.1253 46.3328 56.1253 45.3659V14.5023H52.6207Z" fill="#5E6B75"/>
<path d="M39.875 58H15.3169C15.1002 58 14.8924 57.9139 14.7393 57.7608C14.5861 57.6076 14.5 57.3998 14.5 57.1831V55.192C14.5 54.9753 14.5861 54.7676 14.7393 54.6144C14.8924 54.4612 15.1002 54.3751 15.3169 54.3751H39.875C40.0916 54.3751 40.2994 54.4612 40.4526 54.6144C40.6058 54.7676 40.6919 54.9753 40.6919 55.192V57.1831C40.6919 57.3998 40.6058 57.6076 40.4526 57.7608C40.2994 57.9139 40.0916 58 39.875 58Z" fill="#808B95"/>
<path d="M42.6827 54.375H39.1816C39.3983 54.375 39.6061 54.4611 39.7593 54.6143C39.9124 54.7674 39.9985 54.9752 39.9985 55.1919V57.183C39.9985 57.3997 39.9124 57.6074 39.7593 57.7606C39.6061 57.9138 39.3983 57.9999 39.1816 57.9999H42.6827C42.8994 57.9999 43.1071 57.9138 43.2603 57.7606C43.4135 57.6074 43.4996 57.3997 43.4996 57.183V55.1919C43.4996 54.9752 43.4135 54.7675 43.2603 54.6143C43.1071 54.4611 42.8993 54.375 42.6827 54.375Z" fill="#5E6B75"/>
<path d="M5.4375 12.8085V42.6831C5.4375 42.8998 5.52356 43.1075 5.67676 43.2607C5.82995 43.4139 6.03772 43.5 6.25437 43.5H51.8039C51.9111 43.5 52.0174 43.4789 52.1165 43.4378C52.2156 43.3968 52.3056 43.3366 52.3815 43.2607C52.4573 43.1849 52.5175 43.0948 52.5585 42.9957C52.5996 42.8966 52.6207 42.7904 52.6207 42.6831V12.8085H5.4375Z" fill="#F0FCFF"/>
<path d="M4.98687 19.9398H4.67987C2.09525 19.9398 0 17.8445 0 15.2599V14.5023L4.83337 12.8085L9.66674 14.5023V15.2599C9.66663 17.8445 7.57138 19.9398 4.98687 19.9398Z" fill="#FD8087"/>
<path d="M14.6539 19.9398H14.3469C11.7622 19.9398 9.66699 17.8445 9.66699 15.2599V14.5023L14.5004 12.8085L19.3337 14.5023V15.2599C19.3337 17.8445 17.2385 19.9398 14.6539 19.9398Z" fill="#FFE177"/>
<path d="M24.3199 19.9398H24.0129C21.4283 19.9398 19.333 17.8445 19.333 15.2599V14.5023L23.9468 12.8085L28.9998 14.5023V15.2599C28.9998 17.8445 26.9045 19.9398 24.3199 19.9398Z" fill="#FD8087"/>
<path d="M33.9869 19.9397H33.6799C31.0953 19.9397 29 17.8445 29 15.2598V14.5022L33.8334 12.4067L38.6667 14.5022V15.2598C38.6666 17.8445 36.5714 19.9397 33.9869 19.9397Z" fill="#FFE177"/>
<path d="M43.6539 19.9397H43.3469C40.7622 19.9397 38.667 17.8445 38.667 15.2598V14.5022L43.178 12.4067L48.3337 14.5022V15.2598C48.3337 17.8445 46.2385 19.9397 43.6539 19.9397Z" fill="#FD8087"/>
<path d="M53.3199 19.9397H53.0129C50.4283 19.9397 48.333 17.8445 48.333 15.2598V14.5022L52.6205 12.4067L57.9998 14.5022V15.2598C57.9998 17.8445 55.9045 19.9397 53.3199 19.9397Z" fill="#FFE177"/>
<path d="M24.3625 32.625H17.5604L15.7646 25.3795H26.7792L27.3223 29.0079L24.3625 32.625Z" fill="#FD8087"/>
<path d="M26.779 25.3795L24.3623 32.625H27.2919C27.4583 32.625 27.6205 32.5727 27.7555 32.4754C27.8905 32.3781 27.9914 32.2408 28.0441 32.0829L29.9318 26.4234C30.1031 25.9099 29.7208 25.3795 29.1796 25.3795H26.779Z" fill="#FE646F"/>
<path d="M27.5137 39.875C28.5147 39.875 29.3262 39.0635 29.3262 38.0625C29.3262 37.0615 28.5147 36.25 27.5137 36.25C26.5127 36.25 25.7012 37.0615 25.7012 38.0625C25.7012 39.0635 26.5127 39.875 27.5137 39.875Z" fill="#B9DEF9"/>
<path d="M19.373 39.875C20.3741 39.875 21.1855 39.0635 21.1855 38.0625C21.1855 37.0615 20.3741 36.25 19.373 36.25C18.372 36.25 17.5605 37.0615 17.5605 38.0625C17.5605 39.0635 18.372 39.875 19.373 39.875Z" fill="#B9DEF9"/>
<path d="M44.5195 29.9062H35.2305C35.0202 29.9062 34.8185 29.8227 34.6698 29.674C34.521 29.5253 34.4375 29.3236 34.4375 29.1133V27.0742C34.4375 26.8639 34.521 26.6622 34.6698 26.5135C34.8185 26.3648 35.0202 26.2812 35.2305 26.2812H44.5195C44.7298 26.2812 44.9315 26.3648 45.0802 26.5135C45.229 26.6622 45.3125 26.8639 45.3125 27.0742V29.1133C45.3125 29.3236 45.229 29.5253 45.0802 29.674C44.9315 29.8227 44.7298 29.9062 44.5195 29.9062Z" fill="#B9DEF9"/>
<path d="M7.25 7.25L0 14.5H9.66663L14.5 12.8085L19.3334 14.5H29L33.8334 12.4068L38.6666 14.5H48.3334V10.875L43.5 7.25H36.25L32.6301 9.38739L29 7.25H21.75L17.3849 9.38739L14.5 7.25H7.25Z" fill="#FE646F"/>
<path d="M14.5004 7.25L9.66699 14.5023H19.3337L21.7504 7.25H14.5004ZM36.2504 7.25H29.0004V14.5023H38.667L36.2504 7.25ZM50.7504 7.25H43.5004L48.3337 14.5023H58.0004L50.7504 7.25Z" fill="#F9D45D"/>
<path d="M27.5134 37.1252H17.3845C15.9026 37.1252 14.6544 35.9515 14.6368 34.4698C14.625 33.4757 15.1559 32.6022 15.9511 32.1277C16.2494 31.9497 16.406 31.6063 16.3224 31.2692L14.6293 24.4378H12.5975C12.1182 24.4378 11.7003 24.0685 11.686 23.5894C11.6824 23.4723 11.7023 23.3556 11.7447 23.2463C11.787 23.137 11.8509 23.0374 11.9325 22.9532C12.0141 22.8691 12.1117 22.8022 12.2197 22.7565C12.3276 22.7108 12.4436 22.6873 12.5608 22.6873H15.3141C15.5096 22.6873 15.6995 22.7527 15.8535 22.8732C16.0075 22.9937 16.1167 23.1622 16.1637 23.352L18.4098 32.4145C18.4417 32.5435 18.4439 32.678 18.4161 32.8079C18.3884 32.9378 18.3314 33.0598 18.2496 33.1644C17.9128 33.5949 17.4285 33.4833 17.3244 33.5003C16.7863 33.5003 16.3527 33.956 16.3893 34.5018C16.4226 34.9993 16.8588 35.3749 17.3575 35.3749H27.4767C27.956 35.3749 28.3739 35.7442 28.3883 36.2232C28.3918 36.3404 28.3719 36.457 28.3295 36.5663C28.2871 36.6756 28.2233 36.7752 28.1417 36.8593C28.0601 36.9435 27.9624 37.0103 27.8545 37.056C27.7466 37.1017 27.6306 37.1252 27.5134 37.1252Z" fill="#9DCFFD"/>
<path d="M12.6877 2.75018C12.2102 2.75018 11.8125 3.13658 11.8125 3.62573C11.8125 4.14116 12.2382 4.50094 12.6877 4.50094C13.1553 4.50094 13.5629 4.12191 13.5629 3.62573C13.5629 3.13613 13.1654 2.75018 12.6877 2.75018ZM16.3125 4.50094C16.7887 4.50094 17.1877 4.11454 17.1877 3.62573C17.1877 3.13772 16.791 2.74939 16.3125 2.74939C15.8948 2.74939 15.4373 3.08119 15.4373 3.62573C15.4372 4.11794 15.8419 4.50094 16.3125 4.50094ZM19.9371 4.50094C20.4112 4.50094 20.8135 4.1142 20.8135 3.6246C20.8135 3.14248 20.4186 2.75018 19.9377 2.75018C19.4498 2.75018 19.0618 3.14893 19.0618 3.6246C19.0619 4.115 19.4654 4.50094 19.9371 4.50094ZM23.5624 4.50038H45.3127C45.5448 4.50038 45.7674 4.40817 45.9316 4.24403C46.0957 4.0799 46.1879 3.85729 46.1879 3.62517C46.1879 3.39305 46.0957 3.17043 45.9316 3.0063C45.7674 2.84217 45.5448 2.74996 45.3127 2.74996H23.5624C23.3302 2.74996 23.1076 2.84217 22.9435 3.0063C22.7794 3.17043 22.6872 3.39305 22.6872 3.62517C22.6872 3.85729 22.7794 4.0799 22.9435 4.24403C23.1076 4.40817 23.3302 4.50038 23.5624 4.50038Z" fill="#F0FCFF"/>
<path d="M45.3127 32.6559H34.4377C34.2056 32.6559 33.983 32.7481 33.8188 32.9122C33.6547 33.0764 33.5625 33.299 33.5625 33.5311C33.5625 33.7632 33.6547 33.9858 33.8188 34.15C33.983 34.3141 34.2056 34.4063 34.4377 34.4063H45.3127C45.4277 34.4063 45.5415 34.3837 45.6477 34.3397C45.7539 34.2957 45.8503 34.2313 45.9316 34.15C46.0129 34.0687 46.0774 33.9722 46.1213 33.866C46.1653 33.7598 46.1879 33.646 46.1879 33.5311C46.1879 33.4162 46.1653 33.3023 46.1213 33.1961C46.0774 33.09 46.0129 32.9935 45.9316 32.9122C45.8503 32.8309 45.7539 32.7665 45.6477 32.7225C45.5415 32.6785 45.4277 32.6559 45.3127 32.6559ZM45.3127 36.281H34.4377C34.2056 36.281 33.983 36.3732 33.8188 36.5373C33.6547 36.7015 33.5625 36.9241 33.5625 37.1562C33.5625 37.3883 33.6547 37.6109 33.8188 37.7751C33.983 37.9392 34.2056 38.0314 34.4377 38.0314H45.3127C45.4277 38.0314 45.5415 38.0088 45.6477 37.9648C45.7539 37.9208 45.8503 37.8564 45.9316 37.7751C46.0129 37.6938 46.0774 37.5973 46.1213 37.4912C46.1653 37.385 46.1879 37.2711 46.1879 37.1562C46.1879 37.0413 46.1653 36.9275 46.1213 36.8213C46.0774 36.7151 46.0129 36.6186 45.9316 36.5373C45.8503 36.456 45.7539 36.3916 45.6477 36.3476C45.5415 36.3036 45.4277 36.281 45.3127 36.281Z" fill="#B9DEF9"/>
</g>
<defs>
<clipPath id="clip0_379_854">
<rect width="58" height="58" fill="white"/>
</clipPath>
</defs>
</svg>