<svg width="58" height="58" viewBox="0 0 58 58" fill="none" xmlns="http://www.w3.org/2000/svg">
<g clip-path="url(#clip0_379_766)">
<path d="M15.7998 0.889526H57.0939V33.6817H15.7998V0.889526Z" fill="#F2F2F2"/>
<path d="M57.0942 34.5716H39.36C39.1241 34.5716 38.898 34.4779 38.7312 34.3112C38.5644 34.1444 38.4707 33.9182 38.4707 33.6824C38.4707 33.4465 38.5644 33.2203 38.7312 33.0536C38.898 32.8868 39.1241 32.7931 39.36 32.7931H56.2047V1.77852H16.689V27.6406C16.6864 27.8748 16.5915 28.0984 16.425 28.2631C16.2585 28.4277 16.0338 28.5201 15.7996 28.5201C15.5654 28.5201 15.3407 28.4277 15.1742 28.2631C15.0077 28.0984 14.9128 27.8748 14.9102 27.6406V0.889484C14.9102 0.653578 15.0039 0.427335 15.1707 0.260524C15.3375 0.0937133 15.5637 0 15.7996 0L57.0941 0C57.33 0 57.5562 0.0937133 57.723 0.260524C57.8898 0.427335 57.9835 0.653578 57.9835 0.889484V33.6821C57.9835 33.918 57.8898 34.1443 57.7231 34.3111C57.5563 34.4779 57.3301 34.5716 57.0942 34.5716Z" fill="#71CDE2"/>
<path d="M1.3418 21.5624H31.5661V42.665H1.3418V21.5624Z" fill="#4D5160"/>
<path d="M0 14.2523L29.7289 8.79395L31.0709 16.1046L1.34216 21.5629L0 14.2523Z" fill="#4D5160"/>
<path d="M11.1905 19.7539L5.11133 20.8703L7.72076 12.8344L13.7999 11.7184L11.1905 19.7539ZM23.3487 17.5219L17.2696 18.6378L19.879 10.602L25.9577 9.48596L23.3487 17.5219Z" fill="#F7F7F7"/>
<path d="M17.2305 36.6385C15.737 35.145 15.737 32.7241 17.2305 31.2306C18.2027 30.2589 19.5672 29.92 20.8138 30.2133C20.9438 29.4278 21.317 28.7027 21.8807 28.1403C22.9698 27.0512 24.5521 26.7569 25.9084 27.2565C26.0782 26.9572 26.2876 26.6821 26.531 26.4388C27.9041 25.0657 30.0604 24.956 31.5601 26.1078C33.0593 24.956 35.216 25.0656 36.5891 26.4388C36.8325 26.6821 37.0419 26.9572 37.2117 27.2565C38.568 26.7574 40.1504 27.0512 41.2394 28.1402C41.8031 28.7026 42.1763 29.4276 42.3063 30.2132C43.5524 29.9199 44.9174 30.2585 45.8897 31.2306C47.3828 32.7241 47.3828 35.145 45.8897 36.6385L31.5601 47.3193L17.2305 36.6385Z" fill="#FCE06D"/>
<path d="M28.161 29.5314C28.161 29.5314 25.3803 30.3031 25.3803 32.3116C25.3803 34.3216 26.7703 34.8623 26.7703 34.8623C26.7703 34.8623 23.7572 36.4074 24.917 39.42C25.321 40.4706 24.8613 41.2211 24.089 41.7512L17.2298 36.6385C15.7359 35.1459 15.7359 32.7245 17.2298 31.2306C18.2011 30.2593 19.5671 29.9204 20.8132 30.2133C20.943 29.4277 21.3162 28.7028 21.88 28.1406C22.9687 27.0507 24.5514 26.7582 25.9068 27.2573C26.0769 26.958 26.2863 26.6829 26.5294 26.4392C27.318 25.6507 28.3649 25.2781 29.3986 25.3245C27.4663 25.3245 27.0406 28.411 28.161 29.5314Z" fill="#EDB05F"/>
<path d="M45.8892 36.6381L42.7837 58H20.335L17.2732 36.938L17.2295 36.6381H45.8892Z" fill="#FF6694"/>
<path d="M25.9979 58H20.3352L17.2734 36.9381H25.0708L25.9979 58Z" fill="#BF1932"/>
<path d="M28.8961 58H24.5388L22.6236 36.938L22.5967 36.6381H28.1598L28.8961 58Z" fill="#F2F2F2"/>
<path d="M25.9976 58H24.5382L22.623 36.9381H25.0705L25.9976 58Z" fill="#E6E6E6"/>
<path d="M40.5242 36.6385L38.582 58H34.2246L34.9623 36.6385H40.5242Z" fill="#F2F2F2"/>
<path d="M43.0212 17.2856L34.1035 12.137V22.4346L43.0212 17.2856Z" fill="#FF6694"/>
<path d="M16.8078 28.4115H4.94613C4.71197 28.4089 4.48831 28.314 4.32366 28.1475C4.15902 27.981 4.06668 27.7563 4.06668 27.5221C4.06668 27.288 4.15902 27.0632 4.32366 26.8967C4.48831 26.7302 4.71197 26.6353 4.94613 26.6327H16.8078C17.042 26.6353 17.2656 26.7302 17.4303 26.8967C17.5949 27.0632 17.6873 27.288 17.6873 27.5221C17.6873 27.7563 17.5949 27.981 17.4303 28.1475C17.2656 28.314 17.042 28.4089 16.8078 28.4115ZM12.4788 33.1627H4.94601C4.82924 33.1627 4.7136 33.1397 4.60571 33.0951C4.49781 33.0504 4.39977 32.9849 4.31719 32.9024C4.2346 32.8198 4.16908 32.7218 4.12438 32.6139C4.07967 32.506 4.05666 32.3904 4.05664 32.2736C4.05667 32.0378 4.15038 31.8116 4.31716 31.6448C4.48395 31.478 4.71015 31.3843 4.94601 31.3843H12.4788C12.5955 31.3843 12.7112 31.4073 12.819 31.452C12.9269 31.4967 13.0249 31.5622 13.1075 31.6448C13.19 31.7274 13.2555 31.8254 13.3002 31.9333C13.3449 32.0412 13.3678 32.1569 13.3678 32.2736C13.3678 32.3904 13.3449 32.506 13.3002 32.6139C13.2555 32.7218 13.1901 32.8198 13.1075 32.9024C13.0249 32.9849 12.9269 33.0504 12.819 33.0951C12.7112 33.1398 12.5955 33.1627 12.4788 33.1627Z" fill="#F7F7F7"/>
<path d="M46.7792 36.638C46.7792 36.7548 46.7562 36.8705 46.7115 36.9784C46.6668 37.0863 46.6013 37.1844 46.5187 37.267C46.4361 37.3495 46.3381 37.4151 46.2301 37.4597C46.1222 37.5044 46.0066 37.5274 45.8898 37.5274H17.2301C16.9942 37.5274 16.768 37.4337 16.6013 37.267C16.4345 37.1002 16.3408 36.874 16.3408 36.6382C16.3408 36.4023 16.4345 36.1761 16.6013 36.0094C16.768 35.8426 16.9942 35.7489 17.2301 35.7489H45.8898C46.3805 35.749 46.7792 36.1473 46.7792 36.638Z" fill="#F2F2F2"/>
<path d="M46.7787 36.638C46.7787 36.7548 46.7558 36.8705 46.7111 36.9784C46.6664 37.0863 46.6009 37.1844 46.5183 37.267C46.4357 37.3495 46.3376 37.4151 46.2297 37.4597C46.1218 37.5044 46.0062 37.5274 45.8894 37.5274H23.2564C23.0206 37.5274 22.7944 37.4337 22.6276 37.267C22.4609 37.1002 22.3672 36.874 22.3672 36.6382C22.3672 36.4023 22.4609 36.1761 22.6276 36.0094C22.7944 35.8426 23.0206 35.7489 23.2564 35.7489H45.8892C46.38 35.749 46.7786 36.1473 46.7786 36.638H46.7787Z" fill="#F7F7F7"/>
</g>
<defs>
<clipPath id="clip0_379_766">
<rect width="58" height="58" fill="white"/>
</clipPath>
</defs>
</svg>