<svg width="80" height="81" viewBox="0 0 80 81" fill="none" xmlns="http://www.w3.org/2000/svg">
<path d="M63.8131 13.9765V62.6901C63.8131 62.7873 63.8115 62.8845 63.8065 62.9818C63.6541 66.3178 60.9 68.9779 57.5234 68.9779H22.1655C18.6916 68.9779 15.876 66.1621 15.876 62.6899V6.28955C15.876 3.30368 17.9558 0.803997 20.7456 0.160395C21.2113 0.0534385 21.6877 -0.000369317 22.1655 1.90771e-06H50.2514C51.2063 1.90771e-06 52.1383 0.217298 52.9828 0.625783C54.6819 1.44354 55.1605 2.47702 58.2139 5.59905C61.7267 9.4133 62.5654 9.80428 63.2812 11.4559C63.6325 12.2498 63.8136 13.1084 63.8131 13.9765Z" fill="#FFC477"/>
<path d="M63.8133 13.9765V62.6901C63.8133 62.7873 63.8117 62.8846 63.8067 62.9818C63.341 63.0889 62.8645 63.1427 62.3866 63.1423H27.0288C23.5549 63.1423 20.7393 60.3266 20.7393 56.8544V0.453822C20.7393 0.354867 20.7408 0.257631 20.7457 0.160394C21.2114 0.0534466 21.6879 -0.000361061 22.1658 1.82324e-06H50.2517C51.2065 1.82324e-06 52.1385 0.217298 52.983 0.625783C53.684 0.963613 54.3161 1.42865 54.8472 1.99725L58.2141 5.59921L62.0688 9.63232C62.578 10.1634 62.9886 10.781 63.2813 11.456C63.6327 12.2498 63.8139 13.1084 63.8133 13.9765Z" fill="#FFDAAA"/>
<path d="M79.9488 35.7907V71.1518C79.9488 73.1181 79.31 74.9369 78.2273 76.4088C76.611 78.6102 74.0028 80.04 71.0608 80.04H47.9642C43.0557 80.04 39.0762 76.0603 39.0762 71.1519V35.7907C39.0762 32.1223 41.3003 28.9726 44.4726 27.6158C45.5761 27.1437 46.7641 26.901 47.9644 26.9025H71.0608C75.9709 26.9026 79.9488 30.8823 79.9488 35.7907Z" fill="#4CBA68"/>
<path d="M79.9486 35.7907V71.1518C79.9486 73.1181 79.3099 74.9369 78.2271 76.4088C77.1237 76.8809 75.9356 77.1236 74.7354 77.1221H51.639C46.7305 77.1221 42.751 73.1425 42.751 68.2341V32.8728C42.751 30.9065 43.3897 29.0876 44.4725 27.6158C45.576 27.1437 46.764 26.901 47.9642 26.9025H71.0606C75.9707 26.9026 79.9486 30.8823 79.9486 35.7907Z" fill="#7CCC92"/>
<path d="M62.9181 59.0395V63.1925C62.9181 63.9267 62.3231 64.5217 61.5904 64.5217H57.4357C57.2611 64.5218 57.0883 64.4874 56.927 64.4206C56.7657 64.3538 56.6192 64.2559 56.4957 64.1324C56.3723 64.009 56.2744 63.8625 56.2076 63.7012C56.1408 63.5399 56.1064 63.367 56.1064 63.1925V59.0395C56.1064 58.8649 56.1408 58.692 56.2076 58.5308C56.2744 58.3695 56.3723 58.2229 56.4957 58.0995C56.6192 57.9761 56.7657 57.8781 56.927 57.8113C57.0883 57.7446 57.2611 57.7102 57.4357 57.7102H61.5904C62.3233 57.7102 62.9181 58.3052 62.9181 59.0395Z" fill="#2C733F"/>
<path d="M73.8401 34.9575V39.4072C73.8401 40.9894 72.5579 42.2732 70.9741 42.2732H48.0496C46.4674 42.2732 45.1836 40.9893 45.1836 39.4072V34.9575C45.1836 33.3753 46.4675 32.0916 48.0496 32.0916H70.9741C72.5579 32.0916 73.8401 33.3755 73.8401 34.9575Z" fill="#1E81CE"/>
<path d="M73.8403 34.9575V39.4072C73.8403 40.9894 72.5581 42.2732 70.9744 42.2732H52.9128C51.3306 42.2732 50.0469 40.9893 50.0469 39.4072V34.9575C50.0469 33.3753 51.3308 32.0916 52.9128 32.0916H70.9744C72.5581 32.0916 73.8403 33.3755 73.8403 34.9575Z" fill="#3D9AE2"/>
<path d="M51.9968 59.0395V63.1925C51.9969 63.3671 51.9625 63.54 51.8957 63.7012C51.8289 63.8625 51.731 64.0091 51.6076 64.1325C51.4841 64.2559 51.3376 64.3539 51.1763 64.4206C51.015 64.4874 50.8422 64.5218 50.6676 64.5218H46.5129C45.7801 64.5218 45.1836 63.9268 45.1836 63.1925V59.0395C45.1836 58.3052 45.7801 57.7103 46.5129 57.7103H50.6676C50.8422 57.7102 51.015 57.7446 51.1763 57.8114C51.3376 57.8781 51.4842 57.9761 51.6076 58.0995C51.731 58.2229 51.829 58.3695 51.8957 58.5308C51.9625 58.6921 51.9969 58.8649 51.9968 59.0395ZM62.9178 48.1786V52.3316C62.9178 53.0659 62.3228 53.6609 61.5901 53.6609H57.4353C57.2608 53.6609 57.0879 53.6265 56.9266 53.5598C56.7654 53.493 56.6188 53.395 56.4954 53.2716C56.3719 53.1482 56.274 53.0016 56.2072 52.8403C56.1404 52.6791 56.1061 52.5062 56.1061 52.3316V48.1786C56.1061 48.0041 56.1404 47.8312 56.2072 47.6699C56.274 47.5086 56.3719 47.3621 56.4954 47.2386C56.6188 47.1152 56.7654 47.0173 56.9266 46.9505C57.0879 46.8837 57.2608 46.8493 57.4353 46.8494H61.5901C62.3229 46.8494 62.9178 47.4443 62.9178 48.1786Z" fill="#2C733F"/>
<path d="M73.9717 48.1786V52.3316C73.9717 52.5062 73.9373 52.6791 73.8705 52.8403C73.8037 53.0016 73.7058 53.1482 73.5824 53.2716C73.459 53.395 73.3124 53.493 73.1511 53.5598C72.9899 53.6265 72.817 53.6609 72.6424 53.6609H68.4894C68.3148 53.6609 68.142 53.6265 67.9807 53.5598C67.8194 53.493 67.6729 53.395 67.5494 53.2716C67.426 53.1482 67.3281 53.0016 67.2613 52.8403C67.1945 52.6791 67.1601 52.5062 67.1602 52.3316V48.1786C67.1601 48.0041 67.1945 47.8312 67.2613 47.6699C67.3281 47.5086 67.426 47.3621 67.5494 47.2386C67.6729 47.1152 67.8194 47.0173 67.9807 46.9505C68.142 46.8837 68.3148 46.8493 68.4894 46.8494H72.6424C72.817 46.8493 72.9899 46.8837 73.1512 46.9505C73.3125 47.0172 73.459 47.1152 73.5824 47.2386C73.7059 47.362 73.8038 47.5086 73.8706 47.6699C73.9374 47.8312 73.9717 48.004 73.9717 48.1786Z" fill="#EE8700"/>
<path d="M51.9968 48.1786V52.3316C51.9969 52.5062 51.9625 52.6791 51.8957 52.8403C51.8289 53.0016 51.731 53.1482 51.6076 53.2716C51.4841 53.395 51.3376 53.493 51.1763 53.5598C51.015 53.6265 50.8422 53.6609 50.6676 53.6609H46.5129C45.7801 53.6609 45.1836 53.0659 45.1836 52.3316V48.1786C45.1836 47.4443 45.7801 46.8494 46.5129 46.8494H50.6676C50.8422 46.8493 51.015 46.8837 51.1763 46.9505C51.3376 47.0172 51.4842 47.1152 51.6076 47.2386C51.731 47.362 51.829 47.5086 51.8957 47.6699C51.9625 47.8312 51.9969 48.004 51.9968 48.1786ZM62.9178 69.3672V73.5219C62.9178 74.2562 62.3228 74.8512 61.5901 74.8512H57.4353C57.2608 74.8512 57.0879 74.8168 56.9266 74.75C56.7654 74.6832 56.6188 74.5853 56.4954 74.4619C56.3719 74.3384 56.274 74.1919 56.2072 74.0306C56.1404 73.8693 56.1061 73.6965 56.1061 73.5219V69.3672C56.1061 68.6345 56.7011 68.0395 57.4353 68.0395H61.5901C62.3229 68.0395 62.9178 68.6345 62.9178 69.3672ZM51.9968 69.3672V73.5219C51.9969 73.6965 51.9625 73.8693 51.8957 74.0306C51.8289 74.1919 51.731 74.3384 51.6076 74.4619C51.4841 74.5853 51.3376 74.6832 51.1763 74.75C51.015 74.8168 50.8422 74.8512 50.6676 74.8512H46.5129C45.7801 74.8512 45.1836 74.2562 45.1836 73.5219V69.3672C45.1836 68.6345 45.7801 68.0395 46.5129 68.0395H50.6676C51.402 68.0395 51.9968 68.6345 51.9968 69.3672Z" fill="#2C733F"/>
<path d="M73.9715 59.6846V72.5831C73.9715 73.8362 72.9568 74.851 71.7054 74.851H69.4263C68.1749 74.851 67.1602 73.8362 67.1602 72.5831V59.6846C67.1602 58.5936 68.0453 57.7102 69.1346 57.7102H71.9973C73.0881 57.7102 73.9715 58.5938 73.9715 59.6846Z" fill="#EE8700"/>
<path d="M62.9178 59.0395V60.2747C62.9178 61.0089 62.3228 61.6039 61.5901 61.6039H57.4353C57.2608 61.6039 57.0879 61.5696 56.9266 61.5028C56.7654 61.436 56.6188 61.3381 56.4954 61.2146C56.3719 61.0912 56.274 60.9447 56.2072 60.7834C56.1404 60.6221 56.1061 60.4492 56.1061 60.2747V59.0395C56.1061 58.865 56.1404 58.6921 56.2072 58.5308C56.274 58.3695 56.3719 58.223 56.4954 58.0995C56.6188 57.9761 56.7654 57.8782 56.9266 57.8114C57.0879 57.7446 57.2608 57.7102 57.4353 57.7103H61.5901C62.3229 57.7103 62.9178 58.3052 62.9178 59.0395ZM51.9968 59.0395V60.2747C51.9969 60.4492 51.9625 60.6221 51.8957 60.7834C51.8289 60.9447 51.731 61.0912 51.6076 61.2146C51.4841 61.3381 51.3376 61.436 51.1763 61.5028C51.015 61.5696 50.8422 61.6039 50.6676 61.6039H46.5129C45.7801 61.6039 45.1836 61.0089 45.1836 60.2747V59.0395C45.1836 58.3052 45.7801 57.7103 46.5129 57.7103H50.6676C50.8422 57.7102 51.015 57.7446 51.1763 57.8114C51.3376 57.8781 51.4842 57.9761 51.6076 58.0995C51.731 58.2229 51.829 58.3695 51.8957 58.5308C51.9625 58.6921 51.9969 58.8649 51.9968 59.0395ZM62.9178 48.1786V49.4138C62.9178 50.148 62.3228 50.743 61.5901 50.743H57.4353C57.2608 50.743 57.0879 50.7087 56.9266 50.6419C56.7654 50.5751 56.6188 50.4772 56.4954 50.3537C56.3719 50.2303 56.274 50.0838 56.2072 49.9225C56.1404 49.7612 56.1061 49.5883 56.1061 49.4138V48.1786C56.1061 48.0041 56.1404 47.8312 56.2072 47.6699C56.274 47.5086 56.3719 47.3621 56.4954 47.2386C56.6188 47.1152 56.7654 47.0173 56.9266 46.9505C57.0879 46.8837 57.2608 46.8493 57.4353 46.8494H61.5901C62.3229 46.8494 62.9178 47.4443 62.9178 48.1786Z" fill="#317F46"/>
<path d="M73.9717 48.1786V49.4138C73.9717 49.5883 73.9373 49.7612 73.8705 49.9225C73.8037 50.0838 73.7058 50.2303 73.5824 50.3537C73.459 50.4772 73.3124 50.5751 73.1511 50.6419C72.9899 50.7087 72.817 50.743 72.6424 50.743H68.4894C68.3148 50.743 68.142 50.7087 67.9807 50.6419C67.8194 50.5751 67.6729 50.4772 67.5494 50.3537C67.426 50.2303 67.3281 50.0838 67.2613 49.9225C67.1945 49.7612 67.1601 49.5883 67.1602 49.4138V48.1786C67.1601 48.0041 67.1945 47.8312 67.2613 47.6699C67.3281 47.5086 67.426 47.3621 67.5494 47.2386C67.6729 47.1152 67.8194 47.0173 67.9807 46.9505C68.142 46.8837 68.3148 46.8493 68.4894 46.8494H72.6424C72.817 46.8493 72.9899 46.8837 73.1512 46.9505C73.3125 47.0172 73.459 47.1152 73.5824 47.2386C73.7059 47.362 73.8038 47.5086 73.8706 47.6699C73.9374 47.8312 73.9717 48.004 73.9717 48.1786Z" fill="#FF9811"/>
<path d="M51.9968 48.1786V49.4138C51.9969 49.5883 51.9625 49.7612 51.8957 49.9225C51.8289 50.0838 51.731 50.2303 51.6076 50.3537C51.4841 50.4772 51.3376 50.5751 51.1763 50.6419C51.015 50.7087 50.8422 50.743 50.6676 50.743H46.5129C45.7801 50.743 45.1836 50.148 45.1836 49.4138V48.1786C45.1836 47.4443 45.7801 46.8494 46.5129 46.8494H50.6676C50.8422 46.8493 51.015 46.8837 51.1763 46.9505C51.3376 47.0172 51.4842 47.1152 51.6076 47.2386C51.731 47.362 51.829 47.5086 51.8957 47.6699C51.9625 47.8312 51.9969 48.004 51.9968 48.1786ZM62.9178 69.3672V70.6041C62.9178 71.3383 62.3228 71.9333 61.5901 71.9333H57.4353C57.2608 71.9333 57.0879 71.899 56.9266 71.8322C56.7654 71.7654 56.6188 71.6675 56.4954 71.544C56.3719 71.4206 56.274 71.274 56.2072 71.1128C56.1404 70.9515 56.1061 70.7786 56.1061 70.6041V69.3672C56.1061 68.6345 56.7011 68.0395 57.4353 68.0395H61.5901C62.3229 68.0395 62.9178 68.6345 62.9178 69.3672ZM51.9968 69.3672V70.6041C51.9969 70.7786 51.9625 70.9515 51.8957 71.1128C51.8289 71.274 51.731 71.4206 51.6076 71.544C51.4841 71.6675 51.3376 71.7654 51.1763 71.8322C51.015 71.899 50.8422 71.9333 50.6676 71.9333H46.5129C45.7801 71.9333 45.1836 71.3383 45.1836 70.6041V69.3672C45.1836 68.6345 45.7801 68.0395 46.5129 68.0395H50.6676C51.402 68.0395 51.9968 68.6345 51.9968 69.3672Z" fill="#317F46"/>
<path d="M73.9715 59.6846V69.6652C73.9715 70.9184 72.9568 71.9331 71.7054 71.9331H69.4263C68.1749 71.9331 67.1602 70.9184 67.1602 69.6652V59.6846C67.1602 58.5936 68.0453 57.7102 69.1346 57.7102H71.9973C73.0881 57.7102 73.9715 58.5938 73.9715 59.6846Z" fill="#FF9811"/>
<path d="M63.2816 11.4557H55.4003C54.065 11.4557 52.9824 10.3731 52.9824 9.03775V0.625732C53.6833 0.963226 54.3154 1.42795 54.8466 1.99626L58.2147 5.59853L62.069 9.63227C62.5778 10.1637 62.9883 10.781 63.2816 11.4557Z" fill="#FFB655"/>
<path d="M30.0846 34.0183C28.6021 33.4737 27.5313 33.0802 27.5313 31.7068C27.5313 30.4553 28.3625 29.8206 30.0019 29.8206C31.1035 29.8206 31.7248 30.1403 32.1369 30.3521C32.3814 30.4778 32.5926 30.5864 32.8238 30.5864C33.491 30.5864 33.8601 29.8784 33.8601 29.3888C33.8601 28.376 32.208 27.8737 30.731 27.7413V26.828C30.731 26.1927 30.2142 25.6759 29.5789 25.6759C28.9435 25.6759 28.4267 26.1927 28.4267 26.828V27.8865C26.4073 28.366 25.2977 29.7609 25.2977 31.8275C25.2977 34.6572 27.3809 35.44 29.055 36.0693C30.6943 36.6853 31.9891 37.1718 31.9891 39.0433C31.9891 40.5891 31.1307 41.3729 29.4379 41.3729C27.9046 41.3729 27.2937 40.7145 26.8478 40.2338C26.5821 39.9472 26.3527 39.6999 25.9916 39.6999C25.4063 39.6999 24.9348 40.3551 24.9348 40.8975C24.9348 41.8555 26.3616 43.1147 28.4269 43.4418V44.3242C28.4269 44.9596 28.9437 45.4764 29.579 45.4764C30.2143 45.4764 30.7312 44.9596 30.7312 44.3242V43.4182C32.9526 43.0001 34.2232 41.3689 34.2232 38.9223C34.2227 35.5388 31.9282 34.6958 30.0846 34.0183ZM51.5194 17.7494H54.5732C55.2447 17.7494 55.789 17.2052 55.789 16.5336C55.789 15.862 55.2447 15.3179 54.5732 15.3179H51.5194C50.8479 15.3179 50.3036 15.862 50.3036 16.5336C50.3036 17.2052 50.8479 17.7494 51.5194 17.7494ZM25.0966 17.7494H46.6563C47.3277 17.7494 47.8721 17.2052 47.8721 16.5336C47.8721 15.862 47.3277 15.3179 46.6563 15.3179H25.0966C24.4252 15.3179 23.8809 15.862 23.8809 16.5336C23.8809 17.2052 24.4252 17.7494 25.0966 17.7494ZM28.9611 23.784C29.6325 23.784 30.1768 23.2398 30.1768 22.5682C30.1768 21.8966 29.6325 21.3525 28.9611 21.3525H25.0966C24.4252 21.3525 23.8809 21.8966 23.8809 22.5682C23.8809 23.2398 24.4252 23.784 25.0966 23.784H28.9611ZM54.5732 21.3525H33.8241C33.1527 21.3525 32.6083 21.8966 32.6083 22.5682C32.6083 23.2398 33.1527 23.784 33.8241 23.784H54.5732C55.2447 23.784 55.789 23.2398 55.789 22.5682C55.789 21.8966 55.2447 21.3525 54.5732 21.3525Z" fill="#4E901E"/>
<path d="M34.9272 76.2177C34.9272 77.0654 34.5803 77.8338 34.0227 78.3931C33.4635 78.9508 32.695 79.2977 31.8472 79.2977H12.9784C11.2844 79.2977 9.89844 77.9116 9.89844 76.2177C9.89844 75.3699 10.2453 74.6016 10.803 74.0422C11.3621 73.4846 12.1306 73.1377 12.9784 73.1377H31.8472C33.5413 73.1377 34.9272 74.5237 34.9272 76.2177Z" fill="#AA6100"/>
<path d="M34.9272 70.0576C34.9272 70.9054 34.5803 71.6738 34.0227 72.2331C33.4635 72.7907 32.695 73.1376 31.8472 73.1376H12.9784C11.2844 73.1376 9.89844 71.7516 9.89844 70.0576C9.89844 69.2099 10.2453 68.4415 10.803 67.8822C11.3621 67.3246 12.1306 66.9777 12.9784 66.9777H31.8472C33.5413 66.9777 34.9272 68.3637 34.9272 70.0576Z" fill="#CC7400"/>
<path d="M34.9272 63.8977C34.9272 64.7455 34.5803 65.5138 34.0227 66.0732C33.4635 66.6308 32.695 66.9777 31.8472 66.9777H12.9784C11.2844 66.9777 9.89844 65.5917 9.89844 63.8977C9.89844 63.05 10.2453 62.2816 10.803 61.7223C11.3621 61.1646 12.1306 60.8177 12.9784 60.8177H31.8472C33.5413 60.8179 34.9272 62.2038 34.9272 63.8977Z" fill="#EE8700"/>
<path d="M34.9272 57.7379C34.9272 58.5857 34.5803 59.3541 34.0227 59.9134C33.4635 60.471 32.695 60.8179 31.8472 60.8179H12.9784C11.2844 60.8179 9.89844 59.4319 9.89844 57.7379C9.89844 57.135 10.0751 56.5708 10.3782 56.0941C10.4995 55.9017 10.642 55.7233 10.803 55.5625C11.3621 55.0049 12.1306 54.658 12.9784 54.658H31.8472C33.5413 54.658 34.9272 56.044 34.9272 57.7379Z" fill="#FF9811"/>
<path d="M31.8474 54.6581H12.9794C11.2854 54.6581 9.89941 53.2721 9.89941 51.5781C9.89941 49.8842 11.2854 48.4982 12.9794 48.4982H31.8476C33.5415 48.4982 34.9276 49.8842 34.9276 51.5781C34.9274 53.2721 33.5415 54.6581 31.8474 54.6581Z" fill="#FFA733"/>
<path d="M13.6481 59.5973V79.6481H10.5798C7.87052 79.7646 5.36474 78.7928 3.48614 77.1229C-3.33164 71.0726 0.818248 59.9833 9.72129 59.5973H13.6481Z" fill="#CC7400"/>
<path d="M24.0936 69.9856C23.913 75.1709 19.7656 79.422 14.4958 79.6476C8.95962 79.8843 4.27963 75.5881 4.04295 70.0519C4.04201 70.0294 4.04091 70.008 4.04091 69.9856C3.84081 64.4771 8.12499 59.8338 13.6387 59.5981C19.1749 59.3614 23.8549 63.6576 24.0916 69.1949C24.1028 69.461 24.1038 69.7242 24.0936 69.9856Z" fill="#FFC477"/>
<path d="M15.7274 76.9453C15.6049 76.9728 15.4833 76.9973 15.3611 77.0188C11.4433 77.7086 7.63393 75.2044 6.74395 71.2826C5.82756 67.2382 8.36242 63.2176 12.4066 62.3002C13.381 62.0781 14.39 62.0532 15.3742 62.2267C18.2602 62.739 20.7003 64.9249 21.3891 67.9628C22.3064 72.007 19.7716 76.0289 15.7274 76.9453Z" fill="#CC7400"/>
<path d="M15.7277 76.9453C15.6052 76.9728 15.4836 76.9973 15.3614 77.0188C12.4765 76.5065 10.0354 74.3196 9.34649 71.2826C8.4301 67.2382 10.965 63.2176 15.0092 62.3002C15.1303 62.2728 15.2522 62.2483 15.3745 62.2267C18.2605 62.739 20.7006 64.9249 21.3894 67.9628C22.3067 72.007 19.7719 76.0289 15.7277 76.9453Z" fill="#EE8700"/>
<path d="M24.0937 69.9856C23.9131 75.1708 19.7657 79.422 14.4959 79.6476C8.95972 79.8843 4.27973 75.5881 4.04305 70.0519C4.04211 70.0294 4.04102 70.008 4.04102 69.9856H6.56556C6.58762 70.4223 6.6474 70.8563 6.74424 71.2826C7.66173 75.327 11.6834 77.8628 15.7276 76.9453C19.0923 76.1829 21.4117 73.2726 21.5679 69.9856H24.0937Z" fill="#FFA733"/>
<path d="M14.9688 68.0982L14.7804 68.0287C13.7127 67.6363 13.604 67.5118 13.604 67.1499C13.604 66.8453 13.7163 66.7577 13.8215 66.6994C13.9853 66.6087 14.2425 66.5587 14.5454 66.5587C15.0751 66.5587 15.3418 66.6961 15.5794 66.8182C15.7612 66.9117 15.9674 67.0175 16.2356 67.0175C16.9291 67.0175 17.395 66.3681 17.395 65.7616C17.395 65.0223 16.7339 64.5128 15.5209 64.3041V64.2279C15.5209 63.5505 14.9697 62.9993 14.2923 62.9993C13.615 62.9993 13.0637 63.5505 13.0637 64.2279V64.4609C11.8669 64.8951 11.1897 65.8824 11.1897 67.2222C11.1897 69.2899 12.692 69.8544 13.7893 70.2668C14.8354 70.66 15.1973 70.8321 15.1973 71.5439C15.1973 71.9888 15.0776 72.4004 14.2079 72.4004C13.5244 72.4004 13.284 72.1412 13.0512 71.8901C12.8697 71.6942 12.5951 71.3986 12.1438 71.3986C11.4733 71.3986 10.9722 72.0616 10.9722 72.6544C10.9722 73.4944 11.8456 74.2915 13.0639 74.6149V74.7068C13.0639 75.3842 13.6151 75.9354 14.2925 75.9354C14.9699 75.9354 15.5211 75.3842 15.5211 74.7068V74.5827C16.8391 74.1589 17.6126 73.0241 17.6126 71.4715C17.6118 69.0837 15.8927 68.4426 14.9688 68.0982ZM5.6949 64.0933C5.19723 64.8451 4.80352 65.6608 4.52447 66.5182H0.60908C0.88797 65.64 1.31021 64.7974 1.77779 64.0933H5.6949ZM4.11224 70.8813H0.195123C0.0938736 70.0764 0.090042 69.2622 0.183711 68.4564H4.10239C4.00844 69.2438 4.01047 70.0623 4.11224 70.8813ZM5.83231 75.3545H1.91364C1.39176 74.6067 0.975101 73.7908 0.675363 72.9295H4.59248C4.89196 73.7912 5.30919 74.6072 5.83231 75.3545Z" fill="#AA6100"/>
</svg>