<svg width="58" height="58" viewBox="0 0 58 58" fill="none" xmlns="http://www.w3.org/2000/svg">
<path d="M53.4688 6.34375H50.75V55.2812H53.4688C53.9495 55.2812 54.4105 55.0903 54.7504 54.7504C55.0903 54.4105 55.2812 53.9495 55.2812 53.4688V8.15625C55.2812 7.67555 55.0903 7.21453 54.7504 6.87462C54.4105 6.53471 53.9495 6.34375 53.4688 6.34375Z" fill="#7572F2"/>
<path d="M50.75 6.34375H29C27.999 6.34375 27.1875 7.15523 27.1875 8.15625V53.4688C27.1875 54.4698 27.999 55.2812 29 55.2812H50.75C51.751 55.2812 52.5625 54.4698 52.5625 53.4688V8.15625C52.5625 7.15523 51.751 6.34375 50.75 6.34375Z" fill="#908DF4"/>
<path d="M29.9062 9.96875H49.8438V24.4688H29.9062V9.96875Z" fill="#BEBEFC"/>
<path d="M39.875 22.6562C42.878 22.6562 45.3125 20.2218 45.3125 17.2188C45.3125 14.2157 42.878 11.7812 39.875 11.7812C36.872 11.7812 34.4375 14.2157 34.4375 17.2188C34.4375 20.2218 36.872 22.6562 39.875 22.6562Z" fill="#7572F2"/>
<path d="M38.0625 20.3907C38.003 20.3907 37.9441 20.3791 37.8891 20.3563C37.8342 20.3335 37.7842 20.3001 37.7422 20.258L35.9297 18.4455L36.5704 17.8046L38.0625 19.2967L42.2734 15.0858L42.9142 15.7268L38.3829 20.258C38.3409 20.3001 38.2909 20.3335 38.236 20.3563C38.181 20.3791 38.1221 20.3907 38.0625 20.3907Z" fill="#BEBEFC"/>
<path d="M47.125 51.6562H32.625C32.1443 51.6562 31.6833 51.8472 31.3434 52.1871C31.0035 52.527 30.8125 52.988 30.8125 53.4688V55.2812H48.9375V53.4688C48.9375 52.988 48.7465 52.527 48.4066 52.1871C48.0667 51.8472 47.6057 51.6562 47.125 51.6562ZM38.9688 43.5H40.7812C41.262 43.5 41.723 43.691 42.0629 44.0309C42.4028 44.3708 42.5938 44.8318 42.5938 45.3125C42.5938 45.7932 42.4028 46.2542 42.0629 46.5941C41.723 46.934 41.262 47.125 40.7812 47.125H38.9688C38.488 47.125 38.027 46.934 37.6871 46.5941C37.3472 46.2542 37.1562 45.7932 37.1562 45.3125C37.1562 44.8318 37.3472 44.3708 37.6871 44.0309C38.027 43.691 38.488 43.5 38.9688 43.5ZM46.2188 43.5H48.0312C48.512 43.5 48.973 43.691 49.3129 44.0309C49.6528 44.3708 49.8438 44.8318 49.8438 45.3125C49.8438 45.7932 49.6528 46.2542 49.3129 46.5941C48.973 46.934 48.512 47.125 48.0312 47.125H46.2188C45.738 47.125 45.277 46.934 44.9371 46.5941C44.5972 46.2542 44.4062 45.7932 44.4062 45.3125C44.4062 44.8318 44.5972 44.3708 44.9371 44.0309C45.277 43.691 45.738 43.5 46.2188 43.5ZM46.2188 36.25H48.0312C48.512 36.25 48.973 36.441 49.3129 36.7809C49.6528 37.1208 49.8438 37.5818 49.8438 38.0625C49.8438 38.5432 49.6528 39.0042 49.3129 39.3441C48.973 39.684 48.512 39.875 48.0312 39.875H46.2188C45.738 39.875 45.277 39.684 44.9371 39.3441C44.5972 39.0042 44.4062 38.5432 44.4062 38.0625C44.4062 37.5818 44.5972 37.1208 44.9371 36.7809C45.277 36.441 45.738 36.25 46.2188 36.25ZM38.9688 36.25H40.7812C41.262 36.25 41.723 36.441 42.0629 36.7809C42.4028 37.1208 42.5938 37.5818 42.5938 38.0625C42.5938 38.5432 42.4028 39.0042 42.0629 39.3441C41.723 39.684 41.262 39.875 40.7812 39.875H38.9688C38.488 39.875 38.027 39.684 37.6871 39.3441C37.3472 39.0042 37.1562 38.5432 37.1562 38.0625C37.1562 37.5818 37.3472 37.1208 37.6871 36.7809C38.027 36.441 38.488 36.25 38.9688 36.25ZM31.7188 36.25H33.5312C34.012 36.25 34.473 36.441 34.8129 36.7809C35.1528 37.1208 35.3438 37.5818 35.3438 38.0625C35.3438 38.5432 35.1528 39.0042 34.8129 39.3441C34.473 39.684 34.012 39.875 33.5312 39.875H31.7188C31.238 39.875 30.777 39.684 30.4371 39.3441C30.0972 39.0042 29.9062 38.5432 29.9062 38.0625C29.9062 37.5818 30.0972 37.1208 30.4371 36.7809C30.777 36.441 31.238 36.25 31.7188 36.25ZM31.7188 29H33.5312C34.012 29 34.473 29.191 34.8129 29.5309C35.1528 29.8708 35.3438 30.3318 35.3438 30.8125C35.3438 31.2932 35.1528 31.7542 34.8129 32.0941C34.473 32.434 34.012 32.625 33.5312 32.625H31.7188C31.238 32.625 30.777 32.434 30.4371 32.0941C30.0972 31.7542 29.9062 31.2932 29.9062 30.8125C29.9062 30.3318 30.0972 29.8708 30.4371 29.5309C30.777 29.191 31.238 29 31.7188 29ZM38.9688 29H40.7812C41.262 29 41.723 29.191 42.0629 29.5309C42.4028 29.8708 42.5938 30.3318 42.5938 30.8125C42.5938 31.2932 42.4028 31.7542 42.0629 32.0941C41.723 32.434 41.262 32.625 40.7812 32.625H38.9688C38.488 32.625 38.027 32.434 37.6871 32.0941C37.3472 31.7542 37.1562 31.2932 37.1562 30.8125C37.1562 30.3318 37.3472 29.8708 37.6871 29.5309C38.027 29.191 38.488 29 38.9688 29Z" fill="#7572F2"/>
<path d="M52.5625 2.26562C52.0818 2.26563 51.6208 2.45658 51.2809 2.79649C50.941 3.1364 50.75 3.59742 50.75 4.07812H54.375C54.375 3.59742 54.184 3.1364 53.8441 2.79649C53.5042 2.45658 53.0432 2.26563 52.5625 2.26562Z" fill="#FFAB8D"/>
<path d="M30.8125 2.26562C30.3318 2.26563 29.8708 2.45658 29.5309 2.79649C29.191 3.1364 29 3.59742 29 4.07812V6.34375H50.75V4.07812C50.75 3.59742 50.941 3.1364 51.2809 2.79649C51.6208 2.45658 52.0818 2.26563 52.5625 2.26562H30.8125Z" fill="#FFC8BB"/>
<path d="M31.7188 43.5H33.5312C34.012 43.5 34.473 43.691 34.8129 44.0309C35.1528 44.3708 35.3438 44.8318 35.3438 45.3125C35.3438 45.7932 35.1528 46.2542 34.8129 46.5941C34.473 46.934 34.012 47.125 33.5312 47.125H31.7188C31.238 47.125 30.777 46.934 30.4371 46.5941C30.0972 46.2542 29.9062 45.7932 29.9062 45.3125C29.9062 44.8318 30.0972 44.3708 30.4371 44.0309C30.777 43.691 31.238 43.5 31.7188 43.5ZM46.2188 29H48.0312C48.512 29 48.973 29.191 49.3129 29.5309C49.6528 29.8708 49.8438 30.3318 49.8438 30.8125C49.8438 31.2932 49.6528 31.7542 49.3129 32.0941C48.973 32.434 48.512 32.625 48.0312 32.625H46.2188C45.738 32.625 45.277 32.434 44.9371 32.0941C44.5972 31.7542 44.4062 31.2932 44.4062 30.8125C44.4062 30.3318 44.5972 29.8708 44.9371 29.5309C45.277 29.191 45.738 29 46.2188 29Z" fill="#7572F2"/>
<path d="M6.64459 10.3093C5.63287 11.0907 4.78619 12.065 4.15355 13.1759C3.52092 14.2867 3.11489 15.512 2.95898 16.7808L3.85821 16.8937C4.15009 14.5717 5.35238 12.4608 7.20061 11.0252C9.04885 9.58959 11.3917 8.94696 13.7137 9.23865L13.8268 8.33942C12.5589 8.17652 11.2712 8.26675 10.0384 8.6049C8.80553 8.94305 7.65201 9.52239 6.64459 10.3094V10.3093ZM11.5226 16.5894C11.3377 16.7322 11.1829 16.9103 11.0673 17.1133C10.9517 17.3164 10.8775 17.5403 10.849 17.7722L11.7481 17.8852C11.7624 17.7715 11.7989 17.6618 11.8556 17.5623C11.9123 17.4627 11.9881 17.3753 12.0785 17.3051C12.169 17.2348 12.2724 17.1831 12.3829 17.1528C12.4934 17.1225 12.6087 17.1143 12.7224 17.1286L12.8354 16.2295C12.6036 16.1997 12.3683 16.2162 12.1429 16.278C11.9176 16.3397 11.7067 16.4456 11.5225 16.5894H11.5226ZM9.08365 13.4494C8.48534 13.9115 7.98464 14.4877 7.61052 15.1446C7.23641 15.8016 6.9963 16.5262 6.90412 17.2765L7.80323 17.3895C7.9636 16.1137 8.62417 14.9539 9.63964 14.1651C10.6551 13.3764 11.9423 13.0233 13.2181 13.1836L13.3311 12.2844C12.5813 12.1882 11.8198 12.2415 11.0907 12.4415C10.3616 12.6415 9.67945 12.9841 9.08365 13.4494Z" fill="#FFDCD7"/>
<path d="M17.7617 10.6421L9.64623 28.8532C9.54934 29.0706 9.49621 29.305 9.4899 29.5429C9.48358 29.7809 9.52419 30.0177 9.60942 30.24C9.69465 30.4622 9.82282 30.6655 9.98661 30.8382C10.1504 31.0109 10.3466 31.1497 10.564 31.2466L33.7419 41.575C34.181 41.7707 34.6798 41.7839 35.1287 41.6118C35.5775 41.4396 35.9396 41.0963 36.1352 40.6572L44.1703 22.6259L17.7617 10.6421Z" fill="#DFDFDF"/>
<path d="M33.2011 29.4285C32.9837 29.3316 32.7493 29.2784 32.5114 29.2721C32.2734 29.2658 32.0366 29.3064 31.8143 29.3916C31.5921 29.4769 31.3888 29.605 31.2161 29.7688C31.0434 29.9326 30.9046 30.1288 30.8077 30.3463L30.07 32.0019C29.8744 32.4409 29.8611 32.9398 30.0333 33.3886C30.2054 33.8374 30.5487 34.1995 30.9878 34.3952L37.61 37.3461L39.8233 32.3794L33.2011 29.4285Z" fill="#BEBEBE"/>
<path d="M31.8965 32.3384L32.2652 31.5109L33.9201 32.2487L33.5513 33.0761L31.8965 32.3384Z" fill="#DFDFDF"/>
<path d="M25.0643 25.8023C24.5624 25.5787 23.9974 25.5403 23.4699 25.6941C22.9424 25.8478 22.4865 26.1838 22.1834 26.6421L17.1861 34.1976L10.5638 31.2466C10.1247 31.051 9.78137 30.6889 9.60925 30.2401C9.43713 29.7912 9.45035 29.2924 9.64601 28.8533L14.0726 18.9199L8.9414 24.2946C7.70593 25.5886 6.88115 27.2195 6.571 28.9816C6.26085 30.7436 6.47921 32.5581 7.19857 34.1962L10.1862 40.9999L2.71875 55.5311L15.3242 56.1875L17.6363 44.3197L18.0215 44.0762C19.5826 43.0896 20.8552 41.7078 21.7103 40.071C22.5654 38.4341 22.9725 36.6002 22.8905 34.7553L26.1351 29.0737C26.296 28.792 26.396 28.4799 26.4288 28.1572C26.4616 27.8346 26.4264 27.5086 26.3255 27.2004C26.2246 26.8922 26.0603 26.6085 25.843 26.3677C25.6258 26.1269 25.3605 25.9343 25.0643 25.8023Z" fill="#FFAB8D"/>
<path d="M20.1548 9.72434C19.7157 9.52867 19.2169 9.51543 18.7681 9.68754C18.3192 9.85965 17.9571 10.203 17.7615 10.6421C17.5658 11.0812 17.5525 11.58 17.7246 12.0288C17.8968 12.4777 18.2401 12.8398 18.6792 13.0354L43.5127 24.1017L44.9882 20.7905L20.1548 9.72434Z" fill="#BEBEBE"/>
<path d="M39.3378 15.8399L19.6 13.0243C19.3326 12.9864 19.0602 13.0091 18.8027 13.0906L40.2005 22.6259L40.8762 17.8902C40.9098 17.6546 40.8967 17.4146 40.8376 17.184C40.7784 16.9535 40.6745 16.7368 40.5316 16.5464C40.3888 16.356 40.2098 16.1956 40.005 16.0744C39.8001 15.9531 39.5734 15.8734 39.3378 15.8398V15.8399Z" fill="#F49971"/>
<path d="M31.7217 2.26562H33.5238V3.17188H31.7217V2.26562ZM48.0317 2.26562H49.8442V3.17188H48.0317V2.26562ZM42.5942 2.26562H44.4067V3.17188H42.5942V2.26562ZM45.3129 2.26562H47.1254V3.17188H45.3129V2.26562ZM37.1567 2.26562H38.9692V3.17188H37.1567V2.26562ZM39.8754 2.26562H41.6879V3.17188H39.8754V2.26562ZM34.4379 2.26562H36.2504V3.17188H34.4379V2.26562Z" fill="#FFAB8D"/>
</svg>