<svg width="100" height="100" viewBox="0 0 100 100" fill="none" xmlns="http://www.w3.org/2000/svg">
<path fill-rule="evenodd" clip-rule="evenodd" d="M49.9492 8.50977C27.9609 9.12305 10.1875 26.8965 9.57812 48.8848H5.22266C4.57617 48.8848 4.05078 49.4102 4.05078 50.0566C4.05078 50.7031 4.57617 51.2285 5.22266 51.2285H9.57617C10.1875 73.2168 27.9609 90.9902 49.9492 91.6016V95.9551C49.9492 96.6016 50.4746 97.127 51.1211 97.127C51.7676 97.127 52.293 96.6016 52.293 95.9551V91.6016C74.2812 90.9902 92.0547 73.2168 92.668 51.2285H97.0195C97.666 51.2285 98.1914 50.7031 98.1914 50.0566C98.1914 49.4102 97.666 48.8848 97.0195 48.8848H92.668C92.0547 26.8965 74.2812 9.12305 52.293 8.51172V4.15625C52.293 3.50977 51.7676 2.98438 51.1211 2.98438C50.4746 2.98438 49.9492 3.50977 49.9492 4.15625V8.50977ZM63.3633 56.8633C60 53.7891 55.6523 52.0957 51.1211 52.0957C46.5918 52.0957 42.2441 53.7891 38.8789 56.8633C36.1309 59.3731 34.2383 62.6211 33.4121 66.1777C29.5312 61.918 27.1602 56.2578 27.1602 50.0547C27.1602 36.8438 37.9102 26.0938 51.1211 26.0938C64.334 26.0938 75.082 36.8438 75.082 50.0547C75.082 56.2578 72.7109 61.918 68.8301 66.1777C68.0039 62.6231 66.1113 59.3731 63.3633 56.8633ZM60.6016 38.9121C60.6016 44.1387 56.3477 48.3926 51.1211 48.3926C45.8945 48.3926 41.6426 44.1387 41.6426 38.9121C41.6426 33.6855 45.8945 29.4336 51.1211 29.4336C56.3477 29.4355 60.6016 33.6855 60.6016 38.9121ZM66.8125 68.1504C62.6055 71.8027 57.1172 74.0176 51.1211 74.0176C45.125 74.0176 39.6367 71.8027 35.4297 68.1504C36.4863 60.416 43.2617 54.4414 51.1211 54.4414C58.9824 54.4414 65.7559 60.4141 66.8125 68.1504ZM58.2598 38.9121C58.2598 42.8477 55.0586 46.0488 51.123 46.0488C47.1895 46.0488 43.9883 42.8477 43.9883 38.9121C43.9883 34.9785 47.1895 31.7773 51.123 31.7773C55.0566 31.7793 58.2598 34.9785 58.2598 38.9121ZM94.9668 19.6113V6.21094H81.5664C80.918 6.21094 80.3945 5.68555 80.3945 5.03906C80.3945 4.39062 80.918 3.86719 81.5664 3.86719H96.1387C96.7852 3.86719 97.3106 4.39062 97.3106 5.03906V19.6094C97.3106 20.2578 96.7852 20.7813 96.1387 20.7813C95.4902 20.7832 94.9668 20.2598 94.9668 19.6113ZM96.1387 79.3281C96.7852 79.3281 97.3106 79.8516 97.3106 80.5V95.0703C97.3106 95.7188 96.7852 96.2422 96.1387 96.2422H81.5664C80.918 96.2422 80.3945 95.7188 80.3945 95.0703C80.3945 94.4238 80.918 93.8984 81.5664 93.8984H94.9668V80.5C94.9668 79.8535 95.4902 79.3281 96.1387 79.3281ZM6.10547 79.3281C6.75195 79.3281 7.27734 79.8516 7.27734 80.5V93.8984H20.6758C21.3242 93.8984 21.8477 94.4238 21.8477 95.0703C21.8477 95.7188 21.3242 96.2422 20.6758 96.2422H6.10547C5.45703 96.2422 4.93359 95.7188 4.93359 95.0703V80.5C4.93359 79.8535 5.45703 79.3281 6.10547 79.3281ZM7.27734 6.21094V19.6094C7.27734 20.2578 6.75195 20.7813 6.10547 20.7813C5.45703 20.7813 4.93359 20.2578 4.93359 19.6094V5.03906C4.93359 4.39062 5.45703 3.86719 6.10547 3.86719H20.6758C21.3242 3.86719 21.8477 4.39062 21.8477 5.03906C21.8477 5.68555 21.3242 6.21094 20.6758 6.21094H7.27734ZM52.2949 10.8555C72.9922 11.4668 89.7129 28.1895 90.3242 48.8848H86.0078C85.3594 48.8848 84.8359 49.4102 84.8359 50.0566C84.8359 50.7031 85.3594 51.2285 86.0078 51.2285H90.3242C89.7109 71.9219 72.9902 88.6465 52.2949 89.2578V84.9414C52.2949 84.293 51.7695 83.7695 51.123 83.7695C50.4766 83.7695 49.9512 84.293 49.9512 84.9414V89.2578C29.2559 88.6465 12.5332 71.9238 11.9238 51.2285H16.2383C16.8867 51.2285 17.4102 50.7031 17.4102 50.0566C17.4102 49.4102 16.8867 48.8848 16.2383 48.8848H11.9238C12.5332 28.1895 29.2559 11.4668 49.9512 10.8555V15.1719C49.9512 15.8203 50.4766 16.3438 51.123 16.3438C51.7695 16.3438 52.2949 15.8203 52.2949 15.1719V10.8555Z" fill="#343A40"/>
</svg>