<svg width="58" height="58" viewBox="0 0 58 58" fill="none" xmlns="http://www.w3.org/2000/svg">
<g clip-path="url(#clip0_370_353)">
<path fill-rule="evenodd" clip-rule="evenodd" d="M29.7705 53.8577C30.4679 54.4286 30.815 54.7391 31.1653 54.7524C31.5123 54.739 31.8627 54.4285 32.5602 53.8577L50.9491 35.0278C56.3881 29.2086 56.3881 19.6835 50.9491 13.861C46.0073 8.57258 37.8923 9.74787 32.7436 14.8124L31.7759 15.764C31.2153 16.3149 31.1086 16.3149 30.5346 15.7506L29.5836 14.8124C24.4449 9.74447 16.3198 8.57258 11.3781 13.861C5.93909 19.6835 5.93909 29.2086 11.3781 35.0278L13.5836 37.2881L29.7705 53.8577Z" fill="#FD8087"/>
<path fill-rule="evenodd" clip-rule="evenodd" d="M35.0095 12.9596C37.6555 16.799 39.1905 21.3595 39.1905 26.2506C39.1905 26.7847 39.1704 27.3123 39.1337 27.8332C38.8401 32.1767 37.3319 36.2164 34.9227 39.6653C33.8616 41.1844 32.627 42.5899 31.2389 43.8586C29.7574 45.2141 28.1057 46.4094 26.3138 47.4143C25.6956 47.7608 25.0645 48.0838 24.4219 48.3825L29.7708 53.8578C30.4681 54.4288 30.8152 54.7393 31.1656 54.7525C31.5126 54.7392 31.863 54.4286 32.5605 53.8578L38.1862 48.0953L50.9493 35.0278C55.2471 30.4305 56.148 23.5162 53.6555 17.9474C52.9914 16.4684 52.0905 15.0829 50.9493 13.8609C50.1985 13.0597 49.3743 12.4053 48.5 11.8912C45.6504 10.2186 42.2569 10.0283 39.0536 11.0098C37.6488 11.4405 36.2774 12.1016 35.0095 12.9596Z" fill="#FE636E"/>
<path d="M36.5881 32.9889L36.5726 32.9888C36.4184 32.986 36.2676 32.9426 36.1356 32.8628C36.0035 32.783 35.8949 32.6698 35.8207 32.5346L31.2965 24.2858L27.928 30.1745C27.8529 30.3056 27.7452 30.4151 27.6153 30.4923C27.4854 30.5694 27.3377 30.6117 27.1867 30.6148C27.0356 30.618 26.8863 30.582 26.7533 30.5104C26.6203 30.4387 26.508 30.3338 26.4276 30.206L24.3351 26.8793L22.7561 29.5034C22.6783 29.6327 22.5684 29.7398 22.437 29.8141C22.3056 29.8884 22.1573 29.9274 22.0063 29.9274H16.5373C16.0539 29.9274 15.6621 29.5353 15.6621 29.0517C15.6621 28.5681 16.0539 28.1761 16.5373 28.1761H21.5116L23.5688 24.7574C23.6459 24.6293 23.7544 24.523 23.8842 24.4488C24.0139 24.3746 24.1605 24.3348 24.31 24.3333L24.3186 24.3332C24.4666 24.3332 24.6122 24.3708 24.7417 24.4424C24.8713 24.514 24.9806 24.6172 25.0594 24.7425L27.1326 28.0387L30.5529 22.0596C30.6295 21.9257 30.7401 21.8145 30.8734 21.7371C31.0068 21.6597 31.1583 21.6189 31.3125 21.6189L31.3204 21.619C31.476 21.6204 31.6283 21.6633 31.7618 21.7431C31.8953 21.823 32.0051 21.937 32.0798 22.0734L36.6191 30.3498L38.9092 26.5036C38.9868 26.3733 39.0969 26.2654 39.2287 26.1904C39.3605 26.1155 39.5096 26.0761 39.6612 26.0761H46.9554C47.4387 26.0761 47.8306 26.4681 47.8306 26.9517C47.8306 27.4353 47.4387 27.8274 46.9554 27.8274H40.1586L37.3399 32.5614C37.2624 32.6917 37.1523 32.7996 37.0205 32.8745C36.8887 32.9495 36.7397 32.9889 36.5881 32.9889Z" fill="#F8F2F0"/>
<path fill-rule="evenodd" clip-rule="evenodd" d="M48.5002 19.4666C53.7324 19.4666 58.0001 15.1965 58.0001 9.95821C58.0001 4.72326 53.7324 0.453125 48.5002 0.453125C43.2648 0.453125 38.9971 4.72326 38.9971 9.95821C38.9971 15.1965 43.2648 19.4666 48.5002 19.4666Z" fill="#F8F2F0"/>
<path fill-rule="evenodd" clip-rule="evenodd" d="M45.0931 1.08082C48.4332 2.55653 50.7622 5.89516 50.7622 9.78127C50.7622 9.84131 50.7622 9.90146 50.759 9.95821C50.7389 11.0633 50.5321 12.1217 50.165 13.0998C49.2174 15.6506 47.2019 17.6838 44.666 18.6587C45.8372 19.1795 47.1352 19.4666 48.5 19.4666C50.3986 19.4666 52.1704 18.909 53.6553 17.9475C56.2713 16.2514 57.9998 13.3068 57.9998 9.95821C57.9998 4.70989 53.7454 0.453125 48.4999 0.453125C47.2987 0.453125 46.1509 0.673457 45.0931 1.08082Z" fill="#D6DCEA"/>
<path d="M51.957 9.08248H49.3753V6.49944C49.3753 6.01585 48.9834 5.62378 48.5001 5.62378C48.0167 5.62378 47.6249 6.01585 47.6249 6.49944V9.0826H45.0432C44.5598 9.0826 44.168 9.47466 44.168 9.95826C44.168 10.4419 44.5598 10.8339 45.0432 10.8339H47.6249V13.4171C47.6249 13.9007 48.0167 14.2927 48.5001 14.2927C48.9834 14.2927 49.3753 13.9007 49.3753 13.4171V10.8338H51.957C52.4403 10.8338 52.8322 10.4417 52.8322 9.95815C52.8322 9.47455 52.4404 9.08248 51.957 9.08248Z" fill="#FD8087"/>
<path fill-rule="evenodd" clip-rule="evenodd" d="M8.10491 39.4048L6.15625 45.7282L8.10491 52.4288L17.0809 54.8726L24.3617 56.8524C28.6094 58.1745 30.4846 57.4199 34.3921 56.1647L48.7102 51.5708C52.8211 50.2521 52.2072 44.5964 46.191 46.5294L38.1861 48.0952L36.878 48.3522C34.936 48.7294 34.669 48.8863 32.7104 48.5826L26.3137 47.4141L25.1525 47.2005C22.5298 46.3625 23.5508 42.8503 25.8399 43.1975C27.3881 43.3945 29.4636 43.6748 31.2388 43.8585C31.2755 43.8617 31.3122 43.8651 31.3456 43.8684C34.7725 44.2156 36.1472 41.6549 34.9227 39.6651C34.4589 38.9073 33.6146 38.2295 32.3633 37.8322L27.5416 36.9475C24.415 36.3733 22.1927 37.0878 17.3411 37.8857L14.6083 38.3365L8.10491 39.4048Z" fill="#FED1A3"/>
<path fill-rule="evenodd" clip-rule="evenodd" d="M0 38.273V53.6807C0 53.8743 0.203566 54.0313 0.45052 54.0313H7.65136C7.90159 54.0313 8.10516 53.8744 8.10516 53.6807V38.273C8.10516 38.0794 7.90159 37.9224 7.65136 37.9224H0.45052C0.203566 37.9225 0 38.0794 0 38.273Z" fill="#99E6FC"/>
<path fill-rule="evenodd" clip-rule="evenodd" d="M0 51.3136V53.6807C0 53.8743 0.203566 54.0313 0.45052 54.0313H7.65136C7.90159 54.0313 8.10516 53.8744 8.10516 53.6807V51.3136C8.10516 51.5039 7.90159 51.6642 7.65136 51.6642H0.45052C0.203566 51.6642 0 51.5039 0 51.3136Z" fill="#62DBFB"/>
<path fill-rule="evenodd" clip-rule="evenodd" d="M8.10547 51.3136V52.4287L17.0814 54.8725L24.3622 56.8524C28.6099 58.1745 30.4852 57.4199 34.3926 56.1646L48.7108 51.5707C51.0299 50.8295 51.844 48.7062 51.0366 47.3407C50.6395 48.1286 49.8621 48.8363 48.7108 49.2036L34.3926 53.7975C30.4852 55.0495 28.6099 55.8073 24.3622 54.4852L17.0814 52.5054L8.10547 50.0582V51.3136ZM25.8404 40.8304C24.0252 40.5566 23.0075 42.7034 23.9685 44.0221C24.3522 43.4512 25.0129 43.074 25.8404 43.1974C27.3887 43.3944 29.4642 43.6748 31.2393 43.8584L31.3461 43.8684C34.6128 44.199 36.0143 41.892 35.08 39.9521C34.8231 40.4463 34.3926 40.8703 33.7987 41.1541C33.1646 41.4579 32.3405 41.6014 31.3461 41.5013L31.2393 41.4913C29.4642 41.3078 27.3888 41.0273 25.8404 40.8304Z" fill="#FFBC85"/>
</g>
<defs>
<clipPath id="clip0_370_353">
<rect width="58" height="58" fill="white"/>
</clipPath>
</defs>
</svg>