<svg width="52" height="52" viewBox="0 0 52 52" fill="none" xmlns="http://www.w3.org/2000/svg">
<path d="M44.124 16.9375C39.127 16.9375 35.0615 12.8721 35.0615 7.875C35.0615 7.23156 35.1313 6.60444 35.2591 5.99906C33.6538 5.82136 32.1253 5.21746 30.8321 4.25L25.999 0.625L21.166 4.25C19.5973 5.42651 17.6893 6.0625 15.7285 6.0625H7.87402C7.87402 6.0625 7.90846 30.6962 7.94109 31.0895C8.2918 31.2245 8.61624 31.4275 8.89084 31.703L14.283 37.0952C15.1271 37.9348 15.7964 38.9335 16.252 40.0334C16.7076 41.1334 16.9406 42.3127 16.9374 43.5033V44.1259L25.999 51.375L35.0624 44.1241V43.5033C35.0591 42.3125 35.2921 41.1329 35.7479 40.0327C36.2037 38.9326 36.8732 37.9339 37.7177 37.0943L43.109 31.703C43.3836 31.4284 43.7071 31.2254 44.057 31.0904C44.0887 30.6971 44.124 16.9375 44.124 16.9375Z" fill="#3CC8B4"/>
<path d="M6.0625 47.75H16.9375V51.375H6.0625V47.75Z" fill="#F0F0F0"/>
<path d="M6.0625 47.75H9.6875V51.375H6.0625V47.75Z" fill="#D2D2D2"/>
<path d="M35.0625 47.75H45.9375V51.375H35.0625V47.75Z" fill="#F0F0F0"/>
<path d="M35.0625 47.75H38.6875V51.375H35.0625V47.75Z" fill="#D2D2D2"/>
<path d="M51.3687 24.1875H51.0977C50.6686 24.1874 50.2535 24.3396 49.9261 24.6169C49.5987 24.8942 49.3802 25.2786 49.3097 25.7018L48.1315 32.7706C47.8833 34.2612 47.1755 35.637 46.107 36.7055L44.125 38.6875L45.5551 35.8274C45.8064 35.3242 45.9373 34.7695 45.9375 34.207V33.6261C45.9375 32.8186 44.9615 32.4144 44.3905 32.9854L38.9983 38.3776C38.3251 39.0508 37.7911 39.8501 37.4268 40.7297C37.0625 41.6093 36.875 42.5521 36.875 43.5042V47.75H44.125V46.0018C44.125 44.8002 44.6026 43.6474 45.4527 42.7983L49.2507 39.0002C49.9242 38.3278 50.4584 37.5293 50.8228 36.6502C51.1871 35.7711 51.3745 34.8287 51.3741 33.8771L51.3687 24.1875Z" fill="#F0C8A0"/>
<path d="M16.5537 40.8816C16.8066 41.7208 16.938 42.6017 16.938 43.5034V44.126L25.9996 51.3751L27.8121 49.9251L16.9416 41.2287C16.8047 41.119 16.686 40.9949 16.5537 40.8816Z" fill="#1EAA96"/>
<path d="M0.631415 24.1875H0.902384C1.33144 24.1874 1.7466 24.3396 2.074 24.6169C2.40141 24.8942 2.61984 25.2786 2.69041 25.7018L3.86854 32.7706C4.11676 34.2612 4.82461 35.637 5.8931 36.7055L7.87507 38.6875L6.44501 35.8274C6.19367 35.3242 6.06274 34.7695 6.06257 34.207V33.6261C6.06257 32.8186 7.0386 32.4144 7.60954 32.9854L13.0017 38.3776C13.6749 39.0508 14.209 39.8501 14.5733 40.7297C14.9376 41.6093 15.1251 42.5521 15.1251 43.5042V47.75H7.87507V46.0018C7.87505 44.8003 7.39782 43.648 6.54832 42.7983L2.75023 39.0002C2.07653 38.3278 1.54211 37.5291 1.1776 36.6498C0.813082 35.7706 0.625628 34.828 0.625977 33.8762L0.631415 24.1875Z" fill="#F0C8A0"/>
<path d="M40.8092 38.3767L45.8778 33.308C45.663 32.7253 44.88 32.4951 44.3907 32.9845L38.9985 38.3767C38.3253 39.0499 37.7913 39.8492 37.4269 40.7288C37.0626 41.6084 36.8751 42.5512 36.8751 43.5033V47.75H38.6849V43.5033C38.6849 41.5802 39.4489 39.736 40.8092 38.3767ZM8.35817 42.7983L4.56008 39.0002C3.88661 38.3278 3.3524 37.5293 2.98804 36.6502C2.62369 35.7711 2.43634 34.8287 2.43674 33.8771L2.44036 25.0493C2.27888 24.7864 2.05277 24.5691 1.78357 24.4183C1.51437 24.2674 1.21104 24.188 0.902456 24.1875H0.631487L0.626955 33.8762C0.626191 34.8278 0.813282 35.7702 1.1775 36.6493C1.54171 37.5284 2.07589 38.327 2.74939 38.9993L6.54749 42.7973C7.39746 43.6472 7.87503 44.7999 7.87514 46.0018V47.75H9.68492V46.0018C9.68511 45.4069 9.56804 44.8177 9.34038 44.268C9.11273 43.7183 8.77897 43.2189 8.35817 42.7983Z" fill="#D2AA82"/>
<path d="M44.124 15.125C48.1281 15.125 51.374 11.8791 51.374 7.875C51.374 3.87094 48.1281 0.625 44.124 0.625C40.12 0.625 36.874 3.87094 36.874 7.875C36.874 11.8791 40.12 15.125 44.124 15.125Z" fill="#FAB400"/>
<path d="M38.6865 7.875C38.6865 4.17841 41.4551 1.13431 45.0303 0.687531C44.7298 0.647905 44.4271 0.627021 44.124 0.625C42.2012 0.625 40.3571 1.38884 38.9975 2.74848C37.6379 4.10811 36.874 5.95218 36.874 7.875C36.874 9.79782 37.6379 11.6419 38.9975 13.0015C40.3571 14.3612 42.2012 15.125 44.124 15.125C44.4312 15.125 44.733 15.0996 45.0303 15.0625C41.4542 14.6157 38.6865 11.5716 38.6865 7.875Z" fill="#DC9600"/>
<path d="M48.6553 6.0625L43.2178 11.5L39.5928 7.875L41.4053 6.0625L43.2178 7.875L46.8428 4.25L48.6553 6.0625Z" fill="#F0F0F0"/>
<path d="M11.499 29.9059V6.0625H7.87402C7.87402 6.0625 7.90846 30.6962 7.94109 31.0895C8.2918 31.2245 8.61624 31.4275 8.89084 31.703L12.6155 35.4277C11.8852 33.678 11.5059 31.8019 11.499 29.9059Z" fill="#1EAA96"/>
<path d="M26.0004 36.8749L35.4245 26.1042C36.33 25.0699 36.7979 23.7242 36.7295 22.3513C36.6611 20.9784 36.0617 19.6859 35.0579 18.7468C34.0541 17.8077 32.7245 17.2956 31.3501 17.3187C29.9757 17.3417 28.6641 17.8982 27.6924 18.8705L26.0004 20.5624L24.3084 18.8705C23.3388 17.8892 22.0245 17.325 20.6452 17.2979C19.2659 17.2708 17.9305 17.783 16.9231 18.7255C15.9156 19.668 15.3157 20.9664 15.251 22.3444C15.1862 23.7224 15.6617 25.0714 16.5763 26.1042L26.0004 36.8749Z" fill="#FA6450"/>
<path d="M20.3017 18.8706C20.8672 18.3114 21.5523 17.8881 22.3055 17.6326C20.4467 16.9847 18.3025 17.3852 16.8172 18.8706C15.8669 19.8208 15.3133 21.0967 15.2686 22.4398C15.2238 23.7829 15.6912 25.0929 16.5761 26.1043L26.0002 36.875L27.743 34.884L20.0616 26.1052C19.1763 25.0938 18.7085 23.7838 18.7531 22.4404C18.7977 21.0971 19.3513 19.821 20.3017 18.8706ZM29.4848 20.5625L31.1767 18.8706C31.7422 18.3114 32.4273 17.8881 33.1805 17.6326C31.3408 16.9919 29.2265 17.3816 27.743 18.8298C27.7584 18.8452 25.9848 20.5471 26.0002 20.5625H29.4848Z" fill="#DC4632"/>
</svg>