<svg width="100" height="100" viewBox="0 0 100 100" fill="none" xmlns="http://www.w3.org/2000/svg">
<path d="M40.4377 78.5277C40.0389 78.5275 39.6554 78.3748 39.3655 78.101C39.0757 77.8271 38.9015 77.4528 38.8787 77.0547C38.7932 75.7224 38.3828 74.4313 37.6833 73.2942C36.9839 72.1571 36.0167 71.2085 34.8662 70.5313C30.4996 67.9016 26.8846 64.1908 24.3701 59.757C21.8555 55.3231 20.5263 50.316 20.5107 45.2188C20.5104 41.2272 21.3203 37.277 22.8914 33.6076C24.4626 29.9382 26.7622 26.626 29.6511 23.8715C32.54 21.117 35.9579 18.9776 39.6979 17.5828C43.4379 16.1881 47.4221 15.5671 51.4092 15.7574C65.8865 16.432 78.7283 29.2316 79.4514 43.7074C79.731 49.0876 78.5301 54.4415 75.9791 59.1868C73.4282 63.9321 69.6249 67.887 64.983 70.6215C63.8599 71.2938 62.9199 72.2328 62.2463 73.3552C61.5727 74.4776 61.1863 75.7489 61.1213 77.0563C61.1095 77.2611 61.0576 77.4617 60.9683 77.6465C60.879 77.8313 60.7543 77.9967 60.6011 78.1333C60.4479 78.2698 60.2693 78.3749 60.0755 78.4424C59.8818 78.51 59.6766 78.5387 59.4717 78.527C59.2668 78.5152 59.0662 78.4632 58.8814 78.374C58.6967 78.2847 58.5312 78.1599 58.3947 78.0067C58.2581 77.8536 58.1531 77.675 58.0855 77.4812C58.018 77.2874 57.9892 77.0822 58.001 76.8773C58.0952 75.0579 58.6367 73.2898 59.5773 71.7295C60.5179 70.1692 61.8286 68.8649 63.3936 67.932C67.5444 65.4866 70.9452 61.9498 73.2261 57.7063C75.507 53.4629 76.5807 48.6752 76.3303 43.8641C75.6838 30.9242 64.2049 19.4828 51.2639 18.8797C47.6989 18.709 44.1364 19.2637 40.7922 20.5104C37.448 21.7571 34.3917 23.6698 31.8085 26.1325C29.2253 28.5952 27.1689 31.5568 25.7641 34.8377C24.3592 38.1185 23.635 41.6505 23.6354 45.2195C23.6493 49.7771 24.8378 54.2541 27.0862 58.2185C29.3346 62.1829 32.567 65.5008 36.4713 67.852C38.0596 68.791 39.3938 70.1046 40.3573 71.6782C41.3208 73.2518 41.8843 75.0373 41.9986 76.8789C42.0104 77.0838 41.9816 77.2889 41.914 77.4827C41.8465 77.6764 41.7414 77.855 41.6048 78.0081C41.4683 78.1613 41.3029 78.286 41.1181 78.3752C40.9333 78.4645 40.7328 78.5164 40.5279 78.5281C40.4979 78.527 40.4689 78.5277 40.4377 78.5277Z" fill="black"/>
<path d="M67.8633 38.0645C67.5863 38.0647 67.3142 37.9912 67.0749 37.8517C66.8356 37.7121 66.6378 37.5115 66.5016 37.2703C65.3135 35.1656 63.736 33.3059 61.8531 31.7906C61.5387 31.5279 61.3401 31.1521 61.3 30.7443C61.26 30.3365 61.3817 29.9293 61.639 29.6104C61.8964 29.2916 62.2686 29.0865 62.6757 29.0395C63.0827 28.9924 63.492 29.1072 63.8152 29.359C66.0055 31.1216 67.8402 33.2849 69.2215 35.7336C69.3557 35.9712 69.4253 36.2398 69.4234 36.5127C69.4215 36.7856 69.3482 37.0532 69.2108 37.289C69.0733 37.5247 68.8765 37.7203 68.64 37.8564C68.4034 37.9925 68.1354 38.0642 67.8625 38.0645H67.8633ZM58.5359 29.466C58.3101 29.4659 58.0869 29.4166 57.882 29.3215C57.1501 28.984 56.3974 28.6935 55.6285 28.452C55.4326 28.3906 55.2507 28.2913 55.0932 28.1597C54.9357 28.0281 54.8057 27.8667 54.7106 27.6849C54.5184 27.3176 54.48 26.889 54.6039 26.4934C54.6652 26.2975 54.7645 26.1156 54.8961 25.9581C55.0278 25.8006 55.1891 25.6706 55.371 25.5754C55.7383 25.3833 56.1669 25.3449 56.5625 25.4687C57.4594 25.7505 58.3373 26.0897 59.1906 26.4844C59.5141 26.6336 59.7769 26.889 59.9354 27.2081C60.0939 27.5272 60.1385 27.8909 60.062 28.2388C59.9854 28.5868 59.7923 28.8982 59.5145 29.1213C59.2367 29.3444 58.891 29.4659 58.5348 29.4656L58.5359 29.466ZM50 10.2875C49.5856 10.2875 49.1882 10.1229 48.8951 9.82985C48.6021 9.53683 48.4375 9.1394 48.4375 8.725V2.57422C48.4375 2.15982 48.6021 1.76239 48.8951 1.46936C49.1882 1.17634 49.5856 1.01172 50 1.01172C50.4144 1.01172 50.8118 1.17634 51.1049 1.46936C51.3979 1.76239 51.5625 2.15982 51.5625 2.57422V8.725C51.5625 9.1394 51.3979 9.53683 51.1049 9.82985C50.8118 10.1229 50.4144 10.2875 50 10.2875ZM31.0504 15.3656C30.7759 15.3659 30.5061 15.2938 30.2683 15.1567C30.0305 15.0195 29.833 14.8221 29.6957 14.5844L26.6203 9.25781C26.4131 8.89889 26.357 8.47236 26.4643 8.07205C26.5715 7.67174 26.8335 7.33044 27.1924 7.12324C27.5513 6.91604 27.9778 6.85991 28.3781 6.96719C28.7785 7.07448 29.1198 7.33639 29.327 7.69531L32.4023 13.0219C32.5394 13.2593 32.6116 13.5286 32.6117 13.8028C32.6117 14.077 32.5396 14.3464 32.4026 14.5838C32.2656 14.8213 32.0686 15.0186 31.8312 15.1558C31.5939 15.2931 31.3246 15.3654 31.0504 15.3656ZM17.1746 29.2387C16.9003 29.2389 16.6308 29.1667 16.3934 29.0293L11.068 25.9539C10.712 25.7452 10.4531 25.4042 10.3476 25.0053C10.2421 24.6064 10.2987 24.182 10.505 23.8247C10.7113 23.4674 11.0506 23.2062 11.4488 23.098C11.847 22.9899 12.2718 23.0437 12.6305 23.2477L17.9574 26.3227C18.2555 26.4946 18.4885 26.76 18.6202 27.0779C18.7519 27.3957 18.7751 27.7482 18.686 28.0805C18.597 28.4129 18.4008 28.7065 18.1277 28.916C17.8547 29.1254 17.5202 29.2388 17.1762 29.2387H17.1746ZM12.098 48.1894H5.94727C5.53286 48.1894 5.13544 48.0248 4.84241 47.7318C4.54939 47.4388 4.38477 47.0414 4.38477 46.6269C4.38477 46.2126 4.54939 45.8151 4.84241 45.5221C5.13544 45.2291 5.53286 45.0644 5.94727 45.0644H12.098C12.5124 45.0644 12.9099 45.2291 13.2029 45.5221C13.4959 45.8151 13.6605 46.2126 13.6605 46.6269C13.6605 47.0414 13.4959 47.4388 13.2029 47.7318C12.9099 48.0248 12.5124 48.1894 12.098 48.1894ZM11.8508 70.216C11.5068 70.216 11.1725 70.1025 10.8996 69.8931C10.6268 69.6837 10.4306 69.3901 10.3416 69.0579C10.2526 68.7257 10.2757 68.3734 10.4073 68.0556C10.5389 67.7378 10.7717 67.4724 11.0695 67.3004L16.3965 64.225C16.7552 64.0211 17.18 63.9673 17.5781 64.0754C17.9763 64.1835 18.3156 64.4447 18.5219 64.802C18.7282 65.1594 18.7848 65.5838 18.6794 65.9827C18.5739 66.3816 18.3149 66.7226 17.959 66.9312L12.632 70.0066C12.3947 70.1441 12.1251 70.2164 11.8508 70.216ZM88.1492 70.216C87.8749 70.2164 87.6053 70.1442 87.368 70.0066L82.041 66.9312C81.8619 66.8294 81.7047 66.6931 81.5784 66.5303C81.4521 66.3674 81.3594 66.1812 81.3054 65.9823C81.2514 65.7835 81.2373 65.5759 81.2638 65.3715C81.2904 65.1672 81.3571 64.9701 81.4601 64.7917C81.5632 64.6132 81.7005 64.4569 81.8642 64.3317C82.0278 64.2066 82.2147 64.115 82.4139 64.0623C82.6131 64.0097 82.8208 63.9969 83.0249 64.0248C83.2291 64.0528 83.4257 64.1208 83.6035 64.225L88.9305 67.3004C89.2283 67.4724 89.4611 67.7378 89.5927 68.0556C89.7243 68.3734 89.7474 68.7257 89.6584 69.0579C89.5694 69.3901 89.3732 69.6837 89.1003 69.8931C88.8275 70.1025 88.4931 70.216 88.1492 70.216ZM94.0527 48.1894H87.9019C87.4875 48.1894 87.0901 48.0248 86.7971 47.7318C86.5041 47.4388 86.3394 47.0414 86.3394 46.6269C86.3394 46.2126 86.5041 45.8151 86.7971 45.5221C87.0901 45.2291 87.4875 45.0644 87.9019 45.0644H94.0527C94.4671 45.0644 94.8645 45.2291 95.1576 45.5221C95.4506 45.8151 95.6152 46.2126 95.6152 46.6269C95.6152 47.0414 95.4506 47.4388 95.1576 47.7318C94.8645 48.0248 94.4671 48.1894 94.0527 48.1894ZM82.8254 29.2387C82.4813 29.2388 82.1468 29.1254 81.8738 28.916C81.6008 28.7065 81.4045 28.4129 81.3155 28.0805C81.2265 27.7482 81.2496 27.3957 81.3813 27.0779C81.5131 26.76 81.7461 26.4946 82.0441 26.3227L87.3711 23.2477C87.5488 23.1434 87.7455 23.0754 87.9496 23.0475C88.1538 23.0196 88.3615 23.0323 88.5607 23.085C88.7599 23.1377 88.9467 23.2292 89.1104 23.3544C89.2741 23.4796 89.4114 23.6359 89.5145 23.8143C89.6175 23.9928 89.6842 24.1899 89.7108 24.3942C89.7373 24.5985 89.7232 24.8061 89.6692 25.005C89.6152 25.2039 89.5224 25.3901 89.3962 25.5529C89.2699 25.7158 89.1127 25.8521 88.9336 25.9539L83.6066 29.0293C83.3692 29.1666 83.0997 29.2389 82.8254 29.2387ZM68.9496 15.3656C68.6754 15.3654 68.4061 15.2931 68.1688 15.1558C67.9314 15.0186 67.7343 14.8213 67.5973 14.5838C67.4603 14.3464 67.3883 14.077 67.3883 13.8028C67.3884 13.5286 67.4606 13.2593 67.5976 13.0219L70.673 7.69531C70.7756 7.51759 70.9122 7.36182 71.075 7.23689C71.2378 7.11196 71.4236 7.02031 71.6218 6.96719C71.8201 6.91407 72.0268 6.90051 72.2302 6.92729C72.4337 6.95406 72.6299 7.02065 72.8076 7.12324C72.9853 7.22584 73.1411 7.36243 73.266 7.52523C73.391 7.68802 73.4826 7.87383 73.5357 8.07205C73.5888 8.27026 73.6024 8.477 73.5756 8.68045C73.5489 8.8839 73.4823 9.08009 73.3797 9.25781L70.3043 14.5848C70.167 14.8224 69.9695 15.0198 69.7316 15.1568C69.4938 15.2939 69.2241 15.3659 68.9496 15.3656ZM60.6508 90.0289H39.3492C38.9348 90.0289 38.5374 89.8643 38.2444 89.5713C37.9513 89.2782 37.7867 88.8808 37.7867 88.4664V76.9652C37.7867 76.5508 37.9513 76.1534 38.2444 75.8604C38.5374 75.5674 38.9348 75.4027 39.3492 75.4027H60.6508C61.0652 75.4027 61.4626 75.5674 61.7556 75.8604C62.0486 76.1534 62.2133 76.5508 62.2133 76.9652V88.4664C62.2133 88.8808 62.0486 89.2782 61.7556 89.5713C61.4626 89.8643 61.0652 90.0289 60.6508 90.0289ZM40.9117 86.9039H59.0883V78.5277H40.9117V86.9039Z" fill="black"/>
<path d="M50.6941 98.9883H49.3058C47.0517 98.9857 44.8906 98.0891 43.2967 96.4952C41.7029 94.9012 40.8063 92.7401 40.8038 90.486V88.4664C40.8038 88.052 40.9685 87.6546 41.2615 87.3616C41.5545 87.0686 41.9519 86.9039 42.3663 86.9039C42.7808 86.9039 43.1782 87.0686 43.4712 87.3616C43.7642 87.6546 43.9288 88.052 43.9288 88.4664V90.486C43.9305 91.9115 44.4975 93.2783 45.5055 94.2864C46.5135 95.2944 47.8802 95.8616 49.3058 95.8633H50.6941C52.1197 95.8616 53.4864 95.2944 54.4944 94.2864C55.5024 93.2783 56.0694 91.9115 56.071 90.486V88.4664C56.071 88.052 56.2357 87.6546 56.5287 87.3616C56.8217 87.0686 57.2191 86.9039 57.6335 86.9039C58.0479 86.9039 58.4454 87.0686 58.7384 87.3616C59.0314 87.6546 59.196 88.052 59.196 88.4664V90.486C59.1936 92.7401 58.297 94.9012 56.7032 96.4952C55.1093 98.0891 52.9482 98.9857 50.6941 98.9883ZM47.7496 63.1754C44.8781 63.1754 39.3699 62.6594 35.78 59.0696C30.848 54.1375 31.7187 45.586 31.7578 45.2231C31.7963 44.8693 31.9545 44.5392 32.2062 44.2875C32.4579 44.0359 32.7879 43.8777 33.1417 43.8391C33.5031 43.8 42.0562 42.9301 46.9882 47.8625C51.9199 52.7942 51.0507 61.3469 51.0117 61.7086C50.9731 62.0624 50.8149 62.3925 50.5632 62.6442C50.3115 62.8958 49.9815 63.054 49.6277 63.0926C49.0034 63.1517 48.3766 63.1794 47.7496 63.1754ZM34.8046 46.8832C34.7843 49.1938 35.121 53.9903 37.9902 56.8598C40.8593 59.7293 45.6527 60.0586 47.9628 60.0449C47.9828 57.7332 47.6453 52.9395 44.7777 50.0723C41.8953 47.1903 37.1062 46.8559 34.8046 46.8832Z" fill="black"/>
<path d="M51.69 63.177C50.9405 63.1818 50.1913 63.1487 49.4451 63.0778C49.0913 63.0392 48.7612 62.881 48.5096 62.6293C48.2579 62.3776 48.0997 62.0476 48.0611 61.6938C48.0142 61.2641 46.9791 51.0801 52.8267 45.2309C58.6764 39.3817 68.8592 40.4168 69.2896 40.4653C69.6436 40.5038 69.9738 40.662 70.2255 40.9137C70.4773 41.1655 70.6355 41.4957 70.674 41.8496C70.7209 42.2793 71.7557 52.4629 65.9084 58.3121C61.6545 62.5637 55.1103 63.177 51.69 63.177ZM51.0971 60.0391C53.7947 60.0953 60.0123 59.7867 63.6978 56.1008C67.3834 52.4149 67.6924 46.2027 67.6361 43.5024C64.9385 43.4465 58.7225 43.7559 55.0377 47.4406C51.3389 51.1399 51.0361 57.3438 51.0971 60.0391Z" fill="black"/>
<path d="M49.5283 71.8668C49.1139 71.8668 48.7165 71.7022 48.4235 71.4092C48.1304 71.1162 47.9658 70.7187 47.9658 70.3043V61.2633C47.9658 60.8489 48.1304 60.4515 48.4235 60.1585C48.7165 59.8654 49.1139 59.7008 49.5283 59.7008C49.9427 59.7008 50.3401 59.8654 50.6332 60.1585C50.9262 60.4515 51.0908 60.8489 51.0908 61.2633V70.3043C51.0908 70.7187 50.9262 71.1162 50.6332 71.4092C50.3401 71.7022 49.9427 71.8668 49.5283 71.8668Z" fill="black"/>
</svg>