<svg width="58" height="58" viewBox="0 0 58 58" fill="none" xmlns="http://www.w3.org/2000/svg">
<path fill-rule="evenodd" clip-rule="evenodd" d="M51.272 21.7823C50.692 22.8005 50.2022 23.6769 49.9187 24.2312C49.8671 24.3343 49.7769 24.4245 49.6738 24.4889C49.3902 24.6436 49.0422 24.5276 48.8875 24.244C48.604 23.6898 48.1013 22.8134 47.5342 21.7823C45.3431 17.8769 41.9404 11.7934 41.9404 9.38315C41.9404 7.32093 42.7782 5.45204 44.1315 4.0987C45.4849 2.74537 47.3538 1.90759 49.416 1.90759C51.4782 1.90759 53.3471 2.74537 54.7004 4.0987C56.0538 5.45204 56.8915 7.32093 56.8915 9.38315C56.8787 11.7934 53.4631 17.8769 51.272 21.7823Z" fill="#EF5350"/>
<path fill-rule="evenodd" clip-rule="evenodd" d="M49.4026 3.6991C50.975 3.6991 52.3928 4.33065 53.411 5.36176C54.4421 6.39287 55.0737 7.81065 55.0737 9.37021C55.0737 10.9298 54.4421 12.3604 53.411 13.3787C52.3799 14.3969 50.9621 15.0413 49.4026 15.0413C47.843 15.0413 46.4123 14.4098 45.3941 13.3787C44.3759 12.3475 43.7314 10.9298 43.7314 9.37021C43.7314 7.81065 44.363 6.37999 45.3941 5.36176C46.4252 4.34354 47.8301 3.6991 49.4026 3.6991Z" fill="#C24441"/>
<path fill-rule="evenodd" clip-rule="evenodd" d="M52.5609 6.21249C51.7489 5.40049 50.6404 4.89783 49.4031 4.89783C48.1658 4.89783 47.0444 5.41338 46.2453 6.21249C45.4333 7.02449 44.9307 8.13294 44.9307 9.37027C44.9307 10.6076 45.4333 11.7289 46.2453 12.528C47.0573 13.34 48.1658 13.8427 49.4031 13.8427C50.6404 13.8427 51.7618 13.34 52.5609 12.528C53.3729 11.7289 53.8756 10.6076 53.8756 9.38316C53.8756 8.15872 53.3729 7.02449 52.5609 6.21249Z" fill="#F5F5F5"/>
<path fill-rule="evenodd" clip-rule="evenodd" d="M25.6612 18.0444C25.3261 18.6244 25.0554 19.1271 24.8879 19.4493C24.8621 19.5138 24.8105 19.5653 24.7461 19.5911C24.5785 19.6813 24.3852 19.6169 24.295 19.4493C24.1274 19.14 23.8439 18.6373 23.5216 18.0444C22.2714 15.8147 20.3252 12.3347 20.3252 10.9556C20.3252 9.76978 20.8021 8.71289 21.5754 7.93955C22.3488 7.16622 23.4185 6.68933 24.5914 6.68933C25.7643 6.68933 26.8341 7.16622 27.6074 7.93955C28.3808 8.71289 28.8576 9.78266 28.8576 10.9556C28.8576 12.3347 26.9114 15.8147 25.6612 18.0444Z" fill="#EF5350"/>
<path fill-rule="evenodd" clip-rule="evenodd" d="M24.5917 7.70764C25.4811 7.70764 26.306 8.06853 26.886 8.66142C27.466 9.25431 27.8397 10.0534 27.8397 10.9556C27.8397 11.845 27.4789 12.6699 26.886 13.2499C26.2931 13.8428 25.4811 14.2036 24.5917 14.2036C23.7024 14.2036 22.8775 13.8428 22.2975 13.2499C21.7046 12.657 21.3438 11.8579 21.3438 10.9556C21.3438 10.0663 21.7046 9.24142 22.2975 8.66142C22.8904 8.08142 23.6895 7.70764 24.5917 7.70764Z" fill="#C24441"/>
<path fill-rule="evenodd" clip-rule="evenodd" d="M26.3965 9.15112C25.9325 8.68712 25.288 8.40356 24.592 8.40356C23.8832 8.40356 23.2516 8.68712 22.7876 9.15112C22.3236 9.61512 22.04 10.2596 22.04 10.9556C22.04 11.6645 22.3236 12.296 22.7876 12.76C23.2516 13.224 23.896 13.5076 24.592 13.5076C25.3009 13.5076 25.9325 13.224 26.3965 12.76C26.8605 12.296 27.144 11.6516 27.144 10.9556C27.144 10.2467 26.8605 9.61512 26.3965 9.15112Z" fill="#F5F5F5"/>
<path fill-rule="evenodd" clip-rule="evenodd" d="M7.72002 16.936C7.32046 17.6449 6.97246 18.2636 6.77913 18.6502C6.74046 18.7276 6.67602 18.792 6.61158 18.8307C6.40535 18.9338 6.17335 18.8565 6.05735 18.6631C5.85113 18.2765 5.51602 17.6707 5.11646 16.9489C3.5698 14.2165 1.19824 9.96313 1.19824 8.27469C1.19824 6.83113 1.77824 5.52935 2.73202 4.58846C3.6858 3.64758 4.98758 3.05469 6.41824 3.05469C7.84891 3.05469 9.16358 3.63469 10.1045 4.58846C11.0454 5.54224 11.6382 6.83113 11.6382 8.27469C11.6254 9.96313 9.2538 14.2165 7.72002 16.936Z" fill="#EF5350"/>
<path fill-rule="evenodd" clip-rule="evenodd" d="M6.41802 4.30493C7.51358 4.30493 8.50602 4.74315 9.2278 5.46493C9.94958 6.18671 10.3878 7.17915 10.3878 8.27471C10.3878 9.37026 9.94958 10.3627 9.2278 11.0845C8.50602 11.8063 7.51358 12.2445 6.41802 12.2445C5.32246 12.2445 4.33002 11.8063 3.60824 11.0845C2.88646 10.3627 2.44824 9.37026 2.44824 8.27471C2.44824 7.17915 2.88646 6.18671 3.60824 5.46493C4.33002 4.74315 5.32246 4.30493 6.41802 4.30493Z" fill="#C24441"/>
<path fill-rule="evenodd" clip-rule="evenodd" d="M8.62194 6.07075C8.05483 5.50364 7.26861 5.15564 6.41794 5.15564C5.55438 5.15564 4.78105 5.50364 4.21394 6.07075C3.64683 6.63786 3.29883 7.41119 3.29883 8.27475C3.29883 9.13831 3.64683 9.91164 4.21394 10.4788C4.78105 11.0459 5.55438 11.3939 6.41794 11.3939C7.28149 11.3939 8.05483 11.0459 8.62194 10.4788C9.18905 9.92453 9.53705 9.13831 9.53705 8.27475C9.53705 7.41119 9.18905 6.62497 8.62194 6.07075Z" fill="#F5F5F5"/>
<path d="M37.764 52.2129C37.4289 52.2129 37.1582 51.9422 37.1582 51.6071V29.1675C37.1582 28.8324 37.4289 28.5618 37.764 28.5618H51.4133C51.6711 28.5618 51.9031 28.7293 51.9804 28.9613L56.4915 40.0973C56.5173 40.1747 56.5302 40.252 56.5302 40.3293V42.7009H55.0866C54.3906 42.7009 53.8106 43.268 53.8106 43.9769C53.8106 44.6729 54.3778 45.2529 55.0866 45.2529H56.5302V51.62C56.5302 51.9551 56.2595 52.2258 55.9244 52.2258C49.8666 52.2129 43.8218 52.2129 37.764 52.2129Z" fill="#EF5350"/>
<path d="M52.6898 52.2129H40.9867C40.9609 52.0196 40.9609 51.8134 40.9609 51.6071C40.9609 50.0476 41.5796 48.5525 42.6881 47.444C43.7965 46.3356 45.2787 45.7169 46.8512 45.7169C48.4236 45.7169 49.9058 46.3356 51.0143 47.444C52.1227 48.5525 52.7414 50.0347 52.7414 51.6071C52.7156 51.8134 52.7156 52.0196 52.6898 52.2129Z" fill="#9E3735"/>
<path d="M51.4777 52.213H42.2105C42.1848 52.0196 42.1719 51.8134 42.1719 51.6072C42.1719 50.3183 42.7003 49.1454 43.5381 48.3076C44.3888 47.457 45.5488 46.9414 46.8377 46.9414C48.1265 46.9414 49.2994 47.4698 50.1372 48.3076C50.9879 49.1583 51.5034 50.3183 51.5034 51.6072C51.5163 51.8134 51.5034 52.0196 51.4777 52.213Z" fill="#EF5350"/>
<path d="M41.3472 32.1578H48.9903C49.2481 32.1578 49.4801 32.3254 49.5574 32.5574L52.8956 40.8063C53.0245 41.1156 52.8698 41.4636 52.5605 41.5925C52.4832 41.6183 52.4058 41.6312 52.3285 41.6312H41.3343C40.9992 41.6312 40.7285 41.3605 40.7285 41.0254V32.7507C40.7414 32.4156 41.0121 32.1578 41.3472 32.1578ZM43.5125 42.8556C43.8476 42.8556 44.1183 43.1263 44.1183 43.4614C44.1183 43.7965 43.8476 44.0672 43.5125 44.0672H41.3472C41.0121 44.0672 40.7414 43.7965 40.7414 43.4614C40.7414 43.1263 41.0121 42.8556 41.3472 42.8556H43.5125Z" fill="#9E3735"/>
<path d="M1.76562 22.7232C1.76562 22.3881 2.03629 22.1174 2.3714 22.1174H37.7643C38.0994 22.1174 38.3701 22.3881 38.3701 22.7232V51.5943C38.3701 51.9294 38.0994 52.2001 37.7643 52.2001H2.3714C2.03629 52.2001 1.76562 51.9294 1.76562 51.5943V22.7232Z" fill="#729BC6"/>
<path d="M29.9407 52.2129H18.2376C18.2118 52.0195 18.2118 51.8133 18.2118 51.6071C18.2118 50.0475 18.8305 48.5524 19.939 47.444C21.0474 46.3355 22.5296 45.7169 24.1021 45.7169C25.6616 45.7169 27.1567 46.3355 28.2652 47.444C29.3736 48.5524 29.9923 50.0347 29.9923 51.6071C29.9665 51.8133 29.9536 52.0195 29.9407 52.2129ZM17.7607 52.2129H6.05762C6.03185 52.0195 6.03185 51.8133 6.03185 51.6071C6.03185 50.0475 6.65051 48.5524 7.75896 47.444C8.8674 46.3355 10.3496 45.7169 11.9221 45.7169C13.4945 45.7169 14.9767 46.3355 16.0852 47.444C17.1936 48.5524 17.8123 50.0347 17.8123 51.6071C17.7865 51.8133 17.7736 52.0195 17.7607 52.2129ZM1.76562 42.1595H38.3572V45.1498H1.76562V42.1595Z" fill="#4C6682"/>
<path d="M43.5385 48.3076C44.3891 47.457 45.5491 46.9414 46.838 46.9414C48.1269 46.9414 49.2998 47.4698 50.1376 48.3076C50.9882 49.1583 51.5038 50.3183 51.5038 51.6072C51.5038 52.8961 50.9754 54.069 50.1376 54.9067C49.2869 55.7574 48.1269 56.273 46.838 56.273C45.5491 56.273 44.3762 55.7445 43.5385 54.9067C42.6878 54.0561 42.1722 52.8961 42.1722 51.6072C42.1722 50.3312 42.6878 49.1583 43.5385 48.3076ZM20.7767 48.3076C21.6274 47.457 22.7874 46.9414 24.0762 46.9414C25.3651 46.9414 26.538 47.4698 27.3758 48.3076C28.2136 49.1454 28.742 50.3183 28.742 51.6072C28.742 52.8961 28.2136 54.069 27.3758 54.9067C26.5251 55.7574 25.3651 56.273 24.0762 56.273C22.7874 56.273 21.6145 55.7445 20.7767 54.9067C19.9389 54.069 19.4105 52.8961 19.4105 51.6072C19.4105 50.3312 19.9389 49.1583 20.7767 48.3076ZM8.59669 48.3076C9.44736 47.457 10.6074 46.9414 11.8962 46.9414C13.1851 46.9414 14.358 47.4698 15.1958 48.3076C16.0336 49.1454 16.562 50.3183 16.562 51.6072C16.562 52.8961 16.0336 54.069 15.1958 54.9067C14.3451 55.7574 13.1851 56.273 11.8962 56.273C10.6074 56.273 9.43447 55.7445 8.59669 54.9067C7.75891 54.069 7.23047 52.8961 7.23047 51.6072C7.23047 50.3312 7.75891 49.1583 8.59669 48.3076Z" fill="#2E343A"/>
<path d="M11.909 48.6298C11.0841 48.6298 10.3365 48.9649 9.80808 49.5062C9.27964 50.0475 8.93164 50.7951 8.93164 51.62C8.93164 52.4449 9.26675 53.1924 9.80808 53.7338C10.3494 54.2751 11.097 54.6102 11.909 54.6102C12.7339 54.6102 13.4814 54.2751 14.0228 53.7338C14.5641 53.1924 14.8992 52.4449 14.8992 51.62C14.8992 50.7951 14.5641 50.0475 14.0228 49.5062C13.4814 48.9649 12.7339 48.6298 11.909 48.6298Z" fill="#A2ABB8"/>
<path d="M10.8648 50.576C11.1355 50.3054 11.4963 50.1378 11.9088 50.1378C12.3212 50.1378 12.6821 50.3054 12.9528 50.576C13.2235 50.8467 13.3781 51.2076 13.3781 51.62C13.3781 52.0325 13.2106 52.3934 12.9528 52.664C12.695 52.9347 12.3212 53.1023 11.9088 53.1023C11.4963 53.1023 11.1355 52.9347 10.8648 52.664C10.5941 52.3934 10.4395 52.0325 10.4395 51.62C10.4395 51.2076 10.5941 50.8467 10.8648 50.576Z" fill="#E6E6E6"/>
<path d="M48.5909 33.3564H41.9531V40.4324H51.4393L48.5909 33.3564Z" fill="#BFDDFF"/>
<path d="M47.8429 33.3564H46.9664L42.8936 40.4324H43.7571L47.8429 33.3564ZM45.5487 40.4324H46.4251L49.3767 35.3156L49.0158 34.4262L45.5487 40.4324Z" fill="white"/>
<path d="M56.5305 41.5022V42.7138H55.087C54.391 42.7138 53.811 43.2809 53.811 43.9898C53.811 44.6858 54.3781 45.2658 55.087 45.2658H56.5305V46.4773H55.087C53.7207 46.4773 52.6123 45.3689 52.6123 44.0026C52.6123 42.6364 53.7207 41.528 55.087 41.528L56.5305 41.5022Z" fill="#9E3735"/>
<path d="M56.5301 42.7009V45.24H55.0865C54.3905 45.24 53.8105 44.6729 53.8105 43.964C53.8105 43.268 54.3777 42.688 55.0865 42.688L56.5301 42.7009Z" fill="#FFE26F"/>
<path d="M24.0889 48.6298C23.264 48.6298 22.5164 48.9649 21.9751 49.5062C21.4337 50.0475 21.0986 50.7951 21.0986 51.62C21.0986 52.4449 21.4337 53.1924 21.9751 53.7338C22.5164 54.2751 23.264 54.6102 24.0889 54.6102C24.9137 54.6102 25.6613 54.2751 26.2026 53.7338C26.744 53.1924 27.0791 52.4449 27.0791 51.62C27.0791 50.7951 26.744 50.0475 26.2026 49.5062C25.6613 48.9649 24.9137 48.6298 24.0889 48.6298Z" fill="#A2ABB8"/>
<path d="M23.0447 50.576C23.3153 50.3054 23.6762 50.1378 24.0887 50.1378C24.5011 50.1378 24.862 50.3054 25.1327 50.576C25.4033 50.8467 25.5709 51.2076 25.5709 51.62C25.5709 52.0325 25.4033 52.3934 25.1327 52.664C24.862 52.9347 24.5011 53.1023 24.0887 53.1023C23.6762 53.1023 23.3153 52.9347 23.0447 52.664C22.774 52.3934 22.6064 52.0325 22.6064 51.62C22.6064 51.2076 22.774 50.8467 23.0447 50.576Z" fill="#E6E6E6"/>
<path d="M46.8379 48.6298C46.013 48.6298 45.2654 48.9649 44.7241 49.5062C44.1828 50.0475 43.8477 50.7951 43.8477 51.62C43.8477 52.4449 44.1828 53.1924 44.7241 53.7338C45.2654 54.2751 46.013 54.6102 46.8379 54.6102C47.6628 54.6102 48.4103 54.2751 48.9517 53.7338C49.493 53.1924 49.8281 52.4449 49.8281 51.62C49.8281 50.7951 49.493 50.0475 48.9517 49.5062C48.4103 48.9649 47.6628 48.6298 46.8379 48.6298Z" fill="#A2ABB8"/>
<path d="M45.8064 50.576C46.0771 50.3054 46.4379 50.1378 46.8504 50.1378C47.2628 50.1378 47.6237 50.3054 47.8944 50.576C48.1651 50.8467 48.3326 51.2076 48.3326 51.62C48.3326 52.0325 48.1651 52.3934 47.8944 52.664C47.6237 52.9347 47.2628 53.1023 46.8504 53.1023C46.4379 53.1023 46.0771 52.9347 45.8064 52.664C45.5357 52.3934 45.3682 52.0325 45.3682 51.62C45.3682 51.2076 45.5357 50.8467 45.8064 50.576Z" fill="#E6E6E6"/>
<path d="M10.5941 24.0249H29.5279C30.0305 24.0249 30.4945 24.2311 30.8296 24.5662C31.1648 24.9013 31.371 25.3653 31.371 25.868V38.4218C31.371 38.9245 31.1648 39.3885 30.8296 39.7236C30.4945 40.0587 30.0305 40.2649 29.5279 40.2649H10.5941C10.0914 40.2649 9.62742 40.0587 9.29231 39.7236C8.9572 39.3885 8.75098 38.9245 8.75098 38.4218V25.868C8.75098 25.3653 8.9572 24.9013 9.29231 24.5662C9.62742 24.2311 10.0914 24.0249 10.5941 24.0249Z" fill="#FFD47D"/>
<path d="M13.1719 24.0249H17.4123V32.4542C17.4123 32.6605 17.2448 32.8409 17.0257 32.8409C16.8839 32.8409 16.7679 32.7765 16.7034 32.6605L15.2857 30.8431L13.855 32.6862C13.7261 32.8538 13.4812 32.8796 13.3137 32.7507C13.2105 32.6733 13.1719 32.5573 13.1719 32.4542V24.0249ZM22.7225 24.0249H26.963V32.4542C26.963 32.6605 26.7954 32.8409 26.5763 32.8409C26.4345 32.8409 26.3185 32.7765 26.2541 32.6605L24.8363 30.8431L23.4057 32.6862C23.2768 32.8538 23.0319 32.8796 22.8643 32.7507C22.7612 32.6733 22.7225 32.5573 22.7225 32.4542V24.0249Z" fill="#EDAF54"/>
<path d="M11.6767 33.9623H14.5123C14.7185 33.9623 14.8989 34.1298 14.8989 34.3489V37.9836C14.8989 38.1898 14.7314 38.3703 14.5123 38.3703H11.6767C11.4705 38.3703 11.29 38.2027 11.29 37.9836V34.3489C11.3029 34.1427 11.4705 33.9623 11.6767 33.9623ZM16.9096 33.9623H19.7451C19.9514 33.9623 20.1318 34.1298 20.1318 34.3489V37.9836C20.1318 38.1898 19.9643 38.3703 19.7451 38.3703H16.9096C16.7034 38.3703 16.5229 38.2027 16.5229 37.9836V34.3489C16.5358 34.1427 16.7034 33.9623 16.9096 33.9623Z" fill="#D78E44"/>
<path d="M22.1425 34.7356C21.9363 34.7356 21.7559 34.5681 21.7559 34.3489C21.7559 34.1298 21.9234 33.9623 22.1425 33.9623H28.4452C28.6514 33.9623 28.8319 34.1298 28.8319 34.3489C28.8319 34.5681 28.6643 34.7356 28.4452 34.7356H22.1425ZM22.1425 36.5529C21.9363 36.5529 21.7559 36.3854 21.7559 36.1663C21.7559 35.9601 21.9234 35.7796 22.1425 35.7796H28.4452C28.6514 35.7796 28.8319 35.9472 28.8319 36.1663C28.8319 36.3725 28.6643 36.5529 28.4452 36.5529H22.1425ZM22.1425 38.3703C21.9363 38.3703 21.7559 38.2027 21.7559 37.9836C21.7559 37.7774 21.9234 37.5969 22.1425 37.5969H28.4452C28.6514 37.5969 28.8319 37.7645 28.8319 37.9836C28.8319 38.1898 28.6643 38.3703 28.4452 38.3703H22.1425Z" fill="#EDAF54"/>
<path fill-rule="evenodd" clip-rule="evenodd" d="M22.4008 4.45959C22.6071 4.73026 22.5426 5.11693 22.272 5.32315C22.0013 5.52937 21.6146 5.46493 21.4084 5.19426C21.0733 4.73026 20.6866 4.35648 20.2742 4.04715C19.4622 3.44137 18.5213 3.14493 17.5933 3.14493C16.6653 3.14493 15.7373 3.44137 14.9124 4.04715C14.5 4.35648 14.1133 4.73026 13.7782 5.19426C13.572 5.46493 13.1853 5.52937 12.9146 5.32315C12.644 5.11693 12.5795 4.73026 12.7857 4.45959C13.1982 3.90537 13.6751 3.42848 14.1777 3.0547C15.2088 2.28137 16.3946 1.90759 17.5804 1.90759C18.7662 1.90759 19.952 2.29426 20.9831 3.0547C21.5115 3.42848 21.9884 3.89248 22.4008 4.45959ZM31.436 5.42626C31.1008 5.36181 30.8946 5.0267 30.9591 4.69159C31.0235 4.35648 31.3586 4.15026 31.6937 4.2147C31.7195 4.2147 38.9244 5.68404 39.9684 14.6805C40.0071 15.0156 39.7622 15.3249 39.4271 15.3636C39.092 15.4023 38.7826 15.1574 38.744 14.8223C37.8031 6.71515 31.4617 5.42626 31.436 5.42626Z" fill="#EF5350"/>
</svg>