<svg width="100" height="100" viewBox="0 0 100 100" fill="none" xmlns="http://www.w3.org/2000/svg">
<path d="M13.7805 81.743L12.1495 85.4219C11.2735 87.3978 13.151 89.4779 15.2061 88.8082L28.2203 84.5668L33.8159 97.0588C34.6995 99.0313 37.5016 99.026 38.3776 97.05L44.0713 84.2074M18.5317 71.0262L16.5512 75.4934M55.9284 84.2076L61.6221 97.0502C62.4981 99.0262 65.3004 99.0314 66.1838 97.059L71.7793 84.567L84.7936 88.8084C86.8487 89.4781 88.7262 87.398 87.8502 85.4221L81.468 71.0266M82.7172 29.915C84.8819 25.0111 84.2026 19.1574 80.6786 14.852M75.2321 10.7203C71.5161 9.10273 67.2621 9.11191 63.552 10.7496C61.4469 5.31797 56.1748 1.46484 49.9998 1.46484C43.8248 1.46484 38.553 5.31797 36.4479 10.7496C31.1186 8.39727 24.6662 9.40059 20.2998 13.767C15.9334 18.1334 14.9303 24.5857 17.2825 29.915" stroke="#343A40" stroke-width="2" stroke-miterlimit="10" stroke-linecap="round" stroke-linejoin="round"/>
<path d="M17.2823 57.0192C14.93 62.3485 15.9333 68.8008 20.2997 73.1672C24.6661 77.5336 31.1185 78.5367 36.4478 76.1846C38.5528 81.6162 43.8247 85.4694 49.9997 85.4694C56.1747 85.4694 61.4468 81.6162 63.5517 76.1846C68.881 78.5369 75.3333 77.5336 79.6997 73.1672C84.0661 68.8008 85.0693 62.3485 82.7171 57.0192M73.8974 29.9151C69.1743 21.6043 60.2421 15.9977 49.9997 15.9977C39.7573 15.9977 30.8251 21.6041 26.1021 29.9151" stroke="#343A40" stroke-width="2" stroke-miterlimit="10" stroke-linecap="round" stroke-linejoin="round"/>
<path d="M26.1023 57.0191C30.8254 65.3301 39.7576 70.9365 50 70.9365C60.2424 70.9365 69.1746 65.3301 73.8977 57.0191M87.0041 57.0191H12.9959C9.1623 57.0191 6.05469 53.9115 6.05469 50.0779V36.8564C6.05469 33.0228 9.1623 29.9152 12.9959 29.9152H87.0041C90.8377 29.9152 93.9453 33.0228 93.9453 36.8564V50.0779C93.9453 53.9115 90.8377 57.0191 87.0041 57.0191Z" stroke="#343A40" stroke-width="2" stroke-miterlimit="10" stroke-linecap="round" stroke-linejoin="round"/>
<path d="M19.7455 37.0187H14.2607V50.0353H19.7455M19.341 43.5271H14.2607M60.2926 37.0187H54.8078V50.0353H60.2926M59.8883 43.5271H54.8078M26.3184 36.8988L35.5596 50.0353M34.9092 36.8988L25.6549 50.0353M78.484 36.8988H85.7389M82.0969 37.3183V50.0353M67.7752 43.7656L73.2934 50.0353M66.191 36.8988V50.0353M66.1953 36.8988H69.6861C71.64 36.8988 73.2934 38.4273 73.2934 40.3129C73.2934 42.1984 71.64 43.7269 69.6861 43.7269C68.7172 43.7269 66.2195 43.742 66.2195 43.742M41.442 50.0353V36.8988H45.0998C47.1473 36.8988 48.8795 38.5586 48.8795 40.606C48.8795 42.6535 47.1471 44.3133 45.0998 44.3133C44.0844 44.3133 41.4674 44.3297 41.4674 44.3297" stroke="#343A40" stroke-width="2" stroke-miterlimit="10" stroke-linecap="round" stroke-linejoin="round"/>
</svg>