<svg width="58" height="58" viewBox="0 0 58 58" fill="none" xmlns="http://www.w3.org/2000/svg">
<path d="M57.9755 16.188L53.313 6.90253C53.008 6.29503 52.54 5.78431 51.9614 5.42743C51.3829 5.07055 50.7165 4.88157 50.0367 4.88159H7.96425C7.28448 4.8816 6.61809 5.07061 6.03953 5.42748C5.46096 5.78436 4.99301 6.29505 4.68793 6.90253L0.0253906 16.188L4.07905 17.9314H53.9219L57.9755 16.188Z" fill="#FA6931"/>
<path d="M53.3134 6.90253C53.0083 6.29503 52.5404 5.78431 51.9618 5.42743C51.3832 5.07055 50.7168 4.88157 50.0371 4.88159H45.9395C46.6192 4.8816 47.2856 5.07061 47.8642 5.42748C48.4427 5.78436 48.9107 6.29505 49.2158 6.90253L53.8783 16.188H57.9758L53.3134 6.90253Z" fill="#FC5327"/>
<path d="M53.1462 55.0486H3.3418V18.7887H53.1462V55.0486Z" fill="#EEDFDA"/>
<path d="M49.0732 18.7886H53.1462V55.0484H49.0732V18.7886Z" fill="#DED0CB"/>
<path d="M37.1348 55.0485H49.0773V28.099C49.0773 27.9197 49.0061 27.7478 48.8793 27.621C48.7525 27.4942 48.5806 27.423 48.4013 27.423H37.8109C37.6316 27.423 37.4597 27.4942 37.3329 27.621C37.2061 27.7478 37.1349 27.9197 37.1349 28.099V55.0485H37.1348Z" fill="#557981"/>
<path d="M7.07129 55.0485H33.2244V28.099C33.2244 27.9197 33.1532 27.7478 33.0264 27.621C32.8996 27.4942 32.7277 27.423 32.5484 27.423H7.74735C7.65857 27.423 7.57066 27.4405 7.48863 27.4744C7.40661 27.5084 7.33208 27.5582 7.2693 27.621C7.20652 27.6838 7.15673 27.7583 7.12275 27.8403C7.08878 27.9223 7.07129 28.0103 7.07129 28.099V55.0485Z" fill="#97E4F9"/>
<path d="M7.07129 55.0485H33.2244V28.099C33.2244 27.9197 33.1532 27.7478 33.0264 27.621C32.8996 27.4942 32.7277 27.423 32.5484 27.423H7.74735C7.65857 27.423 7.57066 27.4405 7.48863 27.4744C7.40661 27.5084 7.33208 27.5582 7.2693 27.621C7.20652 27.6838 7.15673 27.7583 7.12275 27.8403C7.08878 27.9223 7.07129 28.0103 7.07129 28.099V55.0485Z" fill="#97E4F9"/>
<path d="M32.5484 27.4229H28.3242C28.5035 27.4229 28.6755 27.4941 28.8023 27.6209C28.9291 27.7477 29.0003 27.9196 29.0003 28.0989V55.0483H33.2244V28.099C33.2244 28.0102 33.207 27.9223 33.173 27.8403C33.139 27.7582 33.0892 27.6837 33.0265 27.6209C32.9637 27.5581 32.8891 27.5083 32.8071 27.4743C32.7251 27.4403 32.6372 27.4229 32.5484 27.4229Z" fill="#62D8F9"/>
<path d="M53.1466 23.5918C55.8137 23.5918 57.9757 21.4297 57.9757 18.7627V16.1881H48.3174V18.7627C48.3174 21.4296 50.4795 23.5918 53.1466 23.5918Z" fill="#FC5327"/>
<path d="M43.4884 23.5918C46.1555 23.5918 48.3175 21.4297 48.3175 18.7627V16.1881H38.6592V18.7627C38.6592 21.4296 40.8213 23.5918 43.4884 23.5918Z" fill="#ED4322"/>
<path d="M33.8292 23.5918C36.4963 23.5918 38.6584 21.4297 38.6584 18.7627V16.1881H29V18.7627C29 21.4296 31.1621 23.5918 33.8292 23.5918Z" fill="#FC5327"/>
<path d="M24.171 23.5918C26.8381 23.5918 29.0002 21.4297 29.0002 18.7627V16.1881H19.3418V18.7627C19.3418 21.4296 21.5039 23.5918 24.171 23.5918Z" fill="#ED4322"/>
<path d="M14.5128 23.5918C17.1799 23.5918 19.342 21.4297 19.342 18.7627V16.1881H9.68359V18.7627C9.68359 21.4296 11.8457 23.5918 14.5128 23.5918Z" fill="#FC5327"/>
<path d="M4.85457 23.5918C7.52166 23.5918 9.68375 21.4297 9.68375 18.7627V16.1881H0.0253906V18.7627C0.0253906 21.4296 2.18748 23.5918 4.85457 23.5918Z" fill="#ED4322"/>
<path d="M1.56296 58H56.438C57.2871 58 57.9755 57.3116 57.9755 56.4625V53.6347C57.9755 52.7856 57.2871 52.0972 56.438 52.0972H1.56296C0.713801 52.0972 0.0253906 52.7856 0.0253906 53.6347V56.4625C0.0253906 57.3116 0.713801 58 1.56296 58Z" fill="#FA6931"/>
<path d="M33.2244 52.0971H7.07129V45.6198H33.2244V52.0971Z" fill="#E5ECF1"/>
<path d="M29 45.6198H33.2241V52.0971H29V45.6198Z" fill="#C9E2E7"/>
<path d="M25.5716 33.5148C25.6866 33.5148 25.8004 33.4922 25.9066 33.4482C26.0128 33.4042 26.1092 33.3398 26.1905 33.2585C26.2718 33.1772 26.3363 33.0807 26.3802 32.9745C26.4242 32.8683 26.4468 32.7545 26.4468 32.6396V27.423H24.6963V32.6396C24.6963 32.8717 24.7886 33.0943 24.9527 33.2584C25.1169 33.4226 25.3395 33.5148 25.5716 33.5148Z" fill="#EEDFDA"/>
<path d="M28.4033 35.0925L26.3976 32.0949C26.0041 31.5068 25.1393 31.5068 24.7458 32.0949L22.7401 35.0925C22.5546 35.3698 22.7534 35.742 23.087 35.742H28.0564C28.39 35.742 28.5888 35.3698 28.4033 35.0925Z" fill="#FBD307"/>
<path d="M14.7249 33.5148C14.8399 33.5148 14.9537 33.4922 15.0599 33.4482C15.1661 33.4042 15.2626 33.3398 15.3438 33.2585C15.4251 33.1772 15.4896 33.0807 15.5336 32.9745C15.5775 32.8683 15.6002 32.7545 15.6001 32.6396V27.423H13.8496V32.6396C13.8496 32.8717 13.9419 33.0943 14.106 33.2584C14.2702 33.4226 14.4928 33.5148 14.7249 33.5148Z" fill="#EEDFDA"/>
<path d="M17.5566 35.0925L15.551 32.0949C15.1574 31.5068 14.2926 31.5068 13.8991 32.0949L11.8935 35.0925C11.7079 35.3698 11.9067 35.742 12.2403 35.742H17.2097C17.5434 35.742 17.7422 35.3698 17.5566 35.0925Z" fill="#FBD307"/>
<path d="M40.924 41.9666C40.8091 41.9666 40.6953 41.9439 40.5891 41.9C40.4829 41.856 40.3864 41.7915 40.3051 41.7103C40.2239 41.629 40.1594 41.5325 40.1154 41.4263C40.0714 41.3201 40.0488 41.2063 40.0488 41.0913V38.1108C40.0488 37.8787 40.141 37.6561 40.3052 37.4919C40.4693 37.3278 40.6919 37.2356 40.924 37.2356C41.1562 37.2356 41.3788 37.3278 41.5429 37.4919C41.707 37.6561 41.7992 37.8787 41.7992 38.1108V41.0913C41.7992 41.3235 41.707 41.5461 41.5429 41.7102C41.3788 41.8743 41.1562 41.9666 40.924 41.9666Z" fill="#C9E2E7"/>
<path d="M38.7525 9.76326H19.2482C18.2196 9.76326 17.3857 8.92939 17.3857 7.9008V1.86246C17.3857 0.833863 18.2196 0 19.2482 0H38.7525C39.7811 0 40.615 0.833863 40.615 1.86246V7.90069C40.615 8.92939 39.7811 9.76326 38.7525 9.76326Z" fill="#FBA615"/>
<path d="M38.753 0H34.582C35.6106 0 36.4445 0.833863 36.4445 1.86246V9.76326H38.7529C39.7815 9.76326 40.6154 8.92939 40.6154 7.9008V1.86246C40.6155 0.833863 39.7816 0 38.753 0Z" fill="#FA9801"/>
<path d="M53.878 16.188V18.7625C53.878 20.697 52.7401 22.3649 51.0977 23.1358C51.7387 23.4367 52.4383 23.5924 53.1465 23.5917C55.8136 23.5917 57.9756 21.4296 57.9756 18.7625V16.188H53.878Z" fill="#ED4322"/>
</svg>