<svg width="110" height="20" viewBox="0 0 110 20" fill="none" xmlns="http://www.w3.org/2000/svg">
<path d="M9.99986 17.2591L5.31287 19.8312C4.30288 20.3855 3.12288 19.4909 3.31488 18.3166L4.20988 12.8676L0.417884 9.00732C-0.400114 8.1764 0.0508847 6.7275 1.17988 6.55422L6.42187 5.76088L8.76487 0.802477C9.26986 -0.267493 10.7289 -0.267493 11.2349 0.802477L13.5779 5.76088L18.8198 6.55422C19.9488 6.72646 20.3998 8.17431 19.5828 9.00732L15.7899 12.8676L16.6848 18.3166C16.8768 19.4909 15.6969 20.3866 14.6869 19.8312L9.99986 17.2591Z" fill="url(#paint0_linear_3_8)"/>
<path d="M54.7999 17.2591L50.1129 19.8312C49.1029 20.3855 47.9229 19.4909 48.1149 18.3166L49.0099 12.8676L45.2179 9.00732C44.3999 8.1764 44.8509 6.7275 45.9799 6.55422L51.2219 5.76088L53.5649 0.802477C54.0699 -0.267493 55.5289 -0.267493 56.0349 0.802477L58.3779 5.76088L63.6199 6.55422C64.7489 6.72646 65.1999 8.17431 64.3829 9.00732L60.5899 12.8676L61.4849 18.3166C61.6769 19.4909 60.4969 20.3866 59.4869 19.8312L54.7999 17.2591Z" fill="url(#paint1_linear_3_8)"/>
<path d="M32.4 17.2591L27.713 19.8312C26.703 20.3855 25.523 19.4909 25.715 18.3166L26.61 12.8676L22.818 9.00732C22 8.1764 22.451 6.7275 23.58 6.55422L28.822 5.76088L31.165 0.802477C31.67 -0.267493 33.129 -0.267493 33.635 0.802477L35.978 5.76088L41.22 6.55422C42.349 6.72646 42.8 8.17431 41.983 9.00732L38.19 12.8676L39.085 18.3166C39.277 19.4909 38.097 20.3866 37.087 19.8312L32.4 17.2591Z" fill="url(#paint2_linear_3_8)"/>
<path d="M77.1999 17.2591L72.5129 19.8312C71.5029 20.3855 70.323 19.4909 70.515 18.3166L71.4099 12.8676L67.618 9.00732C66.8 8.1764 67.251 6.7275 68.38 6.55422L73.6219 5.76088L75.9649 0.802477C76.4699 -0.267493 77.9289 -0.267493 78.4349 0.802477L80.7779 5.76088L86.0199 6.55422C87.1489 6.72646 87.5999 8.17431 86.7829 9.00732L82.9899 12.8676L83.8849 18.3166C84.0769 19.4909 82.8969 20.3866 81.8869 19.8312L77.1999 17.2591Z" fill="url(#paint3_linear_3_8)"/>
<path d="M99.5998 17.2591L94.9128 19.8312C93.9029 20.3855 92.7229 19.4909 92.9149 18.3166L93.8099 12.8676L90.0179 9.00732C89.1999 8.1764 89.6509 6.7275 90.7799 6.55422L96.0218 5.76088L98.3648 0.802477C98.8698 -0.267493 100.329 -0.267493 100.835 0.802477L103.178 5.76088L108.42 6.55422C109.549 6.72646 110 8.17431 109.183 9.00732L105.39 12.8676L106.285 18.3166C106.477 19.4909 105.297 20.3866 104.287 19.8312L99.5998 17.2591Z" fill="url(#paint4_linear_3_8)"/>
<defs>
<linearGradient id="paint0_linear_3_8" x1="9.99986" y1="-0.000260968" x2="9.99986" y2="20.0003" gradientUnits="userSpaceOnUse">
<stop stop-color="#FFE61C"/>
<stop offset="1" stop-color="#FFA929"/>
</linearGradient>
<linearGradient id="paint1_linear_3_8" x1="54.7999" y1="-0.000260968" x2="54.7999" y2="20.0003" gradientUnits="userSpaceOnUse">
<stop stop-color="#FFE61C"/>
<stop offset="1" stop-color="#FFA929"/>
</linearGradient>
<linearGradient id="paint2_linear_3_8" x1="32.4" y1="-0.000260968" x2="32.4" y2="20.0003" gradientUnits="userSpaceOnUse">
<stop stop-color="#FFE61C"/>
<stop offset="1" stop-color="#FFA929"/>
</linearGradient>
<linearGradient id="paint3_linear_3_8" x1="77.1999" y1="-0.000260968" x2="77.1999" y2="20.0003" gradientUnits="userSpaceOnUse">
<stop stop-color="#FFE61C"/>
<stop offset="1" stop-color="#FFA929"/>
</linearGradient>
<linearGradient id="paint4_linear_3_8" x1="99.5998" y1="-0.000260968" x2="99.5998" y2="20.0003" gradientUnits="userSpaceOnUse">
<stop stop-color="#FFE61C"/>
<stop offset="1" stop-color="#FFA929"/>
</linearGradient>
</defs>
</svg>