<svg width="58" height="58" viewBox="0 0 58 58" fill="none" xmlns="http://www.w3.org/2000/svg">
<g clip-path="url(#clip0_370_740)">
<path d="M32.1487 57.9992C45.6367 57.9992 56.5709 47.065 56.5709 33.5771C56.5709 20.0891 45.6367 9.15491 32.1487 9.15491C18.6607 9.15491 7.72656 20.0891 7.72656 33.5771C7.72656 47.065 18.6607 57.9992 32.1487 57.9992Z" fill="#6DAFDF"/>
<path d="M18.9781 53.26C18.9727 53.2691 18.9654 53.2746 18.96 53.2836C18.9963 53.2945 19.0307 53.3109 19.067 53.3199L18.9781 53.26ZM19.6731 18.8083L19.6295 18.7067C20.0414 18.6722 20.0868 18.3873 20.4025 18.302C20.7618 18.2095 20.6329 18.3274 20.9813 18.3383C21.2626 18.3456 21.4204 18.5597 21.7506 18.4327C21.6654 18.5651 21.5311 18.6504 21.3986 18.7375C21.121 18.9081 20.8398 19.0841 20.5204 19.1349C20.2029 19.1857 19.8382 19.0841 19.6731 18.8083Z" fill="#E8EFF3"/>
<path d="M23.1385 40.8488C23.1185 41.0629 22.9806 41.2426 22.859 41.4168C22.3165 42.1843 21.9591 43.0915 21.8339 44.0242C21.7105 44.9187 21.6778 46.0292 20.8667 46.4193C20.404 46.6389 19.778 46.5536 19.4532 46.9546C19.3516 47.0762 19.2972 47.2322 19.2428 47.3792C19.0053 48.0672 18.767 48.7548 18.5279 49.4423C18.2811 49.4042 18.0289 49.3606 17.7839 49.3171C18.0706 49.4296 18.2484 49.8396 18.0543 50.0991C17.7821 49.9322 17.4011 50.0846 17.2287 50.3568C17.0617 50.6289 17.0617 50.9719 17.1252 51.2858C17.3194 52.2166 18.0561 53.0059 18.9615 53.2854C18.7819 53.5775 18.2992 53.4142 18.0162 53.191C15.9749 51.6088 14.5069 49.3062 13.9336 46.7895C13.7303 45.9022 13.6251 44.9641 13.166 44.182C12.7814 43.5216 12.1717 43.0171 11.7888 42.3549C11.2517 41.4131 11.2173 40.2246 10.5822 39.3482C10.2266 38.8493 9.6695 38.2269 10.0433 37.7424C10.1939 37.541 10.5005 37.3614 10.3989 37.1346C10.3645 37.0602 10.2901 37.0112 10.2338 36.9459C10.0179 36.6828 10.203 36.3017 10.339 35.9896C10.5677 35.4453 10.6058 34.8501 10.5622 34.2495C10.0161 33.6943 9.60055 33.0193 9.36104 32.279C9.21769 31.8272 9.02717 31.2611 8.55359 31.2248C8.45379 30.8746 8.34855 30.5262 8.25057 30.176C8.19795 30.2939 8.07275 30.3647 7.93848 30.372C8.6679 24.8105 11.2481 19.8896 15.0059 16.1899C15.0821 16.1609 15.162 16.1209 15.2418 16.081C16.1055 15.6492 16.8132 14.9633 17.6533 14.4861C17.8256 14.3863 18.0198 14.2937 18.223 14.3282C18.4208 14.3572 18.595 14.5732 18.5115 14.7564C18.4789 14.8326 18.4099 14.8889 18.3391 14.9343C17.3428 15.6764 16.2683 16.3074 15.1348 16.8159C14.9987 16.874 14.8553 16.9411 14.7864 17.0699C14.6612 17.2895 14.8299 17.5834 15.0622 17.6814C15.2944 17.7794 15.5612 17.7467 15.8079 17.7068C15.5847 17.9862 15.4995 18.3727 15.5829 18.7229C15.8079 18.7592 15.8987 18.4544 15.9785 18.2439C16.3087 17.4074 17.6932 17.1479 17.6623 16.2425C18.0198 16.4602 18.4226 16.0538 18.6712 15.7145C18.9198 15.3716 19.4442 15.0504 19.7 15.3824C19.7055 15.5603 19.7163 15.7381 19.7218 15.9159C20.2153 15.8252 20.7143 15.7308 21.206 15.6401C20.9175 15.8161 20.7978 16.2225 20.9375 16.531C21.0772 16.8395 21.4655 17.0137 21.7867 16.9121C21.7649 17.1715 21.5199 17.3548 21.3004 17.4945C20.7397 17.8628 20.1391 18.2403 19.504 18.3981L19.6274 18.7048C19.6111 18.7084 19.593 18.7138 19.5766 18.712C19.1774 18.7247 18.7764 18.4108 18.3482 18.4399C18.0869 18.4562 17.7676 18.4362 17.6006 18.6903C17.5771 18.7211 17.4537 19.1784 17.5208 19.1439C17.7603 19.0259 18.0016 18.9098 18.2357 18.7919C18.2956 18.9842 18.2992 19.1947 18.2466 19.3961C18.5297 19.387 18.8182 19.4669 19.0559 19.6302C18.7583 20.2144 18.0652 20.5737 17.4119 20.483C17.4192 20.2834 17.421 20.0856 17.4283 19.886C16.8912 19.808 16.4194 20.2416 16.12 20.688C15.8152 21.138 15.5702 21.6606 15.0985 21.9291C14.81 22.0997 14.4688 22.1487 14.1622 22.2848C13.8592 22.4263 13.5707 22.7112 13.6088 23.0414C13.6269 23.1975 13.7158 23.3481 13.7013 23.5077C13.665 23.8035 13.3094 23.9196 13.0644 24.0974C12.6453 24.4023 12.5074 25.0029 12.0646 25.2678C11.7417 25.4638 11.3352 25.4311 10.9687 25.5182C10.604 25.6053 10.2211 25.941 10.3427 26.2966C10.163 26.3456 9.95619 26.2004 9.95075 26.0117C9.23584 27.2166 8.72959 28.5466 8.47012 29.9238C8.76951 30.1651 9.12152 29.6843 9.20681 29.3068C9.29753 28.9312 9.66043 28.4558 9.95438 28.7008C9.84732 29.2415 9.74027 29.7786 9.63503 30.3193C9.61144 30.4228 9.59329 30.5334 9.63684 30.6296C9.68946 30.7494 9.81829 30.8074 9.91264 30.8963C10.1776 31.1576 10.1122 31.584 10.105 31.9542C10.0923 32.4078 10.2138 32.8578 10.4243 33.2588C10.4084 33.1807 10.3951 33.102 10.3844 33.0229C10.8108 33.1064 11.2663 32.9975 11.6092 32.7308C11.7906 32.5874 11.9467 32.3987 12.1662 32.3352C12.3912 32.2663 12.6308 32.3425 12.8521 32.4187C13.5398 32.6564 14.2711 32.9195 14.7029 33.5019C14.9225 33.7977 15.0477 34.1606 15.3144 34.411C15.9186 34.9916 17.0146 34.8247 17.5607 35.4634C17.998 35.9787 17.8601 36.7553 17.6896 37.4158C17.3811 37.2198 16.922 37.6317 17.0908 37.9583C17.274 37.7823 17.4845 37.5954 17.7331 37.6118C17.9871 37.6227 18.1849 37.9837 17.9871 38.1325C18.4643 37.5991 19.5294 37.9003 19.6565 38.6116C20.2716 38.695 20.8921 38.7803 21.5054 38.8692C21.3421 39.7638 23.2346 39.9416 23.1385 40.8488ZM21.0355 15.0994C20.7887 15.201 20.4712 15.0468 20.3986 14.7909C20.326 14.5351 20.5147 14.2357 20.7778 14.1939C20.9448 14.1667 21.1698 14.1994 21.2296 14.0415C21.2478 13.9944 21.2423 13.9399 21.246 13.8891C21.2587 13.5879 21.5453 13.3556 21.8429 13.2994C22.1405 13.2432 22.4435 13.3212 22.7357 13.3992C22.8264 13.6224 22.8409 13.8782 22.7756 14.1105C22.5724 14.1068 22.3691 14.1014 22.1641 14.0978C22.1605 14.4353 22.1006 14.858 21.7794 14.9615C21.4927 15.054 21.1407 14.8236 20.8939 14.9978M24.4141 11.9367C24.9856 11.7081 25.481 11.3198 26.0453 11.0748C27.016 10.6539 28.1156 10.6811 29.1735 10.7174C31.5813 10.799 33.9891 10.8789 36.397 10.9605C35.82 11.2291 35.2429 11.4994 34.6659 11.768C34.1942 11.9875 33.6607 12.2125 33.1708 12.0383C33.1327 12.4393 33.4756 12.8349 33.8766 12.8567C32.8496 13.4028 31.5196 12.6897 30.4454 13.1343C29.9954 13.3212 29.6162 13.704 29.1317 13.7494C28.8505 13.7748 28.5674 13.6823 28.288 13.7258C27.8199 13.7966 27.5005 14.2157 27.1376 14.5206C26.7185 14.8726 26.1251 15.0921 25.6225 14.878C25.1199 14.6639 24.9003 13.8819 25.3376 13.5516C25.5518 13.3883 25.8439 13.3792 26.0907 13.2722C26.3374 13.1651 26.5479 12.8494 26.381 12.6371C26.3084 12.5446 26.1832 12.5028 26.1161 12.4067C26.0453 12.3014 26.0616 12.1581 26.0054 12.0438C25.7894 11.5992 25.0727 12.1327 24.6227 11.9295M31.5795 14.4389C31.9097 14.3845 32.2037 14.2103 32.5158 14.0905C32.8279 13.9708 33.1944 13.9109 33.4829 14.0778C33.5573 14.3046 33.2887 14.4897 33.0601 14.555C32.618 14.6786 32.152 14.6892 31.7047 14.5859M51.0671 18.1368C50.9745 18.1423 50.8816 18.1306 50.7931 18.1024C50.3849 17.988 50.0909 17.6469 49.7534 17.3929C48.9714 16.7996 47.8627 16.6562 46.9519 17.0409C47.1818 16.747 47.3082 16.3852 47.3111 16.0121L47.1823 16.0484C45.7924 15.1175 44.1557 14.1377 42.5427 14.5986C42.1707 14.7074 41.8259 14.8853 41.4485 14.9887C41.0475 15.1012 40.6084 15.1284 40.2564 15.3498C39.8989 15.5711 39.683 16.0937 39.9552 16.404C40.1874 16.6689 40.5884 16.6272 40.9332 16.6834C41.2725 16.7379 41.6427 17.1062 41.4358 17.3856C39.879 17.9935 38.3185 18.6086 36.7617 19.2219C37.4421 19.4923 37.8486 20.3106 37.6544 21.0182C37.1409 21.0745 36.671 20.7334 36.1611 20.6681C35.419 20.581 34.6659 21.1924 34.6006 21.9346C34.5299 22.6785 35.1704 23.4116 35.9143 23.4479C36.4714 23.4787 37.0393 23.1775 37.5709 23.3553C37.6254 22.8491 38.001 22.4426 38.382 22.1015C39.1205 21.4519 40.1548 20.8858 41.0584 21.2886C41.3542 21.4174 41.6009 21.6388 41.8404 21.8584C42.3685 22.3356 42.8965 22.8182 43.4245 23.3009C43.6132 23.1303 43.8001 22.9598 43.9888 22.7946C44.2733 23.1355 44.5576 23.4767 44.8416 23.818C45.0031 23.7237 45.17 23.6347 45.3297 23.5386C45.4222 23.8325 45.5184 24.121 45.611 24.415C45.6763 24.1029 45.7343 23.798 45.7924 23.4914C46.1553 23.5259 46.54 23.5622 46.8829 23.417C47.224 23.2791 47.4926 22.8962 47.3765 22.5461C47.3166 22.3592 47.1551 22.2049 47.1333 22.0108C47.0861 21.6207 47.6541 21.3902 48.0025 21.5916C48.3436 21.7858 48.4942 22.1995 48.6194 22.5787C48.7264 22.2086 48.828 21.8438 48.9333 21.4755C49.223 22.4043 49.6625 23.2795 50.2343 24.0666C49.1184 23.7781 47.919 23.8235 46.8321 24.1918C47.1388 24.6872 47.6994 25.0065 48.2783 25.021C48.5377 25.0319 48.828 24.9902 49.0168 25.168C49.1583 25.3041 49.1837 25.5109 49.1982 25.6996C49.2526 26.2349 49.3071 26.7647 49.3561 27.2928C48.7918 26.7629 47.9281 26.7629 47.1515 26.6976C46.3749 26.625 45.4803 26.3529 45.239 25.6107C44.9069 25.9391 44.7382 26.4254 44.7962 26.8936C44.0033 26.6486 43.0979 26.2803 42.9164 25.471C42.2723 25.6615 41.5156 25.2097 41.3868 24.5529C41.3415 24.3224 41.3415 24.0466 41.1509 23.9124C41.0348 23.8325 40.8788 23.8343 40.7354 23.8416C39.5306 23.9033 38.3312 23.9577 37.1318 24.0194C36.4768 24.0557 35.7982 24.0884 35.2048 24.3714C34.6115 24.649 34.1143 25.2369 34.1379 25.892C32.9984 26.4726 32.0059 27.3545 31.3073 28.4232C31.0859 28.7516 30.89 29.1327 30.9426 29.5228C30.9789 29.824 31.1603 30.0907 31.2021 30.3865C31.2747 30.8945 30.9571 31.3608 30.8029 31.8508C30.371 33.2407 31.3545 34.6378 32.2781 35.7719C32.7154 36.2981 33.2198 36.8733 33.902 36.944C34.3248 36.9876 34.7403 36.8261 35.1468 36.6973C36.3117 36.3235 37.5601 36.2001 38.774 36.3271C38.4836 36.5249 38.7413 37.0112 39.0788 37.1055C39.4163 37.1999 39.7919 37.1128 40.1167 37.2489C40.8552 37.5682 40.6792 38.6696 40.2909 39.37C40.4632 39.3482 40.6429 39.3265 40.8207 39.3047C40.7118 39.5406 40.603 39.7783 40.4923 40.0087C41.5193 40.2083 41.8241 41.5946 41.5156 42.598C41.2126 43.6032 40.5467 44.5014 40.4632 45.5465C40.4215 46.1199 40.5612 46.6879 40.7028 47.2449C41.0548 48.6566 41.4068 50.0701 41.7588 51.4872C42.9836 51.7158 43.7965 50.1898 44.9741 49.7725C45.4168 49.6128 45.9249 49.6074 46.2823 49.308C46.6271 49.0195 46.569 48.2919 46.1499 48.2647C46.7214 48.2411 47.2404 47.753 47.293 47.1814C47.3093 47.0217 47.2966 46.8602 47.3293 46.7024C47.3819 46.4792 47.5379 46.2887 47.6885 46.1054C48.6466 44.9042 49.3071 43.5016 49.9657 42.1172C50.1399 41.747 50.3123 41.3805 50.4847 41.0103C51.1379 39.6295 51.7857 38.2541 52.4389 36.8733C52.6947 36.3307 52.9506 35.7937 53.2082 35.2511C52.8726 35.7338 52.0832 35.6158 51.655 35.213C51.2214 34.8084 51.0218 34.2259 50.6933 33.7342C50.4157 33.3114 50.0311 32.9286 49.9186 32.4278C49.8532 32.1411 49.8895 31.8399 49.8587 31.5441C49.7897 30.9036 49.4051 30.3466 49.1547 29.755C48.9043 29.1635 48.8045 28.4087 49.2381 27.9333C50.2651 30.0308 51.1851 32.1828 52.0016 34.3783C52.1268 34.0536 52.3881 33.7832 52.7074 33.6435C52.9415 33.5364 53.1973 33.5038 53.4423 33.4185C54.0883 33.1826 54.5673 32.5439 54.6108 31.8598C54.6489 31.1758 54.257 30.4808 53.6401 30.1705C53.3352 30.0181 52.9796 29.951 52.6929 29.7496C52.4062 29.5536 52.2175 29.1381 52.4244 28.8569C52.6185 28.5919 53.0431 28.6246 53.3244 28.7988C53.6056 28.9784 53.8034 29.2615 54.0683 29.4611C54.2588 29.6062 54.4838 29.7097 54.6907 29.8439C55.812 30.5861 56.0007 32.1211 56.1586 33.4602C56.2457 34.1806 56.3491 34.8955 56.4798 35.6013C56.4943 35.4525 56.5052 35.2983 56.5142 35.1495C56.9334 28.7335 54.834 22.7475 51.0671 18.1368ZM52.7782 26.2912C52.6185 26.2694 52.477 26.1551 52.3572 26.048C52.1576 25.8684 51.9617 25.6633 51.9181 25.4002C51.8655 25.0863 52.0379 24.7434 51.8909 24.4567C51.822 24.3188 51.6895 24.2281 51.5806 24.1265C51.2921 23.8652 51.0943 23.5023 51.0363 23.1231C50.9855 22.7874 51.1198 22.3537 51.4591 22.3192C51.6206 22.3011 51.7911 22.4009 51.8528 22.5551L51.6187 22.6622C51.9962 22.7311 52.1359 23.3154 51.8274 23.544C51.7857 23.5803 51.7349 23.6093 51.7312 23.6656C51.7294 23.6983 51.7494 23.7327 51.7748 23.7563C51.9962 24.0303 52.3427 24.1464 52.6403 24.3333C52.9397 24.513 53.2227 24.8305 53.152 25.168C53.0504 25.2007 52.9542 25.2279 52.8526 25.2587C52.7401 25.3567 52.8109 25.549 52.9161 25.6615C53.0195 25.774 53.1556 25.8865 53.152 26.0426C53.1393 26.2095 52.9433 26.3129 52.7782 26.2912ZM51.8383 43.2621L51.4228 43.5179C51.5298 44.0151 51.2141 44.5685 50.7314 44.7282C50.4756 44.8135 50.1417 44.8353 50.0419 45.0857C49.9567 45.298 50.1127 45.5284 50.12 45.757C50.1327 46.1344 49.7625 46.3921 49.4922 46.6552C49.2218 46.9183 49.053 47.4336 49.3797 47.6241C49.4559 47.6677 49.5448 47.6822 49.6319 47.6967C49.9966 47.753 50.3958 47.7893 50.7097 47.5951C51.606 47.0381 50.9002 45.327 51.7875 44.7536C51.9127 44.672 52.0687 44.6175 52.1449 44.4887C52.3627 44.104 51.6514 43.6649 51.8383 43.2621Z" fill="#E8EFF3"/>
<path d="M25.1923 14.6748C24.9492 14.8508 24.7006 15.0177 24.4393 15.1683C24.2288 15.2899 24.0927 15.3589 23.9984 15.3988C23.5284 15.8633 23.044 16.3078 22.5903 16.7905C22.1295 17.2822 21.6994 17.7975 21.2585 18.3056C21.2513 18.3183 21.2549 18.3165 21.2458 18.331C19.9503 20.61 18.5731 22.8691 16.9219 24.9122C38.5561 36.5775 46.1479 48.7473 39.2093 56.947C39.2238 56.9416 39.2401 56.9343 39.2546 56.9289C44.6582 54.6753 48.3561 49.2989 47.9243 43.4581C47.291 34.8846 39.9187 24.7489 25.1923 14.6748Z" fill="#FFD93B"/>
<path d="M25.3574 3.69534L21.8391 4.30863L20.5998 3.06934C20.2206 2.69011 19.6036 2.69011 19.2226 3.06934C18.8434 3.44857 18.8434 4.06549 19.2226 4.44472L19.4948 4.7169L17.9325 4.98907L16.9073 3.96388C16.5281 3.58284 15.9111 3.58284 15.5301 3.96388C15.1509 4.34311 15.1509 4.96004 15.5301 5.33927L15.5864 5.39733L11.5074 6.1068L8.44089 3.0403C7.45017 2.04959 6.30523 1.22218 5.03327 0.637918C4.08248 0.20244 3.01737 -0.122354 2.1573 0.0445793C1.98828 0.0778735 1.83298 0.160696 1.71117 0.28251C1.58936 0.404323 1.50653 0.55962 1.47324 0.728643C1.28635 1.69214 1.71638 2.91329 2.22988 3.94392C2.78874 5.06528 3.53813 6.07958 4.4236 6.96686L7.53727 10.0805L6.82599 14.1595L6.76792 14.1033C6.38688 13.724 5.77177 13.724 5.39073 14.1033C5.00968 14.4825 5.00968 15.0994 5.39073 15.4786L6.41591 16.5038L6.14374 18.0661L5.87157 17.7958C5.49234 17.4147 4.87541 17.4147 4.49437 17.7958C4.11514 18.175 4.11514 18.7919 4.49437 19.1711L5.73366 20.4104L5.12037 23.9287C5.08805 24.1147 5.10084 24.3057 5.15768 24.4857C5.21451 24.6656 5.31372 24.8293 5.44697 24.963C5.99495 25.511 6.91308 25.3894 7.29957 24.7199L8.87455 21.989C9.79994 22.7965 10.8306 23.1086 10.8306 23.1086C10.8306 23.1086 10.4677 21.8911 9.4951 20.9149L10.5493 19.0895C11.5037 19.9804 12.6287 20.3197 12.6287 20.3197C12.6287 20.3197 12.2658 19.0967 11.2878 18.1187C11.2515 18.0788 11.2116 18.048 11.1735 18.0117L12.7449 15.2881L16.6986 19.2419L15.6027 24.1537C15.4285 25.0174 15.9275 25.8811 16.764 26.1587C17.6023 26.4364 18.5204 26.039 18.9032 25.2261L20.3748 21.6425C21.3328 21.8003 22.2927 21.7858 22.7445 21.657C23.2199 21.9509 23.5393 22.1106 23.5393 22.1106C23.5393 22.1106 23.3796 21.7913 23.0856 21.3159C23.2145 20.8659 23.229 19.906 23.0711 18.9461L26.6765 17.4655C26.8581 17.3807 27.0233 17.2646 27.1646 17.1226C27.6346 16.6508 27.7979 15.9667 27.5892 15.3371C27.3116 14.4988 26.4479 13.9998 25.5842 14.1758L20.6724 15.2718L16.7168 11.3162L19.4403 9.74485C19.4766 9.78296 19.5075 9.82288 19.5456 9.86098C20.5236 10.839 21.7466 11.2019 21.7466 11.2019C21.7466 11.2019 21.4054 10.0787 20.5145 9.12248L22.3399 8.06826C23.3179 9.04083 24.5354 9.40373 24.5354 9.40373C24.5354 9.40373 24.2233 8.37491 23.4159 7.44771L26.1467 5.87273C26.8181 5.48624 26.9378 4.56811 26.3917 4.02013C26.2579 3.88712 26.0941 3.78819 25.9141 3.73167C25.7341 3.67515 25.5432 3.66269 25.3574 3.69534Z" fill="#5A5F63"/>
<path d="M44.2717 50.4856C44.1102 51.6196 44.1229 51.6069 43.3826 53.8242C43.8071 52.2348 43.9904 51.8682 44.0902 50.4674C44.963 44.358 40.8005 36.661 36.9411 32.4677C35.0087 30.1306 32.394 27.5486 29.8827 25.4819C27.7199 23.6765 26.7437 23.0396 24.9292 21.744C24.5118 21.4719 24.403 20.8912 24.6933 20.492C24.9836 20.0747 25.5461 19.9658 25.9634 20.2562C25.9634 20.2743 25.9816 20.2743 25.9997 20.2924C27.7797 21.6769 28.5509 22.2031 30.8807 24.3206C33.5317 26.7321 35.954 29.3867 37.7939 31.7963C41.7858 36.7154 45.2261 43.7865 44.2717 50.4856Z" fill="#E9B02C"/>
</g>
<defs>
<clipPath id="clip0_370_740">
<rect width="58" height="58" fill="white"/>
</clipPath>
</defs>
</svg>